SplineFontDB: 3.0
FontName: HM_XBKayhan-Italic
FullName: HM_XBKayhan Italic
FamilyName: HM_XBKayhan
Weight: Book
Copyright: Copyright (c) Hossein, 2013. All rights reserved.
Version: 0.11
ItalicAngle: -12
UnderlinePosition: -690
UnderlineWidth: 60
Ascent: 1638
Descent: 410
sfntRevision: 0x00010000
LayerCount: 2
Layer: 0 1 "Back"  1
Layer: 1 1 "Fore"  0
XUID: [1021 89 1372840488 16109552]
FSType: 0
OS2Version: 2
OS2_WeightWidthSlopeOnly: 0
OS2_UseTypoMetrics: 1
CreationTime: 1231028460
ModificationTime: 1360911863
PfmFamily: 17
TTFWeight: 400
TTFWidth: 5
LineGap: 0
VLineGap: 0
Panose: 2 0 5 3 8 0 0 9 0 3
OS2TypoAscent: 2200
OS2TypoAOffset: 0
OS2TypoDescent: -850
OS2TypoDOffset: 0
OS2TypoLinegap: 0
OS2WinAscent: 2200
OS2WinAOffset: 0
OS2WinDescent: 850
OS2WinDOffset: 0
HheadAscent: 2200
HheadAOffset: 0
HheadDescent: -850
HheadDOffset: 0
OS2SubXSize: 1434
OS2SubYSize: 1331
OS2SubXOff: 0
OS2SubYOff: 293
OS2SupXSize: 1434
OS2SupYSize: 1331
OS2SupXOff: 0
OS2SupYOff: 928
OS2StrikeYSize: 102
OS2StrikeYPos: 512
OS2Vendor: 'pars'
OS2CodePages: 20000051.41000000
OS2UnicodeRanges: 00002003.80000000.00000008.00000000
Lookup: 4 0 0 "'ccmp' Glyph Composition/Decomposition in Latin lookup 0"  {"'ccmp' Glyph Composition/Decomposition in Latin lookup 0 subtable"  } ['ccmp' ('latn' <'dflt' > ) ]
Lookup: 6 1 0 "'ccmp' Glyph Composition/Decomposition in Arabic lookup 1"  {"'ccmp' Glyph Composition/Decomposition in Arabic lookup 1 contextual 0"  "'ccmp' Glyph Composition/Decomposition in Arabic lookup 1 contextual 1"  "'ccmp' Glyph Composition/Decomposition in Arabic lookup 1 contextual 2"  "'ccmp' Glyph Composition/Decomposition in Arabic lookup 1 contextual 3"  "'ccmp' Glyph Composition/Decomposition in Arabic lookup 1 contextual 4"  "'ccmp' Glyph Composition/Decomposition in Arabic lookup 1 contextual 5"  } ['ccmp' ('arab' <'ARA ' 'DRI ' 'FAR ' 'KUR ' 'PAS ' 'TRK ' 'URD ' 'UYG ' 'UZB ' 'dflt' > ) ]

StartChar: .notdef
Encoding: 65536 -1 0
Width: 1236
GlyphClass: 2
Flags: W
LayerCount: 2
Fore
SplineSet
688 347 m 0,0,1
 688 329 688 329 681 313 c 128,-1,2
 674 297 674 297 662.5 285.5 c 128,-1,3
 651 274 651 274 635 267 c 128,-1,4
 619 260 619 260 602 260 c 256,5,6
 585 260 585 260 570.5 267 c 128,-1,7
 556 274 556 274 545 286 c 128,-1,8
 534 298 534 298 528 313.5 c 128,-1,9
 522 329 522 329 522 347 c 0,10,11
 522 383 522 383 546 408.5 c 128,-1,12
 570 434 570 434 606 434 c 0,13,14
 640 434 640 434 664 408.5 c 128,-1,15
 688 383 688 383 688 347 c 0,0,1
806 904 m 0,16,17
 806 853 806 853 780.5 822.5 c 128,-1,18
 755 792 755 792 712 792 c 0,19,20
 678 792 678 792 657 814 c 128,-1,21
 636 836 636 836 636 868 c 0,22,23
 636 894 636 894 647 911 c 128,-1,24
 658 928 658 928 672 940 c 128,-1,25
 686 952 686 952 697 960.5 c 128,-1,26
 708 969 708 969 708 978 c 0,27,28
 708 1001 708 1001 686 1015 c 128,-1,29
 664 1029 664 1029 632 1029 c 0,30,31
 589 1029 589 1029 563 1004.5 c 128,-1,32
 537 980 537 980 537 943 c 0,33,34
 537 923 537 923 548.5 893 c 128,-1,35
 560 863 560 863 574 833.5 c 128,-1,36
 588 804 588 804 600.5 780.5 c 128,-1,37
 613 757 613 757 615 751 c 0,38,39
 626 717 626 717 633.5 678 c 128,-1,40
 641 639 641 639 641 594 c 0,41,42
 641 571 641 571 639.5 546.5 c 128,-1,43
 638 522 638 522 636 491 c 1,44,-1
 594 491 l 1,45,-1
 594 512 l 1,46,-1
 598 547 l 1,47,48
 598 588 598 588 549 631 c 0,49,50
 506 670 506 670 484 691.5 c 128,-1,51
 462 713 462 713 457 719 c 0,52,53
 408 781 408 781 408 858 c 0,54,55
 408 905 408 905 424.5 945 c 128,-1,56
 441 985 441 985 469.5 1014.5 c 128,-1,57
 498 1044 498 1044 535.5 1060.5 c 128,-1,58
 573 1077 573 1077 616 1077 c 0,59,60
 655 1077 655 1077 690 1064.5 c 128,-1,61
 725 1052 725 1052 750.5 1029.5 c 128,-1,62
 776 1007 776 1007 791 975 c 128,-1,63
 806 943 806 943 806 904 c 0,16,17
145 36 m 1,64,-1
 1092 36 l 1,65,-1
 1092 1301 l 1,66,-1
 145 1301 l 1,67,-1
 145 36 l 1,64,-1
111 0 m 1,68,-1
 111 1338 l 1,69,-1
 1125 1338 l 1,70,-1
 1126 0 l 1,71,-1
 111 0 l 1,68,-1
EndSplineSet
EndChar

StartChar: exclam
Encoding: 33 33 4
Width: 589
GlyphClass: 2
Flags: W
LayerCount: 2
Fore
SplineSet
553 1486 m 1,0,-1
 531 1380 l 1,1,-1
 357 811 l 1,2,-1
 265 496 l 1,3,-1
 199 446 l 1,4,-1
 182 456 l 1,5,6
 200 559 200 559 219.5 705 c 128,-1,7
 239 851 239 851 261 1049 c 0,8,9
 263 1062 263 1062 266.5 1089.5 c 128,-1,10
 270 1117 270 1117 274.5 1151 c 128,-1,11
 279 1185 279 1185 284 1222 c 128,-1,12
 289 1259 289 1259 294 1291 c 128,-1,13
 299 1323 299 1323 302 1346 c 128,-1,14
 305 1369 305 1369 307 1376 c 2,15,-1
 313 1406 l 1,16,17
 361 1426 361 1426 404 1446 c 128,-1,18
 447 1466 447 1466 486 1486 c 1,19,-1
 553 1486 l 1,0,-1
179 279 m 256,20,21
 204 279 204 279 223.5 269.5 c 128,-1,22
 243 260 243 260 255.5 243.5 c 128,-1,23
 268 227 268 227 273 205.5 c 128,-1,24
 278 184 278 184 272 159 c 0,25,26
 267 135 267 135 253 113 c 128,-1,27
 239 91 239 91 219.5 75 c 128,-1,28
 200 59 200 59 176 49.5 c 128,-1,29
 152 40 152 40 128 40 c 256,30,31
 104 40 104 40 84 49.5 c 128,-1,32
 64 59 64 59 51 75 c 128,-1,33
 38 91 38 91 33 112.5 c 128,-1,34
 28 134 28 134 33 159 c 0,35,36
 39 184 39 184 53 205.5 c 128,-1,37
 67 227 67 227 87 243.5 c 128,-1,38
 107 260 107 260 130.5 269.5 c 128,-1,39
 154 279 154 279 179 279 c 256,20,21
EndSplineSet
EndChar

StartChar: quotedbl
Encoding: 34 34 5
Width: 1024
GlyphClass: 2
Flags: W
LayerCount: 2
Fore
SplineSet
345 1042 m 1,0,-1
 284 1042 l 1,1,-1
 409 1416 l 2,2,3
 425 1464 425 1464 445 1482.5 c 128,-1,4
 465 1501 465 1501 500 1501 c 0,5,6
 543 1501 543 1501 566 1478.5 c 128,-1,7
 589 1456 589 1456 589 1419 c 0,8,9
 589 1385 589 1385 560 1344 c 2,10,-1
 345 1042 l 1,0,-1
690 1042 m 1,11,-1
 628 1042 l 1,12,-1
 753 1416 l 2,13,14
 769 1464 769 1464 789.5 1482.5 c 128,-1,15
 810 1501 810 1501 845 1501 c 0,16,17
 888 1501 888 1501 911 1478.5 c 128,-1,18
 934 1456 934 1456 934 1419 c 0,19,20
 934 1385 934 1385 905 1344 c 2,21,-1
 690 1042 l 1,11,-1
EndSplineSet
EndChar

StartChar: numbersign
Encoding: 35 35 6
Width: 1241
GlyphClass: 2
Flags: W
LayerCount: 2
Fore
SplineSet
408 378 m 1,0,-1
 321 0 l 1,1,-1
 247 0 l 1,2,-1
 335 378 l 1,3,-1
 186 378 l 1,4,-1
 219 509 l 1,5,-1
 366 509 l 1,6,-1
 463 934 l 1,7,-1
 313 934 l 1,8,-1
 345 1065 l 1,9,-1
 493 1065 l 1,10,-1
 573 1419 l 1,11,-1
 647 1419 l 1,12,-1
 565 1065 l 1,13,-1
 816 1065 l 1,14,-1
 898 1419 l 1,15,-1
 971 1419 l 1,16,-1
 889 1065 l 1,17,-1
 1055 1065 l 1,18,-1
 1023 934 l 1,19,-1
 859 934 l 1,20,-1
 762 509 l 1,21,-1
 928 509 l 1,22,-1
 896 378 l 1,23,-1
 731 378 l 1,24,-1
 645 0 l 1,25,-1
 572 0 l 1,26,-1
 659 378 l 1,27,-1
 408 378 l 1,0,-1
535 934 m 1,28,-1
 437 509 l 1,29,-1
 690 509 l 1,30,-1
 786 934 l 1,31,-1
 535 934 l 1,28,-1
EndSplineSet
EndChar

StartChar: dollar
Encoding: 36 36 7
Width: 1024
GlyphClass: 2
Flags: W
LayerCount: 2
Fore
SplineSet
311 -232 m 1,0,1
 324 -177 324 -177 334.5 -127 c 128,-1,2
 345 -77 345 -77 353 -29 c 1,3,4
 287 -24 287 -24 235 -15.5 c 128,-1,5
 183 -7 183 -7 141 6 c 0,6,7
 85 23 85 23 29 62 c 1,8,9
 40 89 40 89 48 117.5 c 128,-1,10
 56 146 56 146 61.5 180.5 c 128,-1,11
 67 215 67 215 71 256.5 c 128,-1,12
 75 298 75 298 79 352 c 1,13,-1
 132 350 l 1,14,-1
 132 315 l 2,15,16
 132 273 132 273 133.5 238 c 128,-1,17
 135 203 135 203 137 173 c 1,18,19
 182 122 182 122 236.5 96 c 128,-1,20
 291 70 291 70 367 64 c 1,21,-1
 456 618 l 1,22,23
 332 648 332 648 285 672 c 0,24,25
 151 741 151 741 151 908 c 0,26,27
 151 999 151 999 186.5 1074.5 c 128,-1,28
 222 1150 222 1150 282 1210 c 0,29,30
 342 1269 342 1269 410 1304 c 128,-1,31
 478 1339 478 1339 573 1359 c 1,32,33
 587 1448 587 1448 591 1494 c 1,34,-1
 666 1494 l 1,35,36
 661 1462 661 1462 655.5 1429 c 128,-1,37
 650 1396 650 1396 645 1364 c 1,38,39
 690 1364 690 1364 727.5 1360.5 c 128,-1,40
 765 1357 765 1357 798.5 1348.5 c 128,-1,41
 832 1340 832 1340 863 1325.5 c 128,-1,42
 894 1311 894 1311 927 1289 c 1,43,44
 913 1244 913 1244 899 1182 c 128,-1,45
 885 1120 885 1120 872 1039 c 1,46,-1
 823 1041 l 1,47,-1
 824 1191 l 1,48,49
 741 1268 741 1268 630 1273 c 1,50,-1
 547 752 l 1,51,52
 620 738 620 738 671.5 723 c 128,-1,53
 723 708 723 708 753 694 c 0,54,55
 814 665 814 665 850.5 602 c 128,-1,56
 887 539 887 539 887 457 c 0,57,58
 887 391 887 391 864.5 326.5 c 128,-1,59
 842 262 842 262 804 206.5 c 128,-1,60
 766 151 766 151 716.5 107 c 128,-1,61
 667 63 667 63 612 37 c 0,62,63
 575 20 575 20 527.5 4 c 128,-1,64
 480 -12 480 -12 422 -24 c 1,65,66
 405 -116 405 -116 392 -232 c 1,67,-1
 311 -232 l 1,0,1
561 1274 m 1,68,69
 509 1274 509 1274 460 1252.5 c 128,-1,70
 411 1231 411 1231 372.5 1191 c 128,-1,71
 334 1151 334 1151 310.5 1094 c 128,-1,72
 287 1037 287 1037 287 966 c 0,73,74
 287 924 287 924 297.5 893 c 128,-1,75
 308 862 308 862 331.5 838 c 128,-1,76
 355 814 355 814 391.5 796.5 c 128,-1,77
 428 779 428 779 480 764 c 1,78,-1
 561 1274 l 1,68,69
435 62 m 1,79,80
 491 63 491 63 545 87 c 128,-1,81
 599 111 599 111 641.5 153.5 c 128,-1,82
 684 196 684 196 710 256.5 c 128,-1,83
 736 317 736 317 736 390 c 0,84,85
 736 444 736 444 723.5 480 c 128,-1,86
 711 516 711 516 685 540 c 128,-1,87
 659 564 659 564 619 579.5 c 128,-1,88
 579 595 579 595 523 607 c 1,89,-1
 435 62 l 1,79,80
EndSplineSet
EndChar

StartChar: percent
Encoding: 37 37 8
Width: 1821
GlyphClass: 2
Flags: W
LayerCount: 2
Fore
SplineSet
899 199 m 0,0,1
 899 377 899 377 1021 526 c 1,2,3
 1144 674 1144 674 1305 674 c 0,4,5
 1356 674 1356 674 1398.5 655 c 128,-1,6
 1441 636 1441 636 1471.5 603 c 128,-1,7
 1502 570 1502 570 1519 526.5 c 128,-1,8
 1536 483 1536 483 1536 433 c 0,9,10
 1536 354 1536 354 1516.5 276.5 c 128,-1,11
 1497 199 1497 199 1449 124 c 0,12,13
 1426 88 1426 88 1394 54.5 c 128,-1,14
 1362 21 1362 21 1323 -5 c 128,-1,15
 1284 -31 1284 -31 1240 -46.5 c 128,-1,16
 1196 -62 1196 -62 1149 -62 c 0,17,18
 1091 -62 1091 -62 1044.5 -43.5 c 128,-1,19
 998 -25 998 -25 966 9 c 128,-1,20
 934 43 934 43 916.5 91.5 c 128,-1,21
 899 140 899 140 899 199 c 0,0,1
273 -260 m 1,22,-1
 185 -260 l 1,23,-1
 1156 1351 l 1,24,25
 1102 1291 1102 1291 1035 1256 c 128,-1,26
 968 1221 968 1221 902 1221 c 0,27,28
 833 1221 833 1221 779.5 1240 c 128,-1,29
 726 1259 726 1259 701 1287 c 1,30,31
 723 1244 723 1244 723 1183 c 0,32,33
 723 1134 723 1134 711.5 1079 c 128,-1,34
 700 1024 700 1024 677.5 970.5 c 128,-1,35
 655 917 655 917 622.5 868 c 128,-1,36
 590 819 590 819 548 782 c 128,-1,37
 506 745 506 745 455.5 723 c 128,-1,38
 405 701 405 701 346 701 c 0,39,40
 292 701 292 701 246.5 719 c 128,-1,41
 201 737 201 737 168.5 771.5 c 128,-1,42
 136 806 136 806 118 856 c 128,-1,43
 100 906 100 906 100 971 c 0,44,45
 100 1142 100 1142 219 1291 c 1,46,47
 339 1439 339 1439 506 1439 c 0,48,49
 560 1439 560 1439 608.5 1414.5 c 128,-1,50
 657 1390 657 1390 684 1345 c 1,51,52
 697 1330 697 1330 718.5 1317 c 128,-1,53
 740 1304 740 1304 768 1294.5 c 128,-1,54
 796 1285 796 1285 828.5 1279.5 c 128,-1,55
 861 1274 861 1274 897 1274 c 0,56,57
 941 1274 941 1274 989 1294 c 128,-1,58
 1037 1314 1037 1314 1083 1347.5 c 128,-1,59
 1129 1381 1129 1381 1170 1424 c 128,-1,60
 1211 1467 1211 1467 1240 1513 c 1,61,62
 1250 1510 1250 1510 1261 1507.5 c 128,-1,63
 1272 1505 1272 1505 1281 1505 c 2,64,-1
 1296 1505 l 2,65,66
 1321 1505 1321 1505 1334 1509 c 1,67,68
 1324 1498 1324 1498 1317.5 1490.5 c 128,-1,69
 1311 1483 1311 1483 1305 1474.5 c 128,-1,70
 1299 1466 1299 1466 1290.5 1453 c 128,-1,71
 1282 1440 1282 1440 1267.5 1416.5 c 128,-1,72
 1253 1393 1253 1393 1231 1355.5 c 128,-1,73
 1209 1318 1209 1318 1175 1261 c 0,74,75
 1161 1237 1161 1237 1127 1180.5 c 128,-1,76
 1093 1124 1093 1124 1046 1044 c 128,-1,77
 999 964 999 964 940.5 866 c 128,-1,78
 882 768 882 768 819.5 662 c 128,-1,79
 757 556 757 556 692.5 447.5 c 128,-1,80
 628 339 628 339 567.5 237 c 128,-1,81
 507 135 507 135 454 45.5 c 128,-1,82
 401 -44 401 -44 361 -111 c 128,-1,83
 321 -178 321 -178 297.5 -218 c 128,-1,84
 274 -258 274 -258 273 -260 c 1,22,-1
1092 419 m 0,85,86
 1055 337 1055 337 1039.5 275 c 128,-1,87
 1024 213 1024 213 1024 152 c 0,88,89
 1024 67 1024 67 1058.5 20 c 128,-1,90
 1093 -27 1093 -27 1154 -27 c 0,91,92
 1200 -27 1200 -27 1240.5 0.5 c 128,-1,93
 1281 28 1281 28 1315 71.5 c 128,-1,94
 1349 115 1349 115 1375.5 169.5 c 128,-1,95
 1402 224 1402 224 1420.5 278.5 c 128,-1,96
 1439 333 1439 333 1448.5 382 c 128,-1,97
 1458 431 1458 431 1458 463 c 0,98,99
 1458 541 1458 541 1422 585 c 128,-1,100
 1386 629 1386 629 1319 629 c 0,101,102
 1282 629 1282 629 1249.5 612.5 c 128,-1,103
 1217 596 1217 596 1188.5 567.5 c 128,-1,104
 1160 539 1160 539 1136 500.5 c 128,-1,105
 1112 462 1112 462 1092 419 c 0,85,86
660 1222 m 0,106,107
 660 1261 660 1261 651 1294.5 c 128,-1,108
 642 1328 642 1328 624.5 1353 c 128,-1,109
 607 1378 607 1378 582 1392.5 c 128,-1,110
 557 1407 557 1407 525 1407 c 0,111,112
 456 1407 456 1407 398.5 1355.5 c 128,-1,113
 341 1304 341 1304 298 1192 c 0,114,115
 277 1137 277 1137 263 1096 c 128,-1,116
 249 1055 249 1055 243 1027 c 0,117,118
 231 972 231 972 231 912 c 0,119,120
 231 827 231 827 266 782 c 128,-1,121
 301 737 301 737 365 737 c 256,122,123
 429 737 429 737 479 780 c 128,-1,124
 529 823 529 823 572 911 c 1,125,126
 617 999 617 999 639 1079 c 128,-1,127
 661 1159 661 1159 660 1222 c 0,106,107
EndSplineSet
Ligature2: "<17006,16006> Roman in Arabic lookup 92 subtable" zero fraction zero
Ligature2: "<17006,16006> Roman in Arabic lookup 92 subtable" zero slash zero
Ligature2: "Ligature Substitution lookup 59 subtable" zero fraction zero
Ligature2: "Ligature Substitution lookup 59 subtable" zero slash zero
EndChar

StartChar: ampersand
Encoding: 38 38 9
Width: 1593
GlyphClass: 2
Flags: W
LayerCount: 2
Fore
SplineSet
1455 1073 m 1,0,1
 1506 1056 1506 1056 1534 1016.5 c 128,-1,2
 1562 977 1562 977 1562 917 c 0,3,4
 1562 818 1562 818 1504 756.5 c 128,-1,5
 1446 695 1446 695 1322 666 c 0,6,7
 1299 661 1299 661 1256 654.5 c 128,-1,8
 1213 648 1213 648 1149 640 c 1,9,10
 1221 620 1221 620 1257.5 578.5 c 128,-1,11
 1294 537 1294 537 1294 468 c 0,12,13
 1294 381 1294 381 1234 289 c 0,14,15
 1157 170 1157 170 980 73 c 0,16,17
 803 -23 803 -23 595 -23 c 0,18,19
 487 -23 487 -23 396 3 c 128,-1,20
 305 29 305 29 240 79 c 128,-1,21
 175 129 175 129 138.5 201 c 128,-1,22
 102 273 102 273 102 366 c 0,23,24
 102 534 102 534 218 644 c 1,25,26
 307 727 307 727 527 801 c 1,27,28
 490 818 490 818 461 836.5 c 128,-1,29
 432 855 432 855 411.5 879 c 128,-1,30
 391 903 391 903 380 935 c 128,-1,31
 369 967 369 967 369 1011 c 0,32,33
 369 1099 369 1099 441 1196 c 0,34,35
 514 1293 514 1293 664 1370 c 0,36,37
 753 1415 753 1415 854 1415 c 0,38,39
 972 1415 972 1415 1049 1362 c 1,40,41
 1027 1271 1027 1271 1015 1207.5 c 128,-1,42
 1003 1144 1003 1144 998 1124 c 1,43,-1
 953 1124 l 1,44,-1
 950 1247 l 1,45,46
 916 1279 916 1279 871 1294.5 c 128,-1,47
 826 1310 826 1310 771 1310 c 0,48,49
 711 1310 711 1310 663 1290.5 c 128,-1,50
 615 1271 615 1271 581.5 1238.5 c 128,-1,51
 548 1206 548 1206 530 1163 c 128,-1,52
 512 1120 512 1120 512 1072 c 0,53,54
 512 1025 512 1025 529.5 986 c 128,-1,55
 547 947 547 947 579.5 918.5 c 128,-1,56
 612 890 612 890 658 874.5 c 128,-1,57
 704 859 704 859 761 859 c 0,58,59
 767 859 767 859 776 859 c 128,-1,60
 785 859 785 859 796 860 c 1,61,-1
 756 758 l 1,62,63
 728 759 728 759 708 759.5 c 128,-1,64
 688 760 688 760 675 760 c 0,65,66
 584 760 584 760 509.5 733.5 c 128,-1,67
 435 707 435 707 382 660 c 128,-1,68
 329 613 329 613 300 548.5 c 128,-1,69
 271 484 271 484 271 407 c 0,70,71
 271 349 271 349 289.5 299.5 c 128,-1,72
 308 250 308 250 339 211.5 c 128,-1,73
 370 173 370 173 410 145 c 128,-1,74
 450 117 450 117 492 101 c 0,75,76
 531 87 531 87 576.5 80 c 128,-1,77
 622 73 622 73 676 72 c 1,78,79
 895 72 895 72 1022 181 c 0,80,81
 1150 291 1150 291 1150 419 c 0,82,83
 1150 460 1150 460 1137.5 492.5 c 128,-1,84
 1125 525 1125 525 1102.5 548.5 c 128,-1,85
 1080 572 1080 572 1047.5 584.5 c 128,-1,86
 1015 597 1015 597 975 597 c 0,87,88
 909 597 909 597 875.5 567.5 c 128,-1,89
 842 538 842 538 829 493 c 1,90,-1
 812 427 l 1,91,-1
 766 433 l 1,92,-1
 782 636 l 1,93,94
 798 657 798 657 817.5 672.5 c 128,-1,95
 837 688 837 688 875.5 700.5 c 128,-1,96
 914 713 914 713 978.5 725.5 c 128,-1,97
 1043 738 1043 738 1148 753 c 0,98,99
 1226 764 1226 764 1281 774 c 128,-1,100
 1336 784 1336 784 1368 795 c 0,101,102
 1434 817 1434 817 1463.5 856.5 c 128,-1,103
 1493 896 1493 896 1493 941 c 0,104,105
 1493 972 1493 972 1477.5 995 c 128,-1,106
 1462 1018 1462 1018 1415 1040 c 1,107,-1
 1455 1073 l 1,0,1
EndSplineSet
EndChar

StartChar: quotesingle
Encoding: 39 39 10
Width: 682
GlyphClass: 2
Flags: W
LayerCount: 2
Fore
SplineSet
347 1042 m 1,0,-1
 286 1042 l 1,1,-1
 411 1416 l 2,2,3
 427 1464 427 1464 449.5 1482.5 c 128,-1,4
 472 1501 472 1501 502 1501 c 0,5,6
 545 1501 545 1501 568 1478.5 c 128,-1,7
 591 1456 591 1456 591 1419 c 0,8,9
 591 1385 591 1385 562 1344 c 2,10,-1
 347 1042 l 1,0,-1
EndSplineSet
EndChar

StartChar: parenleft
Encoding: 40 40 11
Width: 742
GlyphClass: 2
Flags: W
LayerCount: 2
Fore
SplineSet
349 -440 m 1,0,1
 174 -260 174 -260 112 -12 c 256,2,3
 50 236 50 236 112 530 c 0,4,5
 149 704 149 704 216 843.5 c 128,-1,6
 283 983 283 983 371 1098 c 0,7,8
 456 1210 456 1210 566 1317 c 1,9,10
 677 1423 677 1423 766 1478 c 1,11,-1
 795 1427 l 1,12,13
 696 1340 696 1340 616 1243.5 c 128,-1,14
 536 1147 536 1147 473.5 1037.5 c 128,-1,15
 411 928 411 928 365 804 c 128,-1,16
 319 680 319 680 289 537 c 0,17,18
 223 226 223 226 252 20 c 0,19,20
 281 -189 281 -189 407 -396 c 1,21,-1
 349 -440 l 1,0,1
EndSplineSet
Substitution2: "Single Substitution lookup 51 subtable" zerowidthspace
EndChar

StartChar: parenright
Encoding: 41 41 12
Width: 792
GlyphClass: 2
Flags: W
LayerCount: 2
Fore
SplineSet
-102 -440 m 1,0,-1
 -132 -389 l 1,1,2
 -34 -302 -34 -302 46 -205 c 128,-1,3
 126 -108 126 -108 188.5 1.5 c 128,-1,4
 251 111 251 111 297 235.5 c 128,-1,5
 343 360 343 360 373 502 c 0,6,7
 438 808 438 808 409 1019 c 0,8,9
 380 1228 380 1228 255 1435 c 1,10,-1
 313 1478 l 1,11,12
 487 1298 487 1298 550 1050 c 0,13,14
 613 805 613 805 549 508 c 1,15,16
 513 335 513 335 445.5 195 c 128,-1,17
 378 55 378 55 291 -60 c 1,18,19
 201 -176 201 -176 95 -278 c 0,20,21
 41 -330 41 -330 -7.5 -370.5 c 128,-1,22
 -56 -411 -56 -411 -102 -440 c 1,0,-1
EndSplineSet
Substitution2: "Single Substitution lookup 51 subtable" zerowidthspace
EndChar

StartChar: asterisk
Encoding: 42 42 13
Width: 797
GlyphClass: 2
Flags: W
LayerCount: 2
Fore
SplineSet
440 1100 m 1,0,-1
 264 866 l 1,1,-1
 227 866 l 1,2,-1
 172 924 l 1,3,-1
 172 957 l 1,4,-1
 404 1127 l 1,5,-1
 165 1246 l 1,6,-1
 159 1273 l 1,7,-1
 209 1359 l 1,8,-1
 233 1359 l 1,9,-1
 433 1166 l 1,10,-1
 433 1471 l 1,11,-1
 465 1495 l 1,12,-1
 536 1495 l 1,13,-1
 561 1462 l 1,14,-1
 472 1161 l 1,15,-1
 710 1322 l 1,16,-1
 737 1306 l 1,17,-1
 766 1219 l 1,18,-1
 751 1195 l 1,19,-1
 484 1123 l 1,20,-1
 676 953 l 1,21,-1
 683 925 l 1,22,-1
 611 871 l 1,23,-1
 579 871 l 1,24,-1
 440 1100 l 1,0,-1
EndSplineSet
EndChar

StartChar: plus
Encoding: 43 43 14
Width: 1241
GlyphClass: 2
Flags: W
LayerCount: 2
Fore
SplineSet
639 640 m 1,0,-1
 1112 640 l 1,1,-1
 1112 549 l 1,2,-1
 639 549 l 1,3,-1
 639 76 l 1,4,-1
 547 76 l 1,5,-1
 547 549 l 1,6,-1
 74 549 l 1,7,-1
 74 640 l 1,8,-1
 547 640 l 1,9,-1
 547 1113 l 1,10,-1
 639 1113 l 1,11,-1
 639 640 l 1,0,-1
EndSplineSet
EndChar

StartChar: comma
Encoding: 44 44 15
Width: 512
GlyphClass: 2
Flags: W
LayerCount: 2
Fore
SplineSet
6 -291 m 1,0,-1
 -10 -272 l 1,1,2
 14 -244 14 -244 40 -202 c 128,-1,3
 66 -160 66 -160 91.5 -103 c 128,-1,4
 117 -46 117 -46 140.5 27 c 128,-1,5
 164 100 164 100 183 190 c 1,6,7
 246 206 246 206 291.5 220.5 c 128,-1,8
 337 235 337 235 368 249 c 1,9,-1
 388 222 l 1,10,11
 366 170 366 170 330.5 106.5 c 128,-1,12
 295 43 295 43 246 -35 c 256,13,14
 197 -113 197 -113 154.5 -170 c 128,-1,15
 112 -227 112 -227 75 -265 c 1,16,-1
 6 -291 l 1,0,-1
EndSplineSet
EndChar

StartChar: hyphen
Encoding: 45 45 16
AltUni2: 0000ad.ffffffff.0 002212.ffffffff.0
Width: 682
GlyphClass: 2
Flags: W
LayerCount: 2
Fore
SplineSet
38 438 m 1,0,-1
 38 452 l 1,1,-1
 83 586 l 1,2,-1
 618 586 l 1,3,-1
 618 571 l 1,4,-1
 570 438 l 1,5,-1
 38 438 l 1,0,-1
EndSplineSet
Substitution2: "<17026,18026>  lookup 88 nested-substitutions 0 subtable" hyphenlow
Substitution2: "<17026,16026>  lookup 86 nested-substitutions 0 subtable" hyphenlow
Substitution2: "Single Substitution lookup 51 subtable" hyphenlow
EndChar

StartChar: period
Encoding: 46 46 17
Width: 639
GlyphClass: 2
Flags: W
LayerCount: 2
Fore
SplineSet
179 279 m 256,0,1
 204 279 204 279 223.5 269.5 c 128,-1,2
 243 260 243 260 255.5 243.5 c 128,-1,3
 268 227 268 227 273 205.5 c 128,-1,4
 278 184 278 184 272 159 c 0,5,6
 267 135 267 135 253 113 c 128,-1,7
 239 91 239 91 219.5 75 c 128,-1,8
 200 59 200 59 176 49.5 c 128,-1,9
 152 40 152 40 128 40 c 256,10,11
 104 40 104 40 84 49.5 c 128,-1,12
 64 59 64 59 51 75 c 128,-1,13
 38 91 38 91 33 112.5 c 128,-1,14
 28 134 28 134 33 159 c 0,15,16
 39 184 39 184 53 205.5 c 128,-1,17
 67 227 67 227 87 243.5 c 128,-1,18
 107 260 107 260 130.5 269.5 c 128,-1,19
 154 279 154 279 179 279 c 256,0,1
EndSplineSet
Substitution2: "<17001,16003> Urdu lookup 95 subtable" uni06D4
Substitution2: "<17008,16008> Numeric Comma in Arabic lookup 90 nested-substitutions 0 subtable" uni066C
Substitution2: "Single Substitution lookup 51 subtable" uni066C
EndChar

StartChar: slash
Encoding: 47 47 18
AltUni2: 000338.ffffffff.0
Width: 606
GlyphClass: 2
Flags: W
LayerCount: 2
Fore
SplineSet
-16 -238 m 1,0,-1
 518 1597 l 1,1,-1
 622 1597 l 1,2,-1
 94 -238 l 1,3,-1
 -16 -238 l 1,0,-1
EndSplineSet
Substitution2: "<17001,16003> Urdu lookup 95 subtable" slash
EndChar

StartChar: zero
Encoding: 48 48 19
Width: 1024
GlyphClass: 2
Flags: W
LayerCount: 2
Fore
SplineSet
55 461 m 0,0,1
 55 630 55 630 88 790 c 0,2,3
 105 871 105 871 126 938.5 c 128,-1,4
 147 1006 147 1006 170 1061 c 0,5,6
 194 1118 194 1118 222.5 1164.5 c 128,-1,7
 251 1211 251 1211 282 1249 c 0,8,9
 346 1327 346 1327 430.5 1369.5 c 128,-1,10
 515 1412 515 1412 606 1412 c 0,11,12
 683 1412 683 1412 747 1383.5 c 128,-1,13
 811 1355 811 1355 856.5 1296.5 c 128,-1,14
 902 1238 902 1238 927.5 1148.5 c 128,-1,15
 953 1059 953 1059 953 936 c 0,16,17
 953 717 953 717 898 512 c 0,18,19
 871 409 871 409 834 324 c 128,-1,20
 797 239 797 239 746 171 c 0,21,22
 674 74 674 74 588.5 25 c 128,-1,23
 503 -24 503 -24 400 -24 c 0,24,25
 306 -24 306 -24 240.5 15.5 c 128,-1,26
 175 55 175 55 133.5 122 c 128,-1,27
 92 189 92 189 73.5 277 c 128,-1,28
 55 365 55 365 55 461 c 0,0,1
207 357 m 0,29,30
 207 284 207 284 218.5 225 c 128,-1,31
 230 166 230 166 255 124 c 128,-1,32
 280 82 280 82 319.5 59.5 c 128,-1,33
 359 37 359 37 414 37 c 0,34,35
 463 37 463 37 513 65 c 128,-1,36
 563 93 563 93 609 161.5 c 128,-1,37
 655 230 655 230 694 344 c 128,-1,38
 733 458 733 458 761 630 c 0,39,40
 780 745 780 745 789.5 847.5 c 128,-1,41
 799 950 799 950 798 1046 c 0,42,43
 798 1126 798 1126 783.5 1184 c 128,-1,44
 769 1242 769 1242 742.5 1279.5 c 128,-1,45
 716 1317 716 1317 678.5 1334.5 c 128,-1,46
 641 1352 641 1352 595 1352 c 0,47,48
 534 1352 534 1352 483.5 1322.5 c 128,-1,49
 433 1293 433 1293 390.5 1224 c 128,-1,50
 348 1155 348 1155 313.5 1042.5 c 128,-1,51
 279 930 279 930 250 764 c 0,52,53
 229 643 229 643 217.5 542.5 c 128,-1,54
 206 442 206 442 207 357 c 0,29,30
EndSplineSet
Substitution2: "<17001,16003> Urdu lookup 95 subtable" zero
EndChar

StartChar: one
Encoding: 49 49 20
Width: 1024
GlyphClass: 2
Flags: W
LayerCount: 2
Fore
SplineSet
90 0 m 1,0,-1
 97 60 l 1,1,2
 160 64 160 64 201.5 68 c 128,-1,3
 243 72 243 72 268.5 77.5 c 128,-1,4
 294 83 294 83 307.5 90.5 c 128,-1,5
 321 98 321 98 330 109 c 0,6,7
 347 130 347 130 361 191 c 0,8,9
 368 222 368 222 388 330.5 c 128,-1,10
 408 439 408 439 442 631 c 0,11,12
 484 870 484 870 509.5 1030 c 128,-1,13
 535 1190 535 1190 546 1278 c 1,14,15
 458 1245 458 1245 364 1204 c 128,-1,16
 270 1163 270 1163 165 1112 c 1,17,-1
 152 1121 l 1,18,-1
 173 1241 l 1,19,20
 205 1247 205 1247 256 1260.5 c 128,-1,21
 307 1274 307 1274 362 1290 c 128,-1,22
 417 1306 417 1306 467.5 1322 c 128,-1,23
 518 1338 518 1338 548 1349 c 0,24,25
 582 1362 582 1362 622.5 1379.5 c 128,-1,26
 663 1397 663 1397 711 1419 c 1,27,-1
 740 1395 l 1,28,29
 719 1298 719 1298 698 1196 c 128,-1,30
 677 1094 677 1094 657 980 c 2,31,-1
 566 457 l 1,32,33
 555 385 555 385 547 332.5 c 128,-1,34
 539 280 539 280 534 243 c 128,-1,35
 529 206 529 206 526.5 183 c 128,-1,36
 524 160 524 160 524 146 c 0,37,38
 524 124 524 124 530 110 c 128,-1,39
 536 96 536 96 551.5 87.5 c 128,-1,40
 567 79 567 79 592.5 74.5 c 128,-1,41
 618 70 618 70 657 67 c 2,42,-1
 790 58 l 1,43,-1
 779 0 l 1,44,45
 677 4 677 4 580.5 6 c 128,-1,46
 484 8 484 8 387 8 c 0,47,48
 303 8 303 8 229.5 6 c 128,-1,49
 156 4 156 4 90 0 c 1,0,-1
EndSplineSet
Substitution2: "<17001,16003> Urdu lookup 95 subtable" one
EndChar

StartChar: two
Encoding: 50 50 21
Width: 1024
GlyphClass: 2
Flags: W
LayerCount: 2
Fore
SplineSet
4 0 m 1,0,-1
 6 39 l 1,1,2
 30 64 30 64 94 132.5 c 128,-1,3
 158 201 158 201 264 316 c 0,4,5
 452 521 452 521 541 651 c 0,6,7
 632 784 632 784 664 881 c 0,8,9
 681 935 681 935 688.5 979 c 128,-1,10
 696 1023 696 1023 696 1061 c 0,11,12
 696 1105 696 1105 679.5 1143.5 c 128,-1,13
 663 1182 663 1182 634 1211 c 128,-1,14
 605 1240 605 1240 565.5 1257 c 128,-1,15
 526 1274 526 1274 480 1274 c 0,16,17
 386 1274 386 1274 312 1223 c 128,-1,18
 238 1172 238 1172 178 1060 c 1,19,-1
 133 1079 l 1,20,21
 187 1182 187 1182 217.5 1240.5 c 128,-1,22
 248 1299 248 1299 256 1317 c 1,23,24
 318 1361 318 1361 382 1382.5 c 128,-1,25
 446 1404 446 1404 524 1404 c 0,26,27
 604 1404 604 1404 667.5 1380.5 c 128,-1,28
 731 1357 731 1357 775 1315 c 128,-1,29
 819 1273 819 1273 843 1214.5 c 128,-1,30
 867 1156 867 1156 867 1086 c 0,31,32
 867 1017 867 1017 848.5 951 c 128,-1,33
 830 885 830 885 792 821 c 0,34,35
 765 776 765 776 727.5 725.5 c 128,-1,36
 690 675 690 675 639 618 c 0,37,38
 606 581 606 581 535.5 506.5 c 128,-1,39
 465 432 465 432 356 320 c 1,40,-1
 197 151 l 1,41,-1
 200 138 l 1,42,-1
 601 139 l 2,43,44
 673 139 673 139 733 143.5 c 128,-1,45
 793 148 793 148 844 156 c 1,46,-1
 857 142 l 1,47,48
 835 58 835 58 823 0 c 1,49,50
 689 5 689 5 592.5 8 c 128,-1,51
 496 11 496 11 432 11 c 0,52,53
 421 11 421 11 386 10.5 c 128,-1,54
 351 10 351 10 305.5 9 c 128,-1,55
 260 8 260 8 209 6.5 c 128,-1,56
 158 5 158 5 114.5 4 c 128,-1,57
 71 3 71 3 40 1.5 c 128,-1,58
 9 0 9 0 4 0 c 1,0,-1
EndSplineSet
Substitution2: "<17001,16003> Urdu lookup 95 subtable" two
EndChar

StartChar: three
Encoding: 51 51 22
Width: 1024
GlyphClass: 2
Flags: W
LayerCount: 2
Fore
SplineSet
6 64 m 1,0,-1
 62 351 l 1,1,-1
 110 344 l 1,2,3
 106 313 106 313 104 290 c 128,-1,4
 102 267 102 267 102 250 c 0,5,6
 102 205 102 205 119 167 c 128,-1,7
 136 129 136 129 167.5 101.5 c 128,-1,8
 199 74 199 74 244 58 c 128,-1,9
 289 42 289 42 346 42 c 0,10,11
 423 42 423 42 487 74.5 c 128,-1,12
 551 107 551 107 596.5 164.5 c 128,-1,13
 642 222 642 222 667 302 c 128,-1,14
 692 382 692 382 692 476 c 0,15,16
 692 531 692 531 672.5 577 c 128,-1,17
 653 623 653 623 618 656.5 c 128,-1,18
 583 690 583 690 535 708.5 c 128,-1,19
 487 727 487 727 430 727 c 0,20,21
 400 727 400 727 357.5 721.5 c 128,-1,22
 315 716 315 716 258 702 c 1,23,-1
 250 710 l 1,24,-1
 284 805 l 1,25,26
 320 803 320 803 343 801.5 c 128,-1,27
 366 800 366 800 376 800 c 0,28,29
 438 800 438 800 494.5 822 c 128,-1,30
 551 844 551 844 594.5 883.5 c 128,-1,31
 638 923 638 923 664 976.5 c 128,-1,32
 690 1030 690 1030 690 1093 c 0,33,34
 690 1136 690 1136 676.5 1171 c 128,-1,35
 663 1206 663 1206 637.5 1230.5 c 128,-1,36
 612 1255 612 1255 575.5 1268.5 c 128,-1,37
 539 1282 539 1282 494 1282 c 0,38,39
 407 1282 407 1282 345 1241 c 0,40,41
 300 1211 300 1211 227 1115 c 1,42,-1
 188 1140 l 1,43,-1
 309 1342 l 1,44,45
 419 1404 419 1404 547 1404 c 0,46,47
 618 1404 618 1404 674.5 1384 c 128,-1,48
 731 1364 731 1364 770 1328.5 c 128,-1,49
 809 1293 809 1293 829.5 1244.5 c 128,-1,50
 850 1196 850 1196 850 1139 c 0,51,52
 850 1064 850 1064 819 1001.5 c 128,-1,53
 788 939 788 939 719 885 c 0,54,55
 696 866 696 866 658 842.5 c 128,-1,56
 620 819 620 819 563 790 c 1,57,-1
 562 785 l 1,58,59
 708 765 708 765 787.5 685 c 128,-1,60
 867 605 867 605 867 470 c 0,61,62
 867 345 867 345 800 230 c 0,63,64
 734 117 734 117 596 43 c 0,65,66
 527 6 527 6 454.5 -11.5 c 128,-1,67
 382 -29 382 -29 304 -29 c 0,68,69
 222 -29 222 -29 147.5 -5.5 c 128,-1,70
 73 18 73 18 6 64 c 1,0,-1
EndSplineSet
Substitution2: "<17001,16003> Urdu lookup 95 subtable" three
EndChar

StartChar: four
Encoding: 52 52 23
Width: 1024
GlyphClass: 2
Flags: W
LayerCount: 2
Fore
SplineSet
193 0 m 1,0,-1
 204 60 l 1,1,2
 280 63 280 63 326 66 c 128,-1,3
 372 69 372 69 398.5 73.5 c 128,-1,4
 425 78 425 78 436.5 84.5 c 128,-1,5
 448 91 448 91 455 101 c 0,6,7
 464 114 464 114 473 149.5 c 128,-1,8
 482 185 482 185 494 244 c 2,9,-1
 525 396 l 1,10,-1
 164 396 l 2,11,12
 100 396 100 396 -1 393 c 1,13,-1
 4 451 l 1,14,15
 71 554 71 554 157 673 c 128,-1,16
 243 792 243 792 349 936 c 0,17,18
 467 1095 467 1095 553 1206 c 128,-1,19
 639 1317 639 1317 696 1386 c 1,20,21
 753 1399 753 1399 787 1407.5 c 128,-1,22
 821 1416 821 1416 833 1420 c 1,23,-1
 849 1409 l 1,24,-1
 817 1253 l 2,25,26
 814 1237 814 1237 807 1196.5 c 128,-1,27
 800 1156 800 1156 788 1090 c 2,28,-1
 685 508 l 1,29,-1
 732 508 l 2,30,31
 807 508 807 508 859 510 c 128,-1,32
 911 512 911 512 942 515 c 1,33,-1
 952 502 l 1,34,-1
 918 388 l 1,35,36
 903 390 903 390 886 391 c 128,-1,37
 869 392 869 392 849 392 c 2,38,-1
 666 394 l 1,39,-1
 644 257 l 2,40,41
 637 212 637 212 633.5 181 c 128,-1,42
 630 150 630 150 630 132 c 0,43,44
 630 103 630 103 646 88.5 c 128,-1,45
 662 74 662 74 708 69 c 1,46,-1
 878 57 l 1,47,-1
 865 0 l 1,48,49
 787 4 787 4 715 6 c 128,-1,50
 643 8 643 8 576 8 c 0,51,52
 533 8 533 8 438 6 c 128,-1,53
 343 4 343 4 193 0 c 1,0,-1
545 508 m 1,54,-1
 676 1250 l 1,55,-1
 669 1251 l 1,56,57
 664 1244 664 1244 644 1217.5 c 128,-1,58
 624 1191 624 1191 595 1151.5 c 128,-1,59
 566 1112 566 1112 531 1064.5 c 128,-1,60
 496 1017 496 1017 460.5 968.5 c 128,-1,61
 425 920 425 920 391.5 874.5 c 128,-1,62
 358 829 358 829 332.5 794.5 c 128,-1,63
 307 760 307 760 292.5 740 c 128,-1,64
 278 720 278 720 279 722 c 2,65,-1
 142 521 l 1,66,-1
 149 512 l 1,67,68
 152 512 152 512 163 511.5 c 128,-1,69
 174 511 174 511 189.5 510.5 c 128,-1,70
 205 510 205 510 224 509.5 c 128,-1,71
 243 509 243 509 262 509 c 0,72,73
 307 508 307 508 362 507 c 1,74,-1
 545 508 l 1,54,-1
EndSplineSet
Substitution2: "<17001,16003> Urdu lookup 95 subtable" four
EndChar

StartChar: five
Encoding: 53 53 24
Width: 1024
GlyphClass: 2
Flags: W
LayerCount: 2
Fore
SplineSet
10 76 m 1,0,1
 21 121 21 121 36 189.5 c 128,-1,2
 51 258 51 258 68 354 c 1,3,-1
 115 345 l 1,4,5
 113 316 113 316 111.5 295 c 128,-1,6
 110 274 110 274 110 260 c 0,7,8
 110 212 110 212 129 172 c 128,-1,9
 148 132 148 132 181.5 103.5 c 128,-1,10
 215 75 215 75 261 59.5 c 128,-1,11
 307 44 307 44 362 44 c 0,12,13
 465 44 465 44 543 102 c 128,-1,14
 621 160 621 160 665 276 c 256,15,16
 709 392 709 392 709 504 c 0,17,18
 709 569 709 569 690 618.5 c 128,-1,19
 671 668 671 668 637 701.5 c 128,-1,20
 603 735 603 735 558 752.5 c 128,-1,21
 513 770 513 770 460 770 c 0,22,23
 430 770 430 770 403 766.5 c 128,-1,24
 376 763 376 763 347.5 751 c 128,-1,25
 319 739 319 739 286.5 715.5 c 128,-1,26
 254 692 254 692 213 651 c 1,27,-1
 169 672 l 1,28,29
 201 810 201 810 233.5 981.5 c 128,-1,30
 266 1153 266 1153 300 1367 c 1,31,-1
 316 1380 l 1,32,33
 434 1372 434 1372 526.5 1368 c 128,-1,34
 619 1364 619 1364 688 1364 c 0,35,36
 761 1364 761 1364 830 1366 c 128,-1,37
 899 1368 899 1368 965 1372 c 1,38,-1
 978 1354 l 1,39,-1
 906 1237 l 1,40,41
 849 1232 849 1232 784.5 1229.5 c 128,-1,42
 720 1227 720 1227 645 1227 c 0,43,44
 573 1227 573 1227 502.5 1229 c 128,-1,45
 432 1231 432 1231 362 1235 c 1,46,-1
 260 767 l 1,47,48
 384 861 384 861 536 861 c 0,49,50
 614 861 614 861 677.5 838.5 c 128,-1,51
 741 816 741 816 786.5 773.5 c 128,-1,52
 832 731 832 731 857 669 c 128,-1,53
 882 607 882 607 882 529 c 0,54,55
 882 481 882 481 873 432 c 128,-1,56
 864 383 864 383 846.5 336.5 c 128,-1,57
 829 290 829 290 805 247 c 128,-1,58
 781 204 781 204 751 168 c 0,59,60
 709 118 709 118 646.5 76 c 128,-1,61
 584 34 584 34 521 8 c 0,62,63
 434 -29 434 -29 324 -29 c 0,64,65
 233 -29 233 -29 156 -6 c 128,-1,66
 79 17 79 17 10 76 c 1,0,1
EndSplineSet
Substitution2: "<17001,16003> Urdu lookup 95 subtable" five
EndChar

StartChar: six
Encoding: 54 54 25
Width: 1024
GlyphClass: 2
Flags: W
LayerCount: 2
Fore
SplineSet
901 1269 m 1,0,-1
 885 1267 l 1,1,2
 849 1287 849 1287 821.5 1295 c 128,-1,3
 794 1303 794 1303 760 1303 c 0,4,5
 694 1303 694 1303 634.5 1279 c 128,-1,6
 575 1255 575 1255 529 1215 c 0,7,8
 496 1186 496 1186 466.5 1150.5 c 128,-1,9
 437 1115 437 1115 410.5 1070 c 128,-1,10
 384 1025 384 1025 359.5 970 c 128,-1,11
 335 915 335 915 312 846 c 0,12,13
 281 752 281 752 253 623 c 1,14,15
 342 736 342 736 428 785.5 c 128,-1,16
 514 835 514 835 609 835 c 0,17,18
 673 835 673 835 725.5 814.5 c 128,-1,19
 778 794 778 794 815 755 c 128,-1,20
 852 716 852 716 872 659 c 128,-1,21
 892 602 892 602 892 528 c 0,22,23
 892 482 892 482 883.5 434 c 128,-1,24
 875 386 875 386 860.5 340.5 c 128,-1,25
 846 295 846 295 826.5 255 c 128,-1,26
 807 215 807 215 784 186 c 0,27,28
 762 158 762 158 729.5 129.5 c 128,-1,29
 697 101 697 101 661.5 76 c 128,-1,30
 626 51 626 51 591 30.5 c 128,-1,31
 556 10 556 10 529 -2 c 0,32,33
 500 -16 500 -16 468 -23 c 128,-1,34
 436 -30 436 -30 401 -29 c 1,35,36
 331 -29 331 -29 272 -3.5 c 128,-1,37
 213 22 213 22 170.5 73 c 128,-1,38
 128 124 128 124 104.5 201 c 128,-1,39
 81 278 81 278 81 381 c 0,40,41
 81 541 81 541 129 716 c 0,42,43
 177 892 177 892 263 1021 c 128,-1,44
 349 1150 349 1150 455 1242 c 1,45,46
 534 1312 534 1312 610 1349 c 0,47,48
 721 1404 721 1404 831 1404 c 0,49,50
 878 1404 878 1404 934 1385 c 1,51,-1
 901 1269 l 1,0,-1
236 341 m 0,52,53
 236 274 236 274 252.5 223 c 128,-1,54
 269 172 269 172 298.5 137.5 c 128,-1,55
 328 103 328 103 369 85 c 128,-1,56
 410 67 410 67 458 67 c 0,57,58
 547 67 547 67 613 127.5 c 128,-1,59
 679 188 679 188 714 308 c 0,60,61
 738 392 738 392 738 468 c 0,62,63
 738 530 738 530 721.5 578 c 128,-1,64
 705 626 705 626 676.5 658 c 128,-1,65
 648 690 648 690 609 706.5 c 128,-1,66
 570 723 570 723 525 723 c 0,67,68
 468 723 468 723 415.5 697 c 128,-1,69
 363 671 363 671 323 622 c 128,-1,70
 283 573 283 573 259.5 502 c 128,-1,71
 236 431 236 431 236 341 c 0,52,53
EndSplineSet
Substitution2: "<17001,16003> Urdu lookup 95 subtable" six
EndChar

StartChar: seven
Encoding: 55 55 26
Width: 1024
GlyphClass: 2
Flags: W
LayerCount: 2
Fore
SplineSet
99 0 m 1,0,-1
 87 22 l 1,1,2
 98 40 98 40 131.5 91.5 c 128,-1,3
 165 143 165 143 212 216 c 128,-1,4
 259 289 259 289 316 376.5 c 128,-1,5
 373 464 373 464 431.5 554.5 c 128,-1,6
 490 645 490 645 546.5 732 c 128,-1,7
 603 819 603 819 648.5 889.5 c 128,-1,8
 694 960 694 960 725.5 1008.5 c 128,-1,9
 757 1057 757 1057 765 1071 c 0,10,11
 784 1102 784 1102 807 1141 c 128,-1,12
 830 1180 830 1180 858 1228 c 1,13,-1
 378 1228 l 2,14,15
 338 1228 338 1228 285.5 1225 c 128,-1,16
 233 1222 233 1222 164 1217 c 1,17,-1
 152 1227 l 1,18,19
 161 1266 161 1266 168 1303.5 c 128,-1,20
 175 1341 175 1341 180 1378 c 1,21,-1
 187 1386 l 1,22,23
 195 1386 195 1386 223.5 1384.5 c 128,-1,24
 252 1383 252 1383 286 1381 c 128,-1,25
 320 1379 320 1379 351 1377.5 c 128,-1,26
 382 1376 382 1376 395 1376 c 0,27,28
 409 1376 409 1376 439 1375.5 c 128,-1,29
 469 1375 469 1375 506.5 1374 c 128,-1,30
 544 1373 544 1373 584 1372.5 c 128,-1,31
 624 1372 624 1372 659 1371.5 c 128,-1,32
 694 1371 694 1371 719.5 1370.5 c 128,-1,33
 745 1370 745 1370 752 1370 c 0,34,35
 852 1370 852 1370 1000 1376 c 1,36,-1
 1001 1305 l 1,37,38
 941 1217 941 1217 870.5 1108 c 128,-1,39
 800 999 800 999 719 862 c 0,40,41
 621 698 621 698 544.5 563.5 c 128,-1,42
 468 429 468 429 411 320 c 0,43,44
 369 239 369 239 333 160 c 128,-1,45
 297 81 297 81 265 0 c 1,46,47
 224 11 224 11 189 11 c 0,48,49
 148 11 148 11 99 0 c 1,0,-1
EndSplineSet
Substitution2: "<17001,16003> Urdu lookup 95 subtable" seven
EndChar

StartChar: eight
Encoding: 56 56 27
Width: 1024
GlyphClass: 2
Flags: W
LayerCount: 2
Fore
SplineSet
422 708 m 1,0,1
 367 737 367 737 328.5 767 c 128,-1,2
 290 797 290 797 266 831 c 128,-1,3
 242 865 242 865 231 903 c 128,-1,4
 220 941 220 941 220 986 c 0,5,6
 220 1083 220 1083 275 1171 c 0,7,8
 303 1216 303 1216 343.5 1256.5 c 128,-1,9
 384 1297 384 1297 439 1332 c 0,10,11
 549 1403 549 1403 670 1403 c 0,12,13
 730 1403 730 1403 779 1384.5 c 128,-1,14
 828 1366 828 1366 862.5 1333 c 128,-1,15
 897 1300 897 1300 916 1254.5 c 128,-1,16
 935 1209 935 1209 935 1155 c 0,17,18
 935 1055 935 1055 877 967 c 256,19,20
 819 879 819 879 630 759 c 1,21,22
 758 698 758 698 807 627 c 1,23,24
 857 558 857 558 856 451 c 1,25,26
 856 240 856 240 690 107 c 0,27,28
 602 37 602 37 520 5.5 c 128,-1,29
 438 -26 438 -26 353 -26 c 0,30,31
 284 -26 284 -26 228.5 -2.5 c 128,-1,32
 173 21 173 21 134 61 c 128,-1,33
 95 101 95 101 74.5 155.5 c 128,-1,34
 54 210 54 210 54 271 c 0,35,36
 54 325 54 325 73.5 382 c 128,-1,37
 93 439 93 439 136.5 495.5 c 128,-1,38
 180 552 180 552 250.5 606 c 128,-1,39
 321 660 321 660 422 708 c 1,0,1
572 789 m 1,40,41
 637 830 637 830 680.5 873.5 c 128,-1,42
 724 917 724 917 750 961 c 128,-1,43
 776 1005 776 1005 786.5 1047.5 c 128,-1,44
 797 1090 797 1090 797 1129 c 256,45,46
 797 1168 797 1168 782.5 1202.5 c 128,-1,47
 768 1237 768 1237 742.5 1262.5 c 128,-1,48
 717 1288 717 1288 683 1303 c 128,-1,49
 649 1318 649 1318 610 1318 c 0,50,51
 558 1318 558 1318 512 1300 c 128,-1,52
 466 1282 466 1282 432 1247 c 128,-1,53
 398 1212 398 1212 378 1161.5 c 128,-1,54
 358 1111 358 1111 358 1046 c 0,55,56
 358 1010 358 1010 368 977.5 c 128,-1,57
 378 945 378 945 402 914 c 128,-1,58
 426 883 426 883 467.5 852 c 128,-1,59
 509 821 509 821 572 789 c 1,40,41
479 677 m 1,60,61
 347 618 347 618 274 516 c 0,62,63
 201 413 201 413 201 296 c 0,64,65
 201 241 201 241 217.5 197 c 128,-1,66
 234 153 234 153 264 122 c 128,-1,67
 294 91 294 91 335.5 74.5 c 128,-1,68
 377 58 377 58 426 58 c 0,69,70
 480 58 480 58 530.5 80.5 c 128,-1,71
 581 103 581 103 619.5 145.5 c 128,-1,72
 658 188 658 188 681 249 c 128,-1,73
 704 310 704 310 704 386 c 0,74,75
 704 458 704 458 678 508.5 c 128,-1,76
 652 559 652 559 607 594 c 0,77,78
 584 613 584 613 552.5 633.5 c 128,-1,79
 521 654 521 654 479 677 c 1,60,61
EndSplineSet
Substitution2: "<17001,16003> Urdu lookup 95 subtable" eight
EndChar

StartChar: nine
Encoding: 57 57 28
Width: 1024
GlyphClass: 2
Flags: W
LayerCount: 2
Fore
SplineSet
107 13 m 1,0,1
 103 34 103 34 94.5 62 c 128,-1,2
 86 90 86 90 77 119.5 c 128,-1,3
 68 149 68 149 59 176 c 128,-1,4
 50 203 50 203 44 221 c 1,5,-1
 86 236 l 1,6,7
 109 194 109 194 132 163.5 c 128,-1,8
 155 133 155 133 182 113 c 128,-1,9
 209 93 209 93 243.5 83.5 c 128,-1,10
 278 74 278 74 324 74 c 0,11,12
 416 74 416 74 487.5 127 c 128,-1,13
 559 180 559 180 621 293 c 1,14,15
 646 343 646 343 669 402 c 128,-1,16
 692 461 692 461 712 531 c 1,17,18
 738 617 738 617 760 750 c 1,19,20
 675 638 675 638 584 589 c 0,21,22
 513 551 513 551 428 551 c 0,23,24
 356 551 356 551 299.5 576 c 128,-1,25
 243 601 243 601 204 645 c 128,-1,26
 165 689 165 689 144.5 751 c 128,-1,27
 124 813 124 813 124 886 c 0,28,29
 124 980 124 980 153.5 1064.5 c 128,-1,30
 183 1149 183 1149 234 1209 c 0,31,32
 284 1268 284 1268 353 1315 c 1,33,34
 423 1361 423 1361 483 1383.5 c 128,-1,35
 543 1406 543 1406 612 1406 c 0,36,37
 767 1406 767 1406 848.5 1296.5 c 128,-1,38
 930 1187 930 1187 930 975 c 0,39,40
 930 869 930 869 917 776 c 128,-1,41
 904 683 904 683 881.5 602 c 128,-1,42
 859 521 859 521 828 451 c 128,-1,43
 797 381 797 381 761 321 c 0,44,45
 688 201 688 201 601 124 c 0,46,47
 513 46 513 46 430.5 10.5 c 128,-1,48
 348 -25 348 -25 267 -25 c 0,49,50
 178 -25 178 -25 107 13 c 1,0,1
280 945 m 0,51,52
 280 874 280 874 297 821 c 128,-1,53
 314 768 314 768 343.5 732.5 c 128,-1,54
 373 697 373 697 413 679.5 c 128,-1,55
 453 662 453 662 499 662 c 1,56,57
 559 664 559 664 609.5 687.5 c 128,-1,58
 660 711 660 711 696.5 755.5 c 128,-1,59
 733 800 733 800 754 866 c 128,-1,60
 775 932 775 932 775 1019 c 0,61,62
 775 1093 775 1093 757.5 1148 c 128,-1,63
 740 1203 740 1203 709.5 1240 c 128,-1,64
 679 1277 679 1277 638.5 1295.5 c 128,-1,65
 598 1314 598 1314 551 1314 c 0,66,67
 502 1314 502 1314 453.5 1290.5 c 128,-1,68
 405 1267 405 1267 366.5 1220.5 c 128,-1,69
 328 1174 328 1174 304 1105 c 128,-1,70
 280 1036 280 1036 280 945 c 0,51,52
EndSplineSet
Substitution2: "<17001,16003> Urdu lookup 95 subtable" nine
EndChar

StartChar: colon
Encoding: 58 58 29
Width: 639
GlyphClass: 2
Flags: W
LayerCount: 2
Fore
SplineSet
329 986 m 256,0,1
 354 986 354 986 373.5 976.5 c 128,-1,2
 393 967 393 967 405.5 950.5 c 128,-1,3
 418 934 418 934 423 912.5 c 128,-1,4
 428 891 428 891 423 866 c 1,5,6
 417 842 417 842 403 820 c 128,-1,7
 389 798 389 798 369.5 782 c 128,-1,8
 350 766 350 766 326 756.5 c 128,-1,9
 302 747 302 747 278 747 c 256,10,11
 254 747 254 747 234 756.5 c 128,-1,12
 214 766 214 766 201 782 c 128,-1,13
 188 798 188 798 183 819.5 c 128,-1,14
 178 841 178 841 184 866 c 0,15,16
 189 891 189 891 203 912.5 c 128,-1,17
 217 934 217 934 237 950.5 c 128,-1,18
 257 967 257 967 280.5 976.5 c 128,-1,19
 304 986 304 986 329 986 c 256,0,1
179 279 m 256,20,21
 204 279 204 279 223.5 269.5 c 128,-1,22
 243 260 243 260 255.5 243.5 c 128,-1,23
 268 227 268 227 273 205.5 c 128,-1,24
 278 184 278 184 272 159 c 0,25,26
 267 135 267 135 253 113 c 128,-1,27
 239 91 239 91 219.5 75 c 128,-1,28
 200 59 200 59 176 49.5 c 128,-1,29
 152 40 152 40 128 40 c 256,30,31
 104 40 104 40 84 49.5 c 128,-1,32
 64 59 64 59 51 75 c 128,-1,33
 38 91 38 91 33 112.5 c 128,-1,34
 28 134 28 134 33 159 c 0,35,36
 39 184 39 184 53 205.5 c 128,-1,37
 67 227 67 227 87 243.5 c 128,-1,38
 107 260 107 260 130.5 269.5 c 128,-1,39
 154 279 154 279 179 279 c 256,20,21
EndSplineSet
Substitution2: "<17001,16003> Urdu lookup 95 subtable" colon
EndChar

StartChar: semicolon
Encoding: 59 59 30
Width: 512
GlyphClass: 2
Flags: W
LayerCount: 2
Fore
SplineSet
187 842 m 0,0,1
 187 872 187 872 197 897 c 128,-1,2
 207 922 207 922 223.5 939.5 c 128,-1,3
 240 957 240 957 262.5 967 c 128,-1,4
 285 977 285 977 309 977 c 0,5,6
 351 977 351 977 375 951.5 c 128,-1,7
 399 926 399 926 399 881 c 0,8,9
 399 848 399 848 389.5 821 c 128,-1,10
 380 794 380 794 363.5 775 c 128,-1,11
 347 756 347 756 325 745.5 c 128,-1,12
 303 735 303 735 279 735 c 0,13,14
 239 735 239 735 213 763 c 128,-1,15
 187 791 187 791 187 842 c 0,0,1
-51 -291 m 1,16,-1
 -67 -272 l 1,17,18
 -43 -244 -43 -244 -17 -202 c 128,-1,19
 9 -160 9 -160 34.5 -103 c 128,-1,20
 60 -46 60 -46 83.5 27 c 128,-1,21
 107 100 107 100 126 190 c 1,22,23
 189 206 189 206 234.5 220.5 c 128,-1,24
 280 235 280 235 311 249 c 1,25,-1
 331 222 l 1,26,27
 309 170 309 170 273.5 106.5 c 128,-1,28
 238 43 238 43 189 -35 c 256,29,30
 140 -113 140 -113 97.5 -170 c 128,-1,31
 55 -227 55 -227 18 -265 c 1,32,-1
 -51 -291 l 1,16,-1
EndSplineSet
Substitution2: "<17001,16003> Urdu lookup 95 subtable" semicolon
EndChar

StartChar: less
Encoding: 60 60 31
Width: 1241
GlyphClass: 2
Flags: W
LayerCount: 2
Fore
SplineSet
109 490 m 1,0,-1
 109 571 l 1,1,-1
 1210 1032 l 1,2,-1
 1256 955 l 1,3,-1
 255 533 l 1,4,-1
 1277 136 l 1,5,-1
 1203 57 l 1,6,-1
 109 490 l 1,0,-1
EndSplineSet
Substitution2: "<17001,16003> Urdu lookup 95 subtable" less
EndChar

StartChar: equal
Encoding: 61 61 32
Width: 1241
GlyphClass: 2
Flags: W
LayerCount: 2
Fore
SplineSet
1168 708 m 1,0,-1
 1168 617 l 1,1,-1
 74 617 l 1,2,-1
 74 708 l 1,3,-1
 1168 708 l 1,0,-1
1168 365 m 1,4,-1
 1168 274 l 1,5,-1
 74 274 l 1,6,-1
 74 365 l 1,7,-1
 1168 365 l 1,4,-1
EndSplineSet
Substitution2: "<17001,16003> Urdu lookup 95 subtable" equal
EndChar

StartChar: greater
Encoding: 62 62 33
Width: 1241
GlyphClass: 2
Flags: W
LayerCount: 2
Fore
SplineSet
1280 599 m 1,0,-1
 1280 518 l 1,1,-1
 179 57 l 1,2,-1
 130 134 l 1,3,-1
 1136 559 l 1,4,-1
 109 953 l 1,5,-1
 186 1032 l 1,6,-1
 1280 599 l 1,0,-1
EndSplineSet
Substitution2: "<17001,16003> Urdu lookup 95 subtable" greater
EndChar

StartChar: question
Encoding: 63 63 34
Width: 1024
GlyphClass: 2
Flags: W
LayerCount: 2
Fore
SplineSet
446 391 m 1,0,1
 359 435 359 435 359 520 c 0,2,3
 359 560 359 560 375 601.5 c 128,-1,4
 391 643 391 643 428 694 c 0,5,6
 438 708 438 708 456.5 729 c 128,-1,7
 475 750 475 750 497 775 c 128,-1,8
 519 800 519 800 543 826.5 c 128,-1,9
 567 853 567 853 589 877.5 c 128,-1,10
 611 902 611 902 627.5 921.5 c 128,-1,11
 644 941 644 941 652 952 c 0,12,13
 690 1005 690 1005 709.5 1053 c 128,-1,14
 729 1101 729 1101 728 1140 c 0,15,16
 728 1176 728 1176 714 1207.5 c 128,-1,17
 700 1239 700 1239 675 1262.5 c 128,-1,18
 650 1286 650 1286 616 1300 c 128,-1,19
 582 1314 582 1314 543 1314 c 0,20,21
 462 1314 462 1314 409 1279 c 0,22,23
 372 1254 372 1254 304 1147 c 1,24,-1
 261 1159 l 1,25,26
 284 1210 284 1210 304.5 1259.5 c 128,-1,27
 325 1309 325 1309 343 1357 c 1,28,29
 450 1434 450 1434 575 1434 c 0,30,31
 661 1434 661 1434 740 1398 c 0,32,33
 821 1362 821 1362 858 1302 c 128,-1,34
 895 1242 895 1242 895 1164 c 0,35,36
 895 1028 895 1028 780 903 c 0,37,38
 775 898 775 898 752 875.5 c 128,-1,39
 729 853 729 853 696 821.5 c 128,-1,40
 663 790 663 790 625.5 754 c 128,-1,41
 588 718 588 718 554.5 685 c 128,-1,42
 521 652 521 652 495.5 626 c 128,-1,43
 470 600 470 600 462 589 c 0,44,45
 432 549 432 549 432 505 c 0,46,47
 432 448 432 448 488 413 c 1,48,-1
 486 403 l 1,49,-1
 446 391 l 1,0,1
263 98 m 0,50,51
 263 128 263 128 272.5 152.5 c 128,-1,52
 282 177 282 177 298.5 194.5 c 128,-1,53
 315 212 315 212 337.5 222 c 128,-1,54
 360 232 360 232 385 232 c 0,55,56
 427 232 427 232 450.5 206.5 c 128,-1,57
 474 181 474 181 474 136 c 0,58,59
 474 103 474 103 464.5 76 c 128,-1,60
 455 49 455 49 438.5 30 c 128,-1,61
 422 11 422 11 400.5 0.5 c 128,-1,62
 379 -10 379 -10 355 -10 c 0,63,64
 313 -10 313 -10 288 18 c 128,-1,65
 263 46 263 46 263 98 c 0,50,51
EndSplineSet
Substitution2: "<17001,16003> Urdu lookup 95 subtable" question
EndChar

StartChar: at
Encoding: 64 64 35
Width: 1530
GlyphClass: 2
Flags: W
LayerCount: 2
Fore
SplineSet
100 613 m 0,0,1
 100 879 100 879 214 1059 c 0,2,3
 330 1241 330 1241 514 1329 c 0,4,5
 701 1418 701 1418 906 1418 c 0,6,7
 1049 1418 1049 1418 1157.5 1376.5 c 128,-1,8
 1266 1335 1266 1335 1339.5 1261 c 128,-1,9
 1413 1187 1413 1187 1450.5 1086.5 c 128,-1,10
 1488 986 1488 986 1488 867 c 0,11,12
 1488 655 1488 655 1351 482 c 0,13,14
 1216 312 1216 312 1067 312 c 0,15,16
 1031 312 1031 312 1002.5 322 c 128,-1,17
 974 332 974 332 953.5 355.5 c 128,-1,18
 933 379 933 379 922 417.5 c 128,-1,19
 911 456 911 456 911 513 c 1,20,21
 859 410 859 410 790.5 365 c 128,-1,22
 722 320 722 320 647 320 c 0,23,24
 590 320 590 320 550 340.5 c 128,-1,25
 510 361 510 361 484.5 400.5 c 128,-1,26
 459 440 459 440 447.5 497 c 128,-1,27
 436 554 436 554 436 626 c 0,28,29
 436 726 436 726 485 843 c 0,30,31
 509 900 509 900 545 953 c 128,-1,32
 581 1006 581 1006 627.5 1046.5 c 128,-1,33
 674 1087 674 1087 730.5 1111 c 128,-1,34
 787 1135 787 1135 851 1135 c 0,35,36
 985 1135 985 1135 1022 1029 c 1,37,-1
 1038 1110 l 1,38,-1
 1172 1138 l 1,39,40
 1165 1107 1165 1107 1152 1050.5 c 128,-1,41
 1139 994 1139 994 1123.5 928 c 128,-1,42
 1108 862 1108 862 1092 793.5 c 128,-1,43
 1076 725 1076 725 1062.5 669 c 128,-1,44
 1049 613 1049 613 1040 576 c 128,-1,45
 1031 539 1031 539 1031 537 c 0,46,47
 1027 517 1027 517 1025 501.5 c 128,-1,48
 1023 486 1023 486 1023 475 c 0,49,50
 1023 456 1023 456 1026.5 438 c 128,-1,51
 1030 420 1030 420 1040 406 c 128,-1,52
 1050 392 1050 392 1068 383.5 c 128,-1,53
 1086 375 1086 375 1114 375 c 0,54,55
 1149 375 1149 375 1199.5 409 c 128,-1,56
 1250 443 1250 443 1296.5 507 c 128,-1,57
 1343 571 1343 571 1375.5 663 c 128,-1,58
 1408 755 1408 755 1408 871 c 0,59,60
 1408 992 1408 992 1373.5 1084.5 c 128,-1,61
 1339 1177 1339 1177 1274.5 1240 c 128,-1,62
 1210 1303 1210 1303 1117.5 1335 c 128,-1,63
 1025 1367 1025 1367 909 1367 c 0,64,65
 733 1367 733 1367 573 1279 c 0,66,67
 413 1192 413 1192 311 1020 c 1,68,69
 210 847 210 847 210 610 c 0,70,71
 210 477 210 477 249.5 370.5 c 128,-1,72
 289 264 289 264 359.5 189.5 c 128,-1,73
 430 115 430 115 527.5 75 c 128,-1,74
 625 35 625 35 741 35 c 0,75,76
 882 35 882 35 1010.5 90 c 128,-1,77
 1139 145 1139 145 1261 240 c 1,78,-1
 1245 177 l 1,79,80
 1187 132 1187 132 1131.5 95.5 c 128,-1,81
 1076 59 1076 59 1016 33.5 c 128,-1,82
 956 8 956 8 887 -6 c 128,-1,83
 818 -20 818 -20 732 -20 c 0,84,85
 463 -20 463 -20 282 140 c 0,86,87
 100 301 100 301 100 613 c 0,0,1
864 1084 m 0,88,89
 834 1084 834 1084 797 1061.5 c 128,-1,90
 760 1039 760 1039 725.5 1002.5 c 128,-1,91
 691 966 691 966 663 920.5 c 128,-1,92
 635 875 635 875 622 829 c 0,93,94
 609 780 609 780 600.5 746.5 c 128,-1,95
 592 713 592 713 587.5 688.5 c 128,-1,96
 583 664 583 664 581.5 644 c 128,-1,97
 580 624 580 624 580 603 c 0,98,99
 580 542 580 542 587.5 500.5 c 128,-1,100
 595 459 595 459 611 434.5 c 128,-1,101
 627 410 627 410 650.5 399.5 c 128,-1,102
 674 389 674 389 706 389 c 0,103,104
 745 389 745 389 779.5 416 c 128,-1,105
 814 443 814 443 843 486.5 c 128,-1,106
 872 530 872 530 895 584 c 128,-1,107
 918 638 918 638 934 692 c 0,108,109
 951 749 951 749 961.5 792 c 128,-1,110
 972 835 972 835 978 867.5 c 128,-1,111
 984 900 984 900 986.5 922.5 c 128,-1,112
 989 945 989 945 989 960 c 0,113,114
 989 980 989 980 982 1002 c 128,-1,115
 975 1024 975 1024 960 1042 c 128,-1,116
 945 1060 945 1060 921.5 1072 c 128,-1,117
 898 1084 898 1084 864 1084 c 0,88,89
EndSplineSet
Substitution2: "<17001,16003> Urdu lookup 95 subtable" at
EndChar

StartChar: A
Encoding: 65 65 36
Width: 1479
GlyphClass: 2
Flags: W
LayerCount: 2
Fore
SplineSet
-1 0 m 1,0,-1
 -1 59 l 1,1,2
 38 62 38 62 59 64.5 c 128,-1,3
 80 67 80 67 91 69.5 c 128,-1,4
 102 72 102 72 106.5 75 c 128,-1,5
 111 78 111 78 116 83 c 0,6,7
 120 87 120 87 138 113 c 128,-1,8
 156 139 156 139 190 189 c 1,9,-1
 283 333 l 1,10,-1
 975 1428 l 1,11,-1
 1070 1428 l 1,12,-1
 1237 220 l 2,13,14
 1244 172 1244 172 1249 143.5 c 128,-1,15
 1254 115 1254 115 1261 99.5 c 128,-1,16
 1268 84 1268 84 1278.5 78.5 c 128,-1,17
 1289 73 1289 73 1307 70 c 0,18,19
 1310 69 1310 69 1335.5 66.5 c 128,-1,20
 1361 64 1361 64 1412 59 c 1,21,-1
 1412 0 l 1,22,-1
 1146 8 l 2,23,24
 1133 9 1133 9 1075.5 6.5 c 128,-1,25
 1018 4 1018 4 915 0 c 1,26,-1
 915 59 l 1,27,28
 975 62 975 62 1009.5 63.5 c 128,-1,29
 1044 65 1044 65 1061 70.5 c 128,-1,30
 1078 76 1078 76 1082 86.5 c 128,-1,31
 1086 97 1086 97 1086 118 c 0,32,33
 1086 125 1086 125 1086 132 c 128,-1,34
 1086 139 1086 139 1085 147 c 2,35,-1
 1073 271 l 1,36,-1
 1034 567 l 1,37,-1
 535 567 l 1,38,-1
 377 304 l 1,39,40
 346 249 346 249 325.5 213 c 128,-1,41
 305 177 305 177 294 154 c 128,-1,42
 283 131 283 131 278.5 118.5 c 128,-1,43
 274 106 274 106 274 99 c 0,44,45
 274 89 274 89 277 82.5 c 128,-1,46
 280 76 280 76 296 72 c 128,-1,47
 312 68 312 68 346.5 65.5 c 128,-1,48
 381 63 381 63 444 60 c 1,49,-1
 444 0 l 1,50,-1
 174 8 l 1,51,52
 140 8 140 8 96.5 6 c 128,-1,53
 53 4 53 4 -1 0 c 1,0,-1
584 645 m 1,54,-1
 1024 645 l 1,55,-1
 948 1226 l 1,56,-1
 584 645 l 1,54,-1
EndSplineSet
Substitution2: "<17001,16003> Urdu lookup 95 subtable" A
EndChar

StartChar: B
Encoding: 66 66 37
Width: 1251
GlyphClass: 2
Flags: W
LayerCount: 2
Fore
SplineSet
72 0 m 1,0,-1
 78 50 l 1,1,-1
 147 75 l 2,2,3
 157 79 157 79 175 92 c 1,4,5
 193 151 193 151 208 225 c 0,6,7
 233 346 233 346 257.5 478 c 128,-1,8
 282 610 282 610 307 754 c 0,9,10
 333 901 333 901 351 1012 c 128,-1,11
 369 1123 369 1123 378 1204 c 0,12,13
 381 1232 381 1232 383 1252 c 128,-1,14
 385 1272 385 1272 385 1286 c 0,15,16
 385 1312 385 1312 380 1326.5 c 128,-1,17
 375 1341 375 1341 356.5 1347.5 c 128,-1,18
 338 1354 338 1354 303 1355.5 c 128,-1,19
 268 1357 268 1357 208 1358 c 1,20,-1
 208 1419 l 1,21,22
 317 1414 317 1414 383.5 1411.5 c 128,-1,23
 450 1409 450 1409 479 1409 c 0,24,25
 489 1409 489 1409 520 1410 c 128,-1,26
 551 1411 551 1411 592.5 1412 c 128,-1,27
 634 1413 634 1413 681.5 1414 c 128,-1,28
 729 1415 729 1415 771 1415 c 0,29,30
 873 1415 873 1415 944 1397 c 128,-1,31
 1015 1379 1015 1379 1060 1344.5 c 128,-1,32
 1105 1310 1105 1310 1125.5 1260.5 c 128,-1,33
 1146 1211 1146 1211 1146 1148 c 0,34,35
 1146 955 1146 955 947 827 c 0,36,37
 916 807 916 807 874 787.5 c 128,-1,38
 832 768 832 768 778 748 c 1,39,40
 917 727 917 727 971 704 c 0,41,42
 1040 674 1040 674 1078 613 c 128,-1,43
 1116 552 1116 552 1116 467 c 0,44,45
 1116 388 1116 388 1082.5 313.5 c 128,-1,46
 1049 239 1049 239 991 181 c 0,47,48
 964 154 964 154 925.5 127 c 128,-1,49
 887 100 887 100 846 77 c 128,-1,50
 805 54 805 54 766.5 36.5 c 128,-1,51
 728 19 728 19 702 13 c 0,52,53
 674 6 674 6 632.5 3 c 128,-1,54
 591 0 591 0 536 0 c 0,55,56
 520 0 520 0 498 0.5 c 128,-1,57
 476 1 476 1 451 1.5 c 128,-1,58
 426 2 426 2 400 2.5 c 128,-1,59
 374 3 374 3 349 4 c 0,60,61
 291 6 291 6 229 7 c 0,62,63
 196 7 196 7 157 5.5 c 128,-1,64
 118 4 118 4 72 0 c 1,0,-1
463 774 m 1,65,66
 495 772 495 772 521 771 c 128,-1,67
 547 770 547 770 569 770 c 0,68,69
 620 770 620 770 659.5 774.5 c 128,-1,70
 699 779 699 779 731 789 c 128,-1,71
 763 799 763 799 791 813.5 c 128,-1,72
 819 828 819 828 847 849 c 0,73,74
 905 892 905 892 940.5 962.5 c 128,-1,75
 976 1033 976 1033 976 1120 c 0,76,77
 976 1225 976 1225 910.5 1284 c 128,-1,78
 845 1343 845 1343 707 1343 c 0,79,80
 675 1343 675 1343 639.5 1339.5 c 128,-1,81
 604 1336 604 1336 565 1329 c 1,82,83
 513 1101 513 1101 463 774 c 1,65,66
356 101 m 1,84,85
 449 76 449 76 578 76 c 0,86,87
 641 76 641 76 690.5 87 c 128,-1,88
 740 98 740 98 778 120 c 128,-1,89
 816 142 816 142 843.5 174 c 128,-1,90
 871 206 871 206 891 249 c 0,91,92
 912 294 912 294 923.5 341 c 128,-1,93
 935 388 935 388 934 440 c 1,94,95
 934 514 934 514 912.5 563.5 c 128,-1,96
 891 613 891 613 848 643 c 128,-1,97
 805 673 805 673 740 685.5 c 128,-1,98
 675 698 675 698 588 698 c 0,99,100
 556 698 556 698 521.5 696.5 c 128,-1,101
 487 695 487 695 449 691 c 1,102,103
 444 662 444 662 437.5 626.5 c 128,-1,104
 431 591 431 591 424 548 c 2,105,-1
 371 222 l 2,106,107
 361 158 361 158 356 101 c 1,84,85
EndSplineSet
Substitution2: "<17001,16003> Urdu lookup 95 subtable" B
EndChar

StartChar: C
Encoding: 67 67 38
AltUni2: 00216d.ffffffff.0
Width: 1366
GlyphClass: 2
Flags: W
LayerCount: 2
Fore
SplineSet
1246 217 m 1,0,-1
 1224 142 l 1,1,2
 1126 72 1126 72 1058 39 c 0,3,4
 992 7 992 7 902 -13.5 c 128,-1,5
 812 -34 812 -34 703 -34 c 0,6,7
 558 -34 558 -34 444.5 6.5 c 128,-1,8
 331 47 331 47 253 125.5 c 128,-1,9
 175 204 175 204 134 318.5 c 128,-1,10
 93 433 93 433 93 581 c 0,11,12
 93 793 93 793 171 965 c 0,13,14
 236 1107 236 1107 360 1219 c 0,15,16
 487 1334 487 1334 625.5 1388.5 c 128,-1,17
 764 1443 764 1443 915 1443 c 0,18,19
 1135 1443 1135 1443 1331 1363 c 1,20,21
 1313 1312 1313 1312 1304 1260 c 0,22,23
 1290 1187 1290 1187 1277 1064 c 1,24,-1
 1220 1065 l 1,25,-1
 1220 1176 l 1,26,27
 1219 1188 1219 1188 1218.5 1201.5 c 128,-1,28
 1218 1215 1218 1215 1217 1229 c 1,29,30
 1157 1278 1157 1278 1087 1303 c 0,31,32
 989 1337 989 1337 857 1337 c 0,33,34
 716 1337 716 1337 612 1296 c 128,-1,35
 508 1255 508 1255 432 1160 c 1,36,37
 357 1064 357 1064 316 927.5 c 128,-1,38
 275 791 275 791 274 621 c 0,39,40
 274 511 274 511 294.5 427.5 c 128,-1,41
 315 344 315 344 350.5 283 c 128,-1,42
 386 222 386 222 434.5 182 c 128,-1,43
 483 142 483 142 538 118 c 128,-1,44
 593 94 593 94 652 84 c 128,-1,45
 711 74 711 74 769 74 c 0,46,47
 887 74 887 74 993 110 c 1,48,49
 1100 148 1100 148 1224 230 c 1,50,-1
 1246 217 l 1,0,-1
EndSplineSet
Substitution2: "<17001,16003> Urdu lookup 95 subtable" C
EndChar

StartChar: D
Encoding: 68 68 39
AltUni2: 00216e.ffffffff.0
Width: 1593
GlyphClass: 2
Flags: W
LayerCount: 2
Fore
SplineSet
81 0 m 1,0,-1
 81 46 l 1,1,2
 124 63 124 63 145.5 72.5 c 128,-1,3
 167 82 167 82 169 83 c 0,4,5
 176 90 176 90 183.5 106 c 128,-1,6
 191 122 191 122 199 154 c 128,-1,7
 207 186 207 186 217 237 c 128,-1,8
 227 288 227 288 240 364 c 0,9,10
 249 417 249 417 263 501 c 128,-1,11
 277 585 277 585 293 681.5 c 128,-1,12
 309 778 309 778 324.5 879 c 128,-1,13
 340 980 340 980 353 1066.5 c 128,-1,14
 366 1153 366 1153 374 1216 c 128,-1,15
 382 1279 382 1279 382 1301 c 0,16,17
 382 1317 382 1317 380.5 1326 c 128,-1,18
 379 1335 379 1335 363.5 1341 c 128,-1,19
 348 1347 348 1347 311 1351 c 128,-1,20
 274 1355 274 1355 202 1361 c 1,21,-1
 209 1419 l 1,22,-1
 472 1419 l 1,23,-1
 875 1418 l 2,24,25
 1093 1418 1093 1418 1197 1386 c 0,26,27
 1299 1354 1299 1354 1366 1294 c 128,-1,28
 1433 1234 1433 1234 1468 1162 c 0,29,30
 1497 1102 1497 1102 1511 1033.5 c 128,-1,31
 1525 965 1525 965 1525 885 c 0,32,33
 1525 713 1525 713 1462 555 c 0,34,35
 1431 476 1431 476 1388 408 c 128,-1,36
 1345 340 1345 340 1290 280 c 1,37,38
 1180 163 1180 163 1051 92 c 0,39,40
 956 40 956 40 854 18 c 0,41,42
 752 -3 752 -3 603 -3 c 0,43,44
 555 -3 555 -3 500 -1.5 c 128,-1,45
 445 0 445 0 397.5 1.5 c 128,-1,46
 350 3 350 3 316.5 4.5 c 128,-1,47
 283 6 283 6 279 6 c 2,48,-1
 81 0 l 1,0,-1
365 118 m 1,49,50
 459 102 459 102 543.5 94 c 128,-1,51
 628 86 628 86 706 86 c 0,52,53
 834 86 834 86 933 124 c 0,54,55
 996 148 996 148 1059.5 199 c 128,-1,56
 1123 250 1123 250 1175 322 c 0,57,58
 1249 423 1249 423 1294 570 c 0,59,60
 1317 644 1317 644 1329 717 c 128,-1,61
 1341 790 1341 790 1340 863 c 1,62,63
 1340 1020 1340 1020 1281 1127 c 0,64,65
 1222 1232 1222 1232 1115 1282 c 1,66,67
 1009 1333 1009 1333 788 1333 c 0,68,69
 734 1333 734 1333 679 1330.5 c 128,-1,70
 624 1328 624 1328 566 1323 c 1,71,-1
 497 944 l 2,72,73
 495 932 495 932 488.5 895.5 c 128,-1,74
 482 859 482 859 473.5 808 c 128,-1,75
 465 757 465 757 454.5 695.5 c 128,-1,76
 444 634 444 634 433 570 c 128,-1,77
 422 506 422 506 412 444.5 c 128,-1,78
 402 383 402 383 393.5 333 c 128,-1,79
 385 283 385 283 379.5 248.5 c 128,-1,80
 374 214 374 214 373 203 c 0,81,82
 371 186 371 186 369 165 c 128,-1,83
 367 144 367 144 365 118 c 1,49,50
EndSplineSet
Substitution2: "<17001,16003> Urdu lookup 95 subtable" D
EndChar

StartChar: E
Encoding: 69 69 40
Width: 1251
GlyphClass: 2
Flags: W
LayerCount: 2
Fore
SplineSet
76 0 m 1,0,-1
 83 52 l 1,1,-1
 187 91 l 1,2,3
 209 160 209 160 233 286 c 0,4,5
 234 290 234 290 238.5 316.5 c 128,-1,6
 243 343 243 343 250.5 383 c 128,-1,7
 258 423 258 423 266.5 471 c 128,-1,8
 275 519 275 519 283 565.5 c 128,-1,9
 291 612 291 612 298 651.5 c 128,-1,10
 305 691 305 691 309 714 c 0,11,12
 341 897 341 897 363 1028.5 c 128,-1,13
 385 1160 385 1160 396 1244 c 0,14,15
 399 1267 399 1267 399 1287 c 0,16,17
 399 1321 399 1321 376 1336 c 1,18,19
 355 1351 355 1351 219 1359 c 1,20,-1
 227 1419 l 1,21,22
 244 1418 244 1418 281.5 1417 c 128,-1,23
 319 1416 319 1416 377 1414 c 0,24,25
 465 1412 465 1412 512 1411 c 128,-1,26
 559 1410 559 1410 566 1409 c 1,27,-1
 997 1416 l 2,28,29
 1045 1416 1045 1416 1087 1414.5 c 128,-1,30
 1129 1413 1129 1413 1166 1411 c 1,31,32
 1144 1313 1144 1313 1126 1107 c 1,33,-1
 1076 1107 l 1,34,35
 1071 1182 1071 1182 1068 1224.5 c 128,-1,36
 1065 1267 1065 1267 1063 1279 c 0,37,38
 1060 1293 1060 1293 1054.5 1301.5 c 128,-1,39
 1049 1310 1049 1310 1037 1315 c 128,-1,40
 1025 1320 1025 1320 1005.5 1322.5 c 128,-1,41
 986 1325 986 1325 956 1327 c 0,42,43
 908 1331 908 1331 864 1333 c 128,-1,44
 820 1335 820 1335 777 1335 c 0,45,46
 650 1335 650 1335 582 1326 c 1,47,48
 561 1232 561 1232 535.5 1096 c 128,-1,49
 510 960 510 960 479 776 c 1,50,51
 586 773 586 773 654 773 c 0,52,53
 723 773 723 773 806.5 776 c 128,-1,54
 890 779 890 779 990 786 c 1,55,-1
 997 776 l 1,56,-1
 958 682 l 1,57,58
 953 682 953 682 861 687 c 128,-1,59
 769 692 769 692 600 692 c 0,60,61
 568 692 568 692 534.5 691.5 c 128,-1,62
 501 691 501 691 464 690 c 1,63,-1
 386 228 l 2,64,65
 380 193 380 193 376.5 161.5 c 128,-1,66
 373 130 373 130 369 103 c 1,67,68
 442 96 442 96 508.5 93 c 128,-1,69
 575 90 575 90 636 90 c 0,70,71
 719 90 719 90 781 91.5 c 128,-1,72
 843 93 843 93 886 98 c 128,-1,73
 929 103 929 103 954 112 c 128,-1,74
 979 121 979 121 988 136 c 0,75,76
 995 147 995 147 1009.5 196 c 128,-1,77
 1024 245 1024 245 1047 334 c 1,78,-1
 1105 334 l 1,79,80
 1101 310 1101 310 1094 269 c 128,-1,81
 1087 228 1087 228 1079.5 181 c 128,-1,82
 1072 134 1072 134 1065.5 88 c 128,-1,83
 1059 42 1059 42 1055 9 c 1,84,85
 979 0 979 0 895 0 c 1,86,-1
 391 8 l 1,87,88
 288 8 288 8 209.5 6 c 128,-1,89
 131 4 131 4 76 0 c 1,0,-1
EndSplineSet
Substitution2: "<17001,16003> Urdu lookup 95 subtable" E
EndChar

StartChar: F
Encoding: 70 70 41
Width: 1139
GlyphClass: 2
Flags: W
LayerCount: 2
Fore
SplineSet
18 0 m 1,0,-1
 26 56 l 1,1,2
 67 60 67 60 93.5 65 c 128,-1,3
 120 70 120 70 137.5 76 c 128,-1,4
 155 82 155 82 164 89.5 c 128,-1,5
 173 97 173 97 178 107 c 256,6,7
 183 117 183 117 193 162 c 128,-1,8
 203 207 203 207 216 274 c 128,-1,9
 229 341 229 341 244.5 424 c 128,-1,10
 260 507 260 507 275.5 592.5 c 128,-1,11
 291 678 291 678 305.5 759.5 c 128,-1,12
 320 841 320 841 331.5 906 c 128,-1,13
 343 971 343 971 349.5 1012.5 c 128,-1,14
 356 1054 356 1054 357 1059 c 0,15,16
 370 1149 370 1149 376 1207.5 c 128,-1,17
 382 1266 382 1266 382 1295 c 0,18,19
 382 1315 382 1315 376.5 1326 c 128,-1,20
 371 1337 371 1337 352.5 1343 c 128,-1,21
 334 1349 334 1349 299 1351.5 c 128,-1,22
 264 1354 264 1354 205 1357 c 1,23,-1
 213 1419 l 1,24,25
 232 1417 232 1417 252.5 1416.5 c 128,-1,26
 273 1416 273 1416 296 1415 c 0,27,28
 390 1413 390 1413 450 1410.5 c 128,-1,29
 510 1408 510 1408 539 1409 c 2,30,-1
 971 1417 l 2,31,32
 1014 1417 1014 1417 1053 1415.5 c 128,-1,33
 1092 1414 1092 1414 1127 1410 c 1,34,35
 1120 1375 1120 1375 1115 1344.5 c 128,-1,36
 1110 1314 1110 1314 1106 1288 c 0,37,38
 1103 1262 1103 1262 1100 1216.5 c 128,-1,39
 1097 1171 1097 1171 1092 1105 c 1,40,-1
 1039 1105 l 1,41,42
 1038 1116 1038 1116 1035.5 1149 c 128,-1,43
 1033 1182 1033 1182 1028 1237 c 0,44,45
 1026 1259 1026 1259 1024.5 1275 c 128,-1,46
 1023 1291 1023 1291 1021 1302 c 1,47,48
 918 1333 918 1333 705 1333 c 0,49,50
 636 1333 636 1333 562 1327 c 1,51,52
 540 1234 540 1234 517 1099 c 0,53,54
 488 930 488 930 471.5 832 c 128,-1,55
 455 734 455 734 451 705 c 1,56,-1
 679 702 l 2,57,58
 689 702 689 702 710 703 c 128,-1,59
 731 704 731 704 758 706 c 128,-1,60
 785 708 785 708 816 710 c 128,-1,61
 847 712 847 712 876 714 c 128,-1,62
 905 716 905 716 929.5 718 c 128,-1,63
 954 720 954 720 970 721 c 1,64,-1
 980 710 l 1,65,-1
 957 658 l 1,66,67
 950 639 950 639 945 626.5 c 128,-1,68
 940 614 940 614 938 608 c 1,69,-1
 769 615 l 2,70,71
 729 617 729 617 686 618 c 128,-1,72
 643 619 643 619 595 619 c 0,73,74
 556 619 556 619 516.5 617.5 c 128,-1,75
 477 616 477 616 435 614 c 1,76,77
 362 195 362 195 362 136 c 0,78,79
 362 105 362 105 375.5 91 c 128,-1,80
 389 77 389 77 424 71 c 0,81,82
 435 69 435 69 468.5 65.5 c 128,-1,83
 502 62 502 62 562 57 c 1,84,-1
 555 0 l 1,85,-1
 289 9 l 2,86,87
 279 9 279 9 264 8.5 c 128,-1,88
 249 8 249 8 227 7 c 2,89,-1
 18 0 l 1,0,-1
EndSplineSet
Substitution2: "<17001,16003> Urdu lookup 95 subtable" F
EndChar

StartChar: G
Encoding: 71 71 42
Width: 1479
GlyphClass: 2
Flags: W
LayerCount: 2
Fore
SplineSet
1251 95 m 1,0,-1
 1242 80 l 1,1,2
 1222 78 1222 78 1191.5 69 c 128,-1,3
 1161 60 1161 60 1118 46 c 0,4,5
 1040 20 1040 20 984.5 4 c 128,-1,6
 929 -12 929 -12 894 -19 c 0,7,8
 858 -26 858 -26 818.5 -29.5 c 128,-1,9
 779 -33 779 -33 734 -33 c 0,10,11
 607 -33 607 -33 512.5 -7.5 c 128,-1,12
 418 18 418 18 349.5 60 c 128,-1,13
 281 102 281 102 237 155 c 128,-1,14
 193 208 193 208 167 263 c 0,15,16
 137 328 137 328 123 401.5 c 128,-1,17
 109 475 109 475 108 560 c 1,18,19
 108 736 108 736 166 897 c 0,20,21
 210 1019 210 1019 279.5 1110.5 c 128,-1,22
 349 1202 349 1202 450 1277 c 0,23,24
 550 1352 550 1352 674 1398 c 0,25,26
 734 1421 734 1421 805.5 1433 c 128,-1,27
 877 1445 877 1445 961 1444 c 1,28,29
 1175 1444 1175 1444 1376 1361 c 1,30,31
 1354 1298 1354 1298 1339 1222.5 c 128,-1,32
 1324 1147 1324 1147 1314 1056 c 1,33,-1
 1257 1061 l 1,34,35
 1256 1115 1256 1115 1254.5 1159.5 c 128,-1,36
 1253 1204 1253 1204 1250 1240 c 1,37,38
 1225 1261 1225 1261 1185.5 1279.5 c 128,-1,39
 1146 1298 1146 1298 1098.5 1311.5 c 128,-1,40
 1051 1325 1051 1325 998 1332.5 c 128,-1,41
 945 1340 945 1340 892 1340 c 0,42,43
 763 1340 763 1340 667.5 1304.5 c 128,-1,44
 572 1269 572 1269 497 1192 c 0,45,46
 424 1116 424 1116 377 1009 c 0,47,48
 354 956 354 956 337.5 906 c 128,-1,49
 321 856 321 856 310.5 806 c 128,-1,50
 300 756 300 756 295 705 c 128,-1,51
 290 654 290 654 290 600 c 0,52,53
 290 471 290 471 321.5 370.5 c 128,-1,54
 353 270 353 270 416 201 c 128,-1,55
 479 132 479 132 573 96.5 c 128,-1,56
 667 61 667 61 791 61 c 0,57,58
 965 61 965 61 1078 126 c 1,59,-1
 1115 322 l 2,60,61
 1123 365 1123 365 1126.5 393.5 c 128,-1,62
 1130 422 1130 422 1130 436 c 0,63,64
 1130 473 1130 473 1099 483 c 0,65,66
 1085 488 1085 488 1033 494 c 128,-1,67
 981 500 981 500 890 505 c 1,68,-1
 899 565 l 1,69,70
 1118 556 1118 556 1184 556 c 0,71,72
 1204 556 1204 556 1262 557 c 128,-1,73
 1320 558 1320 558 1417 560 c 1,74,-1
 1413 506 l 1,75,76
 1365 497 1365 497 1341.5 491.5 c 128,-1,77
 1318 486 1318 486 1307.5 477 c 128,-1,78
 1297 468 1297 468 1294.5 452 c 128,-1,79
 1292 436 1292 436 1286 407 c 2,80,-1
 1274 350 l 2,81,82
 1269 325 1269 325 1263.5 292 c 128,-1,83
 1258 259 1258 259 1253.5 226.5 c 128,-1,84
 1249 194 1249 194 1246.5 167 c 128,-1,85
 1244 140 1244 140 1244 128 c 0,86,87
 1244 110 1244 110 1251 95 c 1,0,-1
EndSplineSet
Substitution2: "<17001,16003> Urdu lookup 95 subtable" G
EndChar

StartChar: H
Encoding: 72 72 43
Width: 1593
GlyphClass: 2
Flags: W
LayerCount: 2
Fore
SplineSet
8 0 m 1,0,-1
 15 61 l 1,1,2
 56 61 56 61 82 62.5 c 128,-1,3
 108 64 108 64 124 67 c 128,-1,4
 140 70 140 70 148 74.5 c 128,-1,5
 156 79 156 79 162 85 c 0,6,7
 170 93 170 93 179 122 c 128,-1,8
 188 151 188 151 202 215.5 c 128,-1,9
 216 280 216 280 235.5 388 c 128,-1,10
 255 496 255 496 283 661 c 0,11,12
 291 704 291 704 301 764 c 128,-1,13
 311 824 311 824 322 890.5 c 128,-1,14
 333 957 333 957 343.5 1023.5 c 128,-1,15
 354 1090 354 1090 362.5 1147.5 c 128,-1,16
 371 1205 371 1205 376 1247 c 128,-1,17
 381 1289 381 1289 381 1305 c 0,18,19
 381 1332 381 1332 371.5 1342 c 128,-1,20
 362 1352 362 1352 336 1354 c 0,21,22
 330 1355 330 1355 298.5 1356.5 c 128,-1,23
 267 1358 267 1358 210 1362 c 1,24,-1
 221 1419 l 1,25,-1
 513 1414 l 2,26,27
 542 1413 542 1413 598.5 1415 c 128,-1,28
 655 1417 655 1417 740 1419 c 1,29,-1
 734 1362 l 1,30,31
 620 1355 620 1355 600 1350 c 0,32,33
 590 1348 590 1348 582.5 1345 c 128,-1,34
 575 1342 575 1342 568 1327 c 128,-1,35
 561 1312 561 1312 553 1279.5 c 128,-1,36
 545 1247 545 1247 533 1185.5 c 128,-1,37
 521 1124 521 1124 504 1029 c 128,-1,38
 487 934 487 934 463 793 c 1,39,40
 658 787 658 787 967 787 c 0,41,42
 1117 787 1117 787 1211 793 c 1,43,44
 1213 805 1213 805 1230 898.5 c 128,-1,45
 1247 992 1247 992 1277 1170 c 0,46,47
 1286 1221 1286 1221 1290 1253 c 128,-1,48
 1294 1285 1294 1285 1294 1301 c 0,49,50
 1294 1337 1294 1337 1273 1346 c 0,51,52
 1263 1350 1263 1350 1226 1354 c 128,-1,53
 1189 1358 1189 1358 1123 1362 c 1,54,-1
 1129 1419 l 1,55,-1
 1372 1414 l 2,56,57
 1397 1413 1397 1413 1414.5 1412.5 c 128,-1,58
 1432 1412 1432 1412 1443 1412 c 0,59,60
 1481 1412 1481 1412 1528 1413.5 c 128,-1,61
 1575 1415 1575 1415 1632 1419 c 1,62,-1
 1626 1362 l 1,63,64
 1586 1361 1586 1361 1560 1359 c 128,-1,65
 1534 1357 1534 1357 1517.5 1353.5 c 128,-1,66
 1501 1350 1501 1350 1492 1344.5 c 128,-1,67
 1483 1339 1483 1339 1478 1330 c 0,68,69
 1462 1303 1462 1303 1419 1065 c 2,70,-1
 1331 577 l 2,71,72
 1296 383 1296 383 1280.5 268.5 c 128,-1,73
 1265 154 1265 154 1264 115 c 0,74,75
 1264 99 1264 99 1267 90 c 128,-1,76
 1270 81 1270 81 1287.5 75.5 c 128,-1,77
 1305 70 1305 70 1343 67 c 128,-1,78
 1381 64 1381 64 1451 61 c 1,79,-1
 1442 0 l 1,80,81
 1324 4 1324 4 1255 6 c 128,-1,82
 1186 8 1186 8 1163 8 c 0,83,84
 1128 8 1128 8 1061 6 c 128,-1,85
 994 4 994 4 894 0 c 1,86,-1
 902 61 l 1,87,88
 954 62 954 62 986 63.5 c 128,-1,89
 1018 65 1018 65 1036.5 69.5 c 128,-1,90
 1055 74 1055 74 1063.5 82 c 128,-1,91
 1072 90 1072 90 1078 103 c 0,92,93
 1099 150 1099 150 1144 405 c 0,94,95
 1167 534 1167 534 1180 608.5 c 128,-1,96
 1193 683 1193 683 1195 705 c 1,97,98
 1116 707 1116 707 1025 708 c 128,-1,99
 934 709 934 709 828 709 c 0,100,101
 584 709 584 709 449 700 c 1,102,103
 359 210 359 210 359 110 c 0,104,105
 359 95 359 95 362 86.5 c 128,-1,106
 365 78 365 78 381.5 73 c 128,-1,107
 398 68 398 68 433 65.5 c 128,-1,108
 468 63 468 63 531 61 c 1,109,-1
 523 0 l 1,110,111
 423 4 423 4 354.5 6 c 128,-1,112
 286 8 286 8 244 8 c 0,113,114
 193 8 193 8 134 6 c 128,-1,115
 75 4 75 4 8 0 c 1,0,-1
EndSplineSet
Substitution2: "<17001,16003> Urdu lookup 95 subtable" H
EndChar

StartChar: I
Encoding: 73 73 44
Width: 682
GlyphClass: 2
Flags: W
LayerCount: 2
Fore
SplineSet
18 0 m 1,0,-1
 24 59 l 1,1,2
 75 61 75 61 102.5 63.5 c 128,-1,3
 130 66 130 66 143.5 70 c 128,-1,4
 157 74 157 74 161 79.5 c 128,-1,5
 165 85 165 85 169 94 c 0,6,7
 177 109 177 109 191 170.5 c 128,-1,8
 205 232 205 232 222.5 320 c 128,-1,9
 240 408 240 408 258.5 511.5 c 128,-1,10
 277 615 277 615 294.5 714 c 128,-1,11
 312 813 312 813 326 896 c 128,-1,12
 340 979 340 979 348 1026 c 0,13,14
 365 1132 365 1132 374 1199 c 128,-1,15
 383 1266 383 1266 383 1294 c 0,16,17
 383 1326 383 1326 371 1338 c 128,-1,18
 359 1350 359 1350 324 1353 c 1,19,-1
 205 1358 l 1,20,-1
 215 1414 l 1,21,-1
 512 1410 l 2,22,23
 547 1409 547 1409 598 1410.5 c 128,-1,24
 649 1412 649 1412 718 1414 c 1,25,-1
 714 1358 l 1,26,27
 669 1356 669 1356 643.5 1354 c 128,-1,28
 618 1352 618 1352 604.5 1349.5 c 128,-1,29
 591 1347 591 1347 585.5 1343.5 c 128,-1,30
 580 1340 580 1340 576 1335 c 0,31,32
 566 1325 566 1325 560 1295 c 0,33,34
 544 1223 544 1223 522.5 1106 c 128,-1,35
 501 989 501 989 471 821 c 2,36,-1
 389 360 l 1,37,38
 373 261 373 261 365 199.5 c 128,-1,39
 357 138 357 138 357 112 c 0,40,41
 357 94 357 94 365 84 c 128,-1,42
 373 74 373 74 393 68.5 c 128,-1,43
 413 63 413 63 447 61.5 c 128,-1,44
 481 60 481 60 533 59 c 1,45,-1
 526 0 l 1,46,47
 454 4 454 4 391.5 6 c 128,-1,48
 329 8 329 8 272 8 c 256,49,50
 215 8 215 8 152.5 6 c 128,-1,51
 90 4 90 4 18 0 c 1,0,-1
EndSplineSet
Substitution2: "<17001,16003> Urdu lookup 95 subtable" I
EndChar

StartChar: J
Encoding: 74 74 45
Width: 682
GlyphClass: 2
Flags: W
LayerCount: 2
Fore
SplineSet
-64 -399 m 1,0,-1
 -70 -343 l 1,1,2
 -37 -356 -37 -356 -9 -356 c 0,3,4
 20 -356 20 -356 43.5 -346.5 c 128,-1,5
 67 -337 67 -337 88 -310 c 128,-1,6
 109 -283 109 -283 127 -234.5 c 128,-1,7
 145 -186 145 -186 161 -109 c 0,8,9
 171 -64 171 -64 195 85.5 c 128,-1,10
 219 235 219 235 259 492 c 2,11,-1
 334 973 l 1,12,13
 373 1239 373 1239 373 1296 c 0,14,15
 373 1316 373 1316 366 1328 c 128,-1,16
 359 1340 359 1340 339 1347 c 128,-1,17
 319 1354 319 1354 283.5 1356 c 128,-1,18
 248 1358 248 1358 192 1359 c 1,19,-1
 198 1414 l 1,20,-1
 464 1414 l 1,21,-1
 726 1414 l 1,22,-1
 721 1359 l 1,23,24
 686 1359 686 1359 657.5 1358 c 128,-1,25
 629 1357 629 1357 607.5 1351.5 c 128,-1,26
 586 1346 586 1346 572 1333.5 c 128,-1,27
 558 1321 558 1321 553 1297 c 0,28,29
 541 1243 541 1243 522.5 1134 c 128,-1,30
 504 1025 504 1025 476 853 c 0,31,32
 468 802 468 802 456 725.5 c 128,-1,33
 444 649 444 649 431 563.5 c 128,-1,34
 418 478 418 478 404.5 389.5 c 128,-1,35
 391 301 391 301 379 225.5 c 128,-1,36
 367 150 367 150 358 93.5 c 128,-1,37
 349 37 349 37 344 16 c 0,38,39
 317 -113 317 -113 276 -197 c 128,-1,40
 235 -281 235 -281 188.5 -330 c 128,-1,41
 142 -379 142 -379 95.5 -398.5 c 128,-1,42
 49 -418 49 -418 12 -418 c 0,43,44
 -30 -418 -30 -418 -64 -399 c 1,0,-1
EndSplineSet
Substitution2: "<17001,16003> Urdu lookup 95 subtable" J
EndChar

StartChar: K
Encoding: 75 75 46
AltUni2: 00212a.ffffffff.0
Width: 1366
GlyphClass: 2
Flags: W
LayerCount: 2
Fore
SplineSet
44 0 m 1,0,-1
 44 60 l 1,1,2
 94 64 94 64 123 67.5 c 128,-1,3
 152 71 152 71 167.5 76 c 128,-1,4
 183 81 183 81 189.5 87.5 c 128,-1,5
 196 94 196 94 200 104 c 1,6,7
 209 121 209 121 220.5 167 c 128,-1,8
 232 213 232 213 245 277 c 128,-1,9
 258 341 258 341 271.5 416 c 128,-1,10
 285 491 285 491 298 566 c 128,-1,11
 311 641 311 641 322.5 709.5 c 128,-1,12
 334 778 334 778 342 828 c 0,13,14
 375 1021 375 1021 392 1136 c 128,-1,15
 409 1251 409 1251 408 1291 c 0,16,17
 408 1328 408 1328 385 1342 c 1,18,19
 363 1357 363 1357 229 1360 c 1,20,-1
 237 1419 l 1,21,22
 343 1414 343 1414 410.5 1411 c 128,-1,23
 478 1408 478 1408 510 1408 c 0,24,25
 555 1408 555 1408 620 1411 c 128,-1,26
 685 1414 685 1414 773 1419 c 1,27,-1
 767 1360 l 1,28,29
 719 1358 719 1358 689.5 1356 c 128,-1,30
 660 1354 660 1354 642 1351 c 128,-1,31
 624 1348 624 1348 614.5 1343 c 128,-1,32
 605 1338 605 1338 598 1330 c 0,33,34
 587 1316 587 1316 580 1290 c 1,35,36
 581 1294 581 1294 577 1271 c 128,-1,37
 573 1248 573 1248 566 1209 c 128,-1,38
 559 1170 559 1170 550 1118.5 c 128,-1,39
 541 1067 541 1067 531.5 1012.5 c 128,-1,40
 522 958 522 958 512.5 906 c 128,-1,41
 503 854 503 854 495.5 813 c 128,-1,42
 488 772 488 772 483.5 747 c 128,-1,43
 479 722 479 722 479 723 c 0,44,45
 536 765 536 765 590 810.5 c 128,-1,46
 644 856 644 856 695 905 c 0,47,48
 747 954 747 954 829 1036.5 c 128,-1,49
 911 1119 911 1119 1026 1237 c 0,50,51
 1067 1279 1067 1279 1087.5 1301 c 128,-1,52
 1108 1323 1108 1323 1116.5 1338 c 128,-1,53
 1125 1353 1125 1353 1125 1368.5 c 128,-1,54
 1125 1384 1125 1384 1125 1414 c 1,55,56
 1130 1414 1130 1414 1137.5 1414.5 c 128,-1,57
 1145 1415 1145 1415 1156 1415 c 0,58,59
 1196 1415 1196 1415 1283 1412 c 1,60,61
 1329 1416 1329 1416 1356.5 1417.5 c 128,-1,62
 1384 1419 1384 1419 1392 1419 c 1,63,-1
 1392 1360 l 1,64,65
 1355 1360 1355 1360 1333.5 1358.5 c 128,-1,66
 1312 1357 1312 1357 1293.5 1348 c 128,-1,67
 1275 1339 1275 1339 1254 1320 c 128,-1,68
 1233 1301 1233 1301 1196 1266 c 2,69,-1
 647 752 l 1,70,-1
 1094 204 l 2,71,72
 1144 143 1144 143 1173 112.5 c 128,-1,73
 1202 82 1202 82 1227 73 c 0,74,75
 1237 70 1237 70 1259.5 66.5 c 128,-1,76
 1282 63 1282 63 1317 60 c 1,77,-1
 1317 0 l 1,78,79
 1282 5 1282 5 1253.5 8 c 128,-1,80
 1225 11 1225 11 1202 11 c 1,81,-1
 1040 0 l 1,82,83
 1008 48 1008 48 970.5 97.5 c 128,-1,84
 933 147 933 147 891 201 c 0,85,86
 767 362 767 362 633 516 c 0,87,88
 566 594 566 594 527 639.5 c 128,-1,89
 488 685 488 685 475 699 c 1,90,91
 441 509 441 509 397 225 c 0,92,93
 390 180 390 180 386.5 152 c 128,-1,94
 383 124 383 124 383 112 c 0,95,96
 383 97 383 97 387 87.5 c 128,-1,97
 391 78 391 78 408.5 72.5 c 128,-1,98
 426 67 426 67 462 64.5 c 128,-1,99
 498 62 498 62 562 60 c 1,100,-1
 557 0 l 1,101,102
 488 4 488 4 421.5 5.5 c 128,-1,103
 355 7 355 7 288 7 c 0,104,105
 222 7 222 7 162 5.5 c 128,-1,106
 102 4 102 4 44 0 c 1,0,-1
EndSplineSet
Substitution2: "<17001,16003> Urdu lookup 95 subtable" K
EndChar

StartChar: L
Encoding: 76 76 47
AltUni2: 00216c.ffffffff.0
Width: 1139
GlyphClass: 2
Flags: W
LayerCount: 2
Fore
SplineSet
45 0 m 1,0,-1
 52 51 l 1,1,2
 86 62 86 62 105.5 69.5 c 128,-1,3
 125 77 125 77 136.5 84.5 c 128,-1,4
 148 92 148 92 152.5 99 c 128,-1,5
 157 106 157 106 161 115 c 0,6,7
 178 156 178 156 227 429 c 1,8,-1
 298 853 l 2,9,10
 331 1050 331 1050 348.5 1163.5 c 128,-1,11
 366 1277 366 1277 365 1309 c 0,12,13
 365 1324 365 1324 362.5 1333 c 128,-1,14
 360 1342 360 1342 344 1347.5 c 128,-1,15
 328 1353 328 1353 292 1355.5 c 128,-1,16
 256 1358 256 1358 189 1361 c 1,17,-1
 195 1419 l 1,18,19
 289 1415 289 1415 363.5 1413.5 c 128,-1,20
 438 1412 438 1412 495 1412 c 0,21,22
 555 1412 555 1412 612.5 1413.5 c 128,-1,23
 670 1415 670 1415 727 1419 c 1,24,-1
 721 1361 l 1,25,26
 658 1355 658 1355 625.5 1352 c 128,-1,27
 593 1349 593 1349 578.5 1346 c 128,-1,28
 564 1343 564 1343 561.5 1339.5 c 128,-1,29
 559 1336 559 1336 555 1331 c 0,30,31
 551 1325 551 1325 542 1289 c 128,-1,32
 533 1253 533 1253 521.5 1197.5 c 128,-1,33
 510 1142 510 1142 496.5 1071 c 128,-1,34
 483 1000 483 1000 469 924 c 128,-1,35
 455 848 455 848 441.5 771.5 c 128,-1,36
 428 695 428 695 416.5 628 c 128,-1,37
 405 561 405 561 396.5 508.5 c 128,-1,38
 388 456 388 456 383 427 c 0,39,40
 363 300 363 300 352 218.5 c 128,-1,41
 341 137 341 137 339 97 c 1,42,43
 381 93 381 93 410.5 90.5 c 128,-1,44
 440 88 440 88 459 87 c 0,45,46
 484 86 484 86 517.5 85.5 c 128,-1,47
 551 85 551 85 594 85 c 0,48,49
 653 85 653 85 707.5 87.5 c 128,-1,50
 762 90 762 90 805.5 93.5 c 128,-1,51
 849 97 849 97 879.5 102.5 c 128,-1,52
 910 108 910 108 921 114 c 0,53,54
 932 121 932 121 942 137 c 128,-1,55
 952 153 952 153 962 188 c 2,56,-1
 1006 343 l 1,57,-1
 1065 343 l 1,58,-1
 1037 163 l 2,59,60
 1035 151 1035 151 1029.5 111.5 c 128,-1,61
 1024 72 1024 72 1016 5 c 1,62,63
 958 3 958 3 895 1.5 c 128,-1,64
 832 0 832 0 763 0 c 0,65,66
 762 0 762 0 737 1.5 c 128,-1,67
 712 3 712 3 665.5 4.5 c 128,-1,68
 619 6 619 6 553 7.5 c 128,-1,69
 487 9 487 9 405 9 c 0,70,71
 370 9 370 9 306 8 c 128,-1,72
 242 7 242 7 148 5 c 0,73,74
 116 4 116 4 90.5 3 c 128,-1,75
 65 2 65 2 45 0 c 1,0,-1
EndSplineSet
Substitution2: "<17001,16003> Urdu lookup 95 subtable" L
EndChar

StartChar: M
Encoding: 77 77 48
AltUni2: 00216f.ffffffff.0
Width: 1933
GlyphClass: 2
Flags: W
LayerCount: 2
Fore
SplineSet
-30 0 m 1,0,-1
 -30 66 l 1,1,2
 13 69 13 69 39 72.5 c 128,-1,3
 65 76 65 76 80 82 c 128,-1,4
 95 88 95 88 102.5 97 c 128,-1,5
 110 106 110 106 116 119 c 0,6,7
 132 151 132 151 159.5 234 c 128,-1,8
 187 317 187 317 229 456 c 0,9,10
 230 460 230 460 238 487.5 c 128,-1,11
 246 515 246 515 257 555.5 c 128,-1,12
 268 596 268 596 281.5 644 c 128,-1,13
 295 692 295 692 308 738.5 c 128,-1,14
 321 785 321 785 332 824 c 128,-1,15
 343 863 343 863 349 884 c 0,16,17
 400 1063 400 1063 425 1160 c 128,-1,18
 450 1257 450 1257 449 1274 c 1,19,20
 449 1294 449 1294 441 1309 c 128,-1,21
 433 1324 433 1324 410.5 1334 c 128,-1,22
 388 1344 388 1344 349 1349.5 c 128,-1,23
 310 1355 310 1355 247 1356 c 1,24,-1
 258 1419 l 1,25,26
 330 1417 330 1417 379.5 1415.5 c 128,-1,27
 429 1414 429 1414 456 1414 c 0,28,29
 491 1414 491 1414 526.5 1415.5 c 128,-1,30
 562 1417 562 1417 598 1419 c 1,31,-1
 904 241 l 1,32,-1
 1375 1055 l 2,33,34
 1407 1109 1407 1109 1431.5 1153.5 c 128,-1,35
 1456 1198 1456 1198 1476 1235 c 2,36,-1
 1572 1419 l 1,37,38
 1617 1414 1617 1414 1661 1411.5 c 128,-1,39
 1705 1409 1705 1409 1750 1409 c 0,40,41
 1793 1409 1793 1409 1833.5 1411.5 c 128,-1,42
 1874 1414 1874 1414 1912 1419 c 1,43,-1
 1912 1361 l 1,44,-1
 1800 1347 l 2,45,46
 1776 1344 1776 1344 1765.5 1335 c 128,-1,47
 1755 1326 1755 1326 1750 1314 c 0,48,49
 1746 1305 1746 1305 1741 1275.5 c 128,-1,50
 1736 1246 1736 1246 1731 1204 c 128,-1,51
 1726 1162 1726 1162 1721 1111.5 c 128,-1,52
 1716 1061 1716 1061 1711 1010 c 128,-1,53
 1706 959 1706 959 1702.5 911.5 c 128,-1,54
 1699 864 1699 864 1696 828 c 2,55,-1
 1656 236 l 2,56,57
 1654 210 1654 210 1653 191.5 c 128,-1,58
 1652 173 1652 173 1652 162 c 0,59,60
 1652 132 1652 132 1658 114 c 128,-1,61
 1664 96 1664 96 1683 86 c 128,-1,62
 1702 76 1702 76 1739 72 c 128,-1,63
 1776 68 1776 68 1837 66 c 1,64,-1
 1831 0 l 1,65,66
 1762 5 1762 5 1698.5 7.5 c 128,-1,67
 1635 10 1635 10 1574 10 c 0,68,69
 1510 10 1510 10 1440 7.5 c 128,-1,70
 1370 5 1370 5 1294 0 c 1,71,-1
 1294 66 l 1,72,73
 1342 67 1342 67 1374 68.5 c 128,-1,74
 1406 70 1406 70 1426.5 74.5 c 128,-1,75
 1447 79 1447 79 1458.5 87.5 c 128,-1,76
 1470 96 1470 96 1476 111 c 0,77,78
 1484 131 1484 131 1490.5 169 c 128,-1,79
 1497 207 1497 207 1501 264 c 2,80,-1
 1567 1193 l 1,81,82
 1539 1150 1539 1150 1505 1095 c 128,-1,83
 1471 1040 1471 1040 1431 971 c 0,84,85
 1425 960 1425 960 1408.5 932 c 128,-1,86
 1392 904 1392 904 1368.5 864 c 128,-1,87
 1345 824 1345 824 1317.5 776 c 128,-1,88
 1290 728 1290 728 1260.5 678 c 128,-1,89
 1231 628 1231 628 1202.5 578.5 c 128,-1,90
 1174 529 1174 529 1149 486 c 128,-1,91
 1124 443 1124 443 1105.5 410.5 c 128,-1,92
 1087 378 1087 378 1077 361 c 0,93,94
 1056 325 1056 325 1033 283 c 128,-1,95
 1010 241 1010 241 987 199 c 128,-1,96
 964 157 964 157 943 118 c 128,-1,97
 922 79 922 79 905 47.5 c 128,-1,98
 888 16 888 16 877 -4.5 c 128,-1,99
 866 -25 866 -25 863 -30 c 1,100,-1
 817 -30 l 1,101,-1
 513 1138 l 1,102,103
 499 1091 499 1091 480.5 1025 c 128,-1,104
 462 959 462 959 441 883.5 c 128,-1,105
 420 808 420 808 397.5 726 c 128,-1,106
 375 644 375 644 353.5 564.5 c 128,-1,107
 332 485 332 485 312.5 411.5 c 128,-1,108
 293 338 293 338 279 279 c 128,-1,109
 265 220 265 220 256.5 179.5 c 128,-1,110
 248 139 248 139 248 125 c 0,111,112
 248 90 248 90 278 78 c 0,113,114
 289 74 289 74 325.5 71.5 c 128,-1,115
 362 69 362 69 425 66 c 1,116,-1
 420 0 l 1,117,-1
 307 5 l 2,118,119
 258 7 258 7 226.5 7.5 c 128,-1,120
 195 8 195 8 179 8 c 0,121,122
 156 8 156 8 103.5 6 c 128,-1,123
 51 4 51 4 -30 0 c 1,0,-1
EndSplineSet
Substitution2: "<17001,16003> Urdu lookup 95 subtable" M
EndChar

StartChar: N
Encoding: 78 78 49
Width: 1593
GlyphClass: 2
Flags: W
LayerCount: 2
Fore
SplineSet
12 0 m 1,0,-1
 12 59 l 1,1,2
 66 61 66 61 94.5 64 c 128,-1,3
 123 67 123 67 137 73 c 128,-1,4
 151 79 151 79 155.5 88 c 128,-1,5
 160 97 160 97 166 111 c 0,6,7
 178 139 178 139 204.5 257.5 c 128,-1,8
 231 376 231 376 269 588 c 0,9,10
 365 1110 365 1110 383 1248 c 1,11,12
 363 1278 363 1278 349 1295.5 c 128,-1,13
 335 1313 335 1313 323 1323 c 128,-1,14
 311 1333 311 1333 299.5 1337.5 c 128,-1,15
 288 1342 288 1342 274 1346 c 0,16,17
 246 1354 246 1354 157 1358 c 1,18,-1
 157 1412 l 1,19,20
 261 1406 261 1406 338 1406 c 0,21,22
 416 1406 416 1406 489 1412 c 1,23,-1
 555 1290 l 1,24,-1
 626 1164 l 1,25,-1
 1186 220 l 1,26,-1
 1304 910 l 2,27,28
 1312 959 1312 959 1322 1016.5 c 128,-1,29
 1332 1074 1332 1074 1340.5 1128.5 c 128,-1,30
 1349 1183 1349 1183 1355 1229 c 128,-1,31
 1361 1275 1361 1275 1361 1300 c 0,32,33
 1361 1332 1361 1332 1334 1342 c 0,34,35
 1316 1349 1316 1349 1196 1358 c 1,36,-1
 1196 1412 l 1,37,38
 1312 1409 1312 1409 1432 1409 c 0,39,40
 1544 1409 1544 1409 1638 1412 c 1,41,-1
 1633 1358 l 1,42,43
 1590 1356 1590 1356 1563.5 1353 c 128,-1,44
 1537 1350 1537 1350 1522 1346 c 128,-1,45
 1507 1342 1507 1342 1500 1336 c 128,-1,46
 1493 1330 1493 1330 1488 1322 c 0,47,48
 1483 1312 1483 1312 1472 1264 c 128,-1,49
 1461 1216 1461 1216 1443 1128 c 2,50,-1
 1369 763 l 1,51,52
 1321 507 1321 507 1289.5 314 c 128,-1,53
 1258 121 1258 121 1241 -19 c 1,54,-1
 1139 -19 l 1,55,56
 1135 -10 1135 -10 1130 0.5 c 128,-1,57
 1125 11 1125 11 1113.5 33 c 128,-1,58
 1102 55 1102 55 1081 92.5 c 128,-1,59
 1060 130 1060 130 1023 192 c 2,60,-1
 455 1152 l 1,61,-1
 356 614 l 2,62,63
 355 610 355 610 346 547.5 c 128,-1,64
 337 485 337 485 317 362 c 0,65,66
 308 308 308 308 302.5 269 c 128,-1,67
 297 230 297 230 293.5 202.5 c 128,-1,68
 290 175 290 175 289 158 c 128,-1,69
 288 141 288 141 288 131 c 0,70,71
 288 107 288 107 291 94 c 128,-1,72
 294 81 294 81 311 74 c 128,-1,73
 328 67 328 67 363.5 64.5 c 128,-1,74
 399 62 399 62 464 59 c 1,75,-1
 462 0 l 1,76,77
 377 4 377 4 321 5.5 c 128,-1,78
 265 7 265 7 236 7 c 0,79,80
 206 7 206 7 150 5.5 c 128,-1,81
 94 4 94 4 12 0 c 1,0,-1
EndSplineSet
Substitution2: "<17001,16003> Urdu lookup 95 subtable" N
EndChar

StartChar: O
Encoding: 79 79 50
Width: 1593
GlyphClass: 2
Flags: W
LayerCount: 2
Fore
SplineSet
120 550 m 0,0,1
 120 921 120 921 349 1183 c 0,2,3
 580 1448 580 1448 948 1448 c 0,4,5
 1095 1448 1095 1448 1213 1406 c 0,6,7
 1301 1375 1301 1375 1368.5 1312.5 c 128,-1,8
 1436 1250 1436 1250 1473 1177 c 0,9,10
 1500 1123 1500 1123 1516.5 1048.5 c 128,-1,11
 1533 974 1533 974 1533 886 c 0,12,13
 1533 629 1533 629 1409 403 c 1,14,15
 1286 176 1286 176 1094 71 c 0,16,17
 903 -33 903 -33 684 -33 c 0,18,19
 544 -33 544 -33 432 9 c 128,-1,20
 320 51 320 51 249 130 c 0,21,22
 215 169 215 169 190.5 217 c 128,-1,23
 166 265 166 265 150.5 319 c 128,-1,24
 135 373 135 373 127.5 431.5 c 128,-1,25
 120 490 120 490 120 550 c 0,0,1
299 561 m 0,26,27
 299 432 299 432 329.5 337 c 128,-1,28
 360 242 360 242 417.5 179.5 c 128,-1,29
 475 117 475 117 559.5 86 c 128,-1,30
 644 55 644 55 752 55 c 0,31,32
 867 55 867 55 975 96 c 0,33,34
 1081 137 1081 137 1167.5 248.5 c 128,-1,35
 1254 360 1254 360 1308 554 c 0,36,37
 1332 639 1332 639 1342.5 720.5 c 128,-1,38
 1353 802 1353 802 1353 883 c 0,39,40
 1353 1004 1353 1004 1320 1094.5 c 128,-1,41
 1287 1185 1287 1185 1226 1245.5 c 128,-1,42
 1165 1306 1165 1306 1080.5 1336.5 c 128,-1,43
 996 1367 996 1367 892 1368 c 1,44,45
 764 1368 764 1368 660 1322 c 0,46,47
 581 1288 581 1288 522.5 1229 c 128,-1,48
 464 1170 464 1170 413 1072 c 0,49,50
 362 975 362 975 330.5 845 c 128,-1,51
 299 715 299 715 299 561 c 0,26,27
EndSplineSet
Substitution2: "<17001,16003> Urdu lookup 95 subtable" O
EndChar

StartChar: P
Encoding: 80 80 51
Width: 1251
GlyphClass: 2
Flags: W
LayerCount: 2
Fore
SplineSet
28 0 m 1,0,-1
 28 64 l 1,1,2
 150 71 150 71 165 78 c 1,3,4
 175 84 175 84 182.5 91.5 c 128,-1,5
 190 99 190 99 199 124.5 c 128,-1,6
 208 150 208 150 219 200.5 c 128,-1,7
 230 251 230 251 247 341 c 0,8,9
 248 345 248 345 253.5 378 c 128,-1,10
 259 411 259 411 268 461.5 c 128,-1,11
 277 512 277 512 287 572.5 c 128,-1,12
 297 633 297 633 307 691.5 c 128,-1,13
 317 750 317 750 325.5 800 c 128,-1,14
 334 850 334 850 339 878 c 0,15,16
 371 1064 371 1064 386 1169 c 128,-1,17
 401 1274 401 1274 401 1300 c 0,18,19
 401 1319 401 1319 394.5 1331 c 128,-1,20
 388 1343 388 1343 368.5 1350 c 128,-1,21
 349 1357 349 1357 313 1360 c 128,-1,22
 277 1363 277 1363 218 1364 c 1,23,-1
 222 1419 l 1,24,25
 225 1419 225 1419 262.5 1418 c 128,-1,26
 300 1417 300 1417 372 1415 c 0,27,28
 380 1415 380 1415 401 1414.5 c 128,-1,29
 422 1414 422 1414 445.5 1414 c 128,-1,30
 469 1414 469 1414 489.5 1413.5 c 128,-1,31
 510 1413 510 1413 516 1413 c 0,32,33
 560 1413 560 1413 609.5 1414 c 128,-1,34
 659 1415 659 1415 704 1416 c 128,-1,35
 749 1417 749 1417 785 1418 c 128,-1,36
 821 1419 821 1419 838 1419 c 0,37,38
 913 1419 913 1419 965.5 1411.5 c 128,-1,39
 1018 1404 1018 1404 1056 1387.5 c 128,-1,40
 1094 1371 1094 1371 1119.5 1344.5 c 128,-1,41
 1145 1318 1145 1318 1166 1281 c 0,42,43
 1188 1243 1188 1243 1200 1202.5 c 128,-1,44
 1212 1162 1212 1162 1211 1117 c 1,45,46
 1211 1020 1211 1020 1172 922 c 0,47,48
 1133 825 1133 825 1069 754.5 c 128,-1,49
 1005 684 1005 684 936 647 c 0,50,51
 841 597 841 597 731 597 c 0,52,53
 678 597 678 597 636 608.5 c 128,-1,54
 594 620 594 620 549 645 c 1,55,-1
 549 708 l 1,56,57
 617 667 617 667 700 667 c 0,58,59
 763 667 763 667 822.5 694.5 c 128,-1,60
 882 722 882 722 928.5 774 c 128,-1,61
 975 826 975 826 1003 899.5 c 128,-1,62
 1031 973 1031 973 1031 1065 c 0,63,64
 1031 1198 1031 1198 960.5 1271 c 128,-1,65
 890 1344 890 1344 732 1344 c 0,66,67
 701 1344 701 1344 663.5 1339.5 c 128,-1,68
 626 1335 626 1335 581 1327 c 1,69,-1
 514 964 l 1,70,-1
 421 444 l 1,71,72
 405 347 405 347 395.5 289 c 128,-1,73
 386 231 386 231 382 198.5 c 128,-1,74
 378 166 378 166 377 153.5 c 128,-1,75
 376 141 376 141 376 133 c 0,76,77
 376 111 376 111 381 98 c 128,-1,78
 386 85 386 85 406 77.5 c 128,-1,79
 426 70 426 70 467.5 66 c 128,-1,80
 509 62 509 62 581 59 c 1,81,-1
 581 0 l 1,82,83
 503 4 503 4 440 5.5 c 128,-1,84
 377 7 377 7 328 7 c 0,85,86
 312 7 312 7 238 5.5 c 128,-1,87
 164 4 164 4 28 0 c 1,0,-1
EndSplineSet
Substitution2: "<17001,16003> Urdu lookup 95 subtable" P
EndChar

StartChar: Q
Encoding: 81 81 52
Width: 1593
GlyphClass: 2
Flags: W
LayerCount: 2
Fore
SplineSet
121 552 m 0,0,1
 121 690 121 690 154.5 819.5 c 128,-1,2
 188 949 188 949 260 1064 c 0,3,4
 332 1180 332 1180 422 1259 c 256,5,6
 512 1338 512 1338 640 1391 c 0,7,8
 709 1419 709 1419 787 1431.5 c 128,-1,9
 865 1444 865 1444 958 1444 c 0,10,11
 1059 1444 1059 1444 1144.5 1421.5 c 128,-1,12
 1230 1399 1230 1399 1297 1359.5 c 128,-1,13
 1364 1320 1364 1320 1411 1267 c 128,-1,14
 1458 1214 1458 1214 1483 1153 c 1,15,16
 1531 1044 1531 1044 1531 886 c 0,17,18
 1531 627 1531 627 1410 404 c 1,19,20
 1290 180 1290 180 1096 72 c 0,21,22
 902 -35 902 -35 683 -35 c 0,23,24
 542 -35 542 -35 429 8 c 0,25,26
 316 52 316 52 249 129 c 1,27,28
 183 207 183 207 152 318 c 0,29,30
 121 427 121 427 121 552 c 0,0,1
299 552 m 0,31,32
 299 422 299 422 330.5 327.5 c 128,-1,33
 362 233 362 233 421 171.5 c 128,-1,34
 480 110 480 110 563.5 80.5 c 128,-1,35
 647 51 647 51 752 51 c 0,36,37
 949 51 949 51 1080 155 c 256,38,39
 1211 259 1211 259 1281 465 c 0,40,41
 1352 673 1352 673 1352 873 c 0,42,43
 1352 1003 1352 1003 1317 1096 c 128,-1,44
 1282 1189 1282 1189 1220 1248.5 c 128,-1,45
 1158 1308 1158 1308 1073 1336 c 128,-1,46
 988 1364 988 1364 889 1364 c 0,47,48
 786 1364 786 1364 702 1333 c 128,-1,49
 618 1302 618 1302 552.5 1247 c 128,-1,50
 487 1192 487 1192 439.5 1116 c 128,-1,51
 392 1040 392 1040 360.5 949.5 c 128,-1,52
 329 859 329 859 314 758 c 128,-1,53
 299 657 299 657 299 552 c 0,31,32
320 -350 m 1,54,-1
 270 -321 l 1,55,56
 269 -310 269 -310 269 -302 c 128,-1,57
 269 -294 269 -294 269 -289 c 0,58,59
 269 -233 269 -233 286.5 -185.5 c 128,-1,60
 304 -138 304 -138 336.5 -103 c 128,-1,61
 369 -68 369 -68 414.5 -48 c 128,-1,62
 460 -28 460 -28 517 -28 c 0,63,64
 539 -28 539 -28 561 -31 c 128,-1,65
 583 -34 583 -34 606 -39 c 256,66,67
 629 -44 629 -44 680 -65 c 128,-1,68
 731 -86 731 -86 812 -121 c 1,69,70
 1157 -284 1157 -284 1271 -284 c 0,71,72
 1295 -284 1295 -284 1315.5 -276 c 128,-1,73
 1336 -268 1336 -268 1352.5 -249 c 128,-1,74
 1369 -230 1369 -230 1381.5 -199 c 128,-1,75
 1394 -168 1394 -168 1401 -122 c 1,76,-1
 1451 -122 l 1,77,78
 1446 -198 1446 -198 1426 -252.5 c 128,-1,79
 1406 -307 1406 -307 1375 -342 c 128,-1,80
 1344 -377 1344 -377 1305 -393.5 c 128,-1,81
 1266 -410 1266 -410 1223 -410 c 0,82,83
 1197 -410 1197 -410 1173 -407 c 128,-1,84
 1149 -404 1149 -404 1125 -397 c 128,-1,85
 1101 -390 1101 -390 1074 -380 c 128,-1,86
 1047 -370 1047 -370 1015 -356 c 0,87,88
 1009 -354 1009 -354 979 -338 c 128,-1,89
 949 -322 949 -322 905.5 -299 c 128,-1,90
 862 -276 862 -276 811 -249.5 c 128,-1,91
 760 -223 760 -223 712 -199 c 128,-1,92
 664 -175 664 -175 625 -156.5 c 128,-1,93
 586 -138 586 -138 567 -131 c 0,94,95
 547 -123 547 -123 526 -120 c 128,-1,96
 505 -117 505 -117 485 -117 c 0,97,98
 409 -117 409 -117 364 -168.5 c 128,-1,99
 319 -220 319 -220 319 -320 c 0,100,101
 319 -325 319 -325 319 -332.5 c 128,-1,102
 319 -340 319 -340 320 -350 c 1,54,-1
EndSplineSet
Substitution2: "<17001,16003> Urdu lookup 95 subtable" Q
EndChar

StartChar: R
Encoding: 82 82 53
Width: 1366
GlyphClass: 2
Flags: W
LayerCount: 2
Fore
SplineSet
27 0 m 1,0,-1
 27 60 l 1,1,2
 80 62 80 62 109.5 65 c 128,-1,3
 139 68 139 68 154 71 c 128,-1,4
 169 74 169 74 174.5 78 c 128,-1,5
 180 82 180 82 184 87 c 0,6,7
 192 96 192 96 201 124 c 128,-1,8
 210 152 210 152 221.5 203 c 128,-1,9
 233 254 233 254 247.5 332 c 128,-1,10
 262 410 262 410 281 520 c 0,11,12
 284 534 284 534 289.5 565.5 c 128,-1,13
 295 597 295 597 302 637 c 128,-1,14
 309 677 309 677 316.5 721.5 c 128,-1,15
 324 766 324 766 331 805 c 128,-1,16
 338 844 338 844 343 873 c 128,-1,17
 348 902 348 902 350 912 c 0,18,19
 404 1242 404 1242 404 1286 c 0,20,21
 404 1307 404 1307 401 1319.5 c 128,-1,22
 398 1332 398 1332 381 1340 c 128,-1,23
 364 1348 364 1348 326 1352.5 c 128,-1,24
 288 1357 288 1357 217 1361 c 1,25,-1
 224 1419 l 1,26,-1
 529 1419 l 1,27,-1
 793 1420 l 2,28,29
 887 1420 887 1420 960.5 1406.5 c 128,-1,30
 1034 1393 1034 1393 1085 1361 c 128,-1,31
 1136 1329 1136 1329 1163.5 1277 c 128,-1,32
 1191 1225 1191 1225 1193 1148 c 1,33,34
 1193 1088 1193 1088 1173 1032.5 c 128,-1,35
 1153 977 1153 977 1118.5 929 c 128,-1,36
 1084 881 1084 881 1036.5 843 c 128,-1,37
 989 805 989 805 933 781 c 0,38,39
 899 766 899 766 855 753 c 128,-1,40
 811 740 811 740 756 732 c 1,41,-1
 885 544 l 2,42,43
 903 517 903 517 931 475 c 128,-1,44
 959 433 959 433 991.5 385 c 128,-1,45
 1024 337 1024 337 1058 288 c 128,-1,46
 1092 239 1092 239 1121.5 197 c 128,-1,47
 1151 155 1151 155 1174 125 c 128,-1,48
 1197 95 1197 95 1207 86 c 0,49,50
 1224 70 1224 70 1245 62.5 c 128,-1,51
 1266 55 1266 55 1304 55 c 1,52,-1
 1304 0 l 1,53,-1
 1166 0 l 1,54,-1
 1035 0 l 1,55,-1
 886 250 l 2,56,57
 885 252 885 252 864.5 283.5 c 128,-1,58
 844 315 844 315 813 363 c 128,-1,59
 782 411 782 411 743.5 469 c 128,-1,60
 705 527 705 527 668 582 c 128,-1,61
 631 637 631 637 599 683 c 128,-1,62
 567 729 567 729 549 754 c 1,63,-1
 559 778 l 1,64,65
 595 776 595 776 615.5 775 c 128,-1,66
 636 774 636 774 641 774 c 0,67,68
 721 774 721 774 789.5 800.5 c 128,-1,69
 858 827 858 827 908 873.5 c 128,-1,70
 958 920 958 920 986.5 982 c 128,-1,71
 1015 1044 1015 1044 1015 1115 c 0,72,73
 1015 1222 1015 1222 949 1281.5 c 128,-1,74
 883 1341 883 1341 743 1341 c 0,75,76
 658 1341 658 1341 588 1327 c 1,77,78
 587 1323 587 1323 581.5 1292 c 128,-1,79
 576 1261 576 1261 567 1212 c 128,-1,80
 558 1163 558 1163 547 1101.5 c 128,-1,81
 536 1040 536 1040 524 974.5 c 128,-1,82
 512 909 512 909 500.5 845.5 c 128,-1,83
 489 782 489 782 479.5 729.5 c 128,-1,84
 470 677 470 677 463.5 640.5 c 128,-1,85
 457 604 457 604 455 593 c 0,86,87
 426 434 426 434 411 340.5 c 128,-1,88
 396 247 396 247 390 213 c 1,89,90
 386 179 386 179 384 155 c 128,-1,91
 382 131 382 131 382 115 c 256,92,93
 382 99 382 99 387.5 88.5 c 128,-1,94
 393 78 393 78 411.5 72 c 128,-1,95
 430 66 430 66 465 63.5 c 128,-1,96
 500 61 500 61 559 60 c 1,97,-1
 559 0 l 1,98,99
 468 4 468 4 398 6 c 128,-1,100
 328 8 328 8 277 8 c 0,101,102
 222 8 222 8 159.5 6 c 128,-1,103
 97 4 97 4 27 0 c 1,0,-1
EndSplineSet
Substitution2: "<17001,16003> Urdu lookup 95 subtable" R
EndChar

StartChar: S
Encoding: 83 83 54
Width: 1139
GlyphClass: 2
Flags: W
LayerCount: 2
Fore
SplineSet
105 46 m 1,0,1
 115 86 115 86 123 122 c 128,-1,2
 131 158 131 158 136 192 c 0,3,4
 142 226 142 226 147.5 266.5 c 128,-1,5
 153 307 153 307 157 355 c 1,6,-1
 215 355 l 1,7,-1
 219 155 l 1,8,9
 254 128 254 128 286 110 c 128,-1,10
 318 92 318 92 350.5 81.5 c 128,-1,11
 383 71 383 71 416.5 67 c 128,-1,12
 450 63 450 63 489 63 c 0,13,14
 673 63 673 63 758 168 c 1,15,16
 845 273 845 273 845 398 c 0,17,18
 845 458 845 458 829 496.5 c 128,-1,19
 813 535 813 535 780 560.5 c 128,-1,20
 747 586 747 586 697.5 602 c 128,-1,21
 648 618 648 618 582 633 c 0,22,23
 438 666 438 666 372 701 c 1,24,25
 309 736 309 736 274.5 802 c 128,-1,26
 240 868 240 868 240 964 c 256,27,28
 240 1060 240 1060 281 1146.5 c 128,-1,29
 322 1233 322 1233 395 1298.5 c 128,-1,30
 468 1364 468 1364 569.5 1403 c 128,-1,31
 671 1442 671 1442 791 1442 c 0,32,33
 830 1442 830 1442 863.5 1438.5 c 128,-1,34
 897 1435 897 1435 927 1427 c 128,-1,35
 957 1419 957 1419 986 1406.5 c 128,-1,36
 1015 1394 1015 1394 1045 1376 c 1,37,38
 1038 1348 1038 1348 1032 1320.5 c 128,-1,39
 1026 1293 1026 1293 1021 1267 c 256,40,41
 1016 1241 1016 1241 1010.5 1199 c 128,-1,42
 1005 1157 1005 1157 997 1099 c 1,43,-1
 938 1099 l 1,44,-1
 938 1254 l 1,45,46
 860 1346 860 1346 709 1346 c 0,47,48
 633 1346 633 1346 572.5 1321.5 c 128,-1,49
 512 1297 512 1297 471 1254.5 c 128,-1,50
 430 1212 430 1212 408 1155.5 c 128,-1,51
 386 1099 386 1099 386 1035 c 0,52,53
 386 963 386 963 413 912.5 c 128,-1,54
 440 862 440 862 489 836 c 0,55,56
 502 830 502 830 530.5 820.5 c 128,-1,57
 559 811 559 811 596 801 c 128,-1,58
 633 791 633 791 672.5 780.5 c 128,-1,59
 712 770 712 770 747 760.5 c 128,-1,60
 782 751 782 751 807 744 c 128,-1,61
 832 737 832 737 838 734 c 0,62,63
 928 697 928 697 966.5 632 c 128,-1,64
 1005 567 1005 567 1005 476 c 256,65,66
 1005 385 1005 385 973 310.5 c 128,-1,67
 941 236 941 236 877 167 c 0,68,69
 780 64 780 64 671 14.5 c 128,-1,70
 562 -35 562 -35 421 -35 c 0,71,72
 328 -35 328 -35 253 -15.5 c 128,-1,73
 178 4 178 4 105 46 c 1,0,1
EndSplineSet
Substitution2: "<17001,16003> Urdu lookup 95 subtable" S
EndChar

StartChar: T
Encoding: 84 84 55
Width: 1251
GlyphClass: 2
Flags: W
LayerCount: 2
Fore
SplineSet
228 0 m 1,0,-1
 233 61 l 1,1,2
 281 64 281 64 313.5 67 c 128,-1,3
 346 70 346 70 366.5 74.5 c 128,-1,4
 387 79 387 79 398 84.5 c 128,-1,5
 409 90 409 90 413 98 c 0,6,7
 423 115 423 115 437 173 c 128,-1,8
 451 231 451 231 468 315.5 c 128,-1,9
 485 400 485 400 503 503.5 c 128,-1,10
 521 607 521 607 538 714 c 128,-1,11
 555 821 555 821 571 924 c 128,-1,12
 587 1027 587 1027 599.5 1110.5 c 128,-1,13
 612 1194 612 1194 620 1251 c 128,-1,14
 628 1308 628 1308 630 1323 c 1,15,16
 606 1323 606 1323 571.5 1323 c 128,-1,17
 537 1323 537 1323 498.5 1323 c 128,-1,18
 460 1323 460 1323 420.5 1322 c 128,-1,19
 381 1321 381 1321 346.5 1319 c 128,-1,20
 312 1317 312 1317 286 1313 c 128,-1,21
 260 1309 260 1309 249 1303 c 0,22,23
 240 1298 240 1298 232 1285 c 128,-1,24
 224 1272 224 1272 215 1246.5 c 128,-1,25
 206 1221 206 1221 195.5 1181.5 c 128,-1,26
 185 1142 185 1142 171 1084 c 1,27,-1
 115 1084 l 1,28,29
 130 1212 130 1212 138.5 1294.5 c 128,-1,30
 147 1377 147 1377 149 1419 c 1,31,32
 155 1419 155 1419 181.5 1418 c 128,-1,33
 208 1417 208 1417 247.5 1416 c 128,-1,34
 287 1415 287 1415 336.5 1413.5 c 128,-1,35
 386 1412 386 1412 437 1411 c 128,-1,36
 488 1410 488 1410 537 1409 c 128,-1,37
 586 1408 586 1408 625.5 1407 c 128,-1,38
 665 1406 665 1406 691.5 1405.5 c 128,-1,39
 718 1405 718 1405 724 1405 c 0,40,41
 734 1405 734 1405 815 1406.5 c 128,-1,42
 896 1408 896 1408 1052 1410 c 0,43,44
 1062 1410 1062 1410 1083 1411 c 128,-1,45
 1104 1412 1104 1412 1130 1412.5 c 128,-1,46
 1156 1413 1156 1413 1184.5 1414 c 128,-1,47
 1213 1415 1213 1415 1237 1416 c 128,-1,48
 1261 1417 1261 1417 1278.5 1418 c 128,-1,49
 1296 1419 1296 1419 1300 1419 c 1,50,51
 1292 1383 1292 1383 1284.5 1350.5 c 128,-1,52
 1277 1318 1277 1318 1272 1289 c 0,53,54
 1269 1272 1269 1272 1262.5 1222 c 128,-1,55
 1256 1172 1256 1172 1244 1084 c 1,56,-1
 1188 1084 l 1,57,58
 1189 1127 1189 1127 1189.5 1152.5 c 128,-1,59
 1190 1178 1190 1178 1190 1187 c 0,60,61
 1190 1221 1190 1221 1189.5 1242 c 128,-1,62
 1189 1263 1189 1263 1187 1275.5 c 128,-1,63
 1185 1288 1185 1288 1181.5 1293.5 c 128,-1,64
 1178 1299 1178 1299 1172 1302 c 0,65,66
 1156 1310 1156 1310 1121 1312 c 0,67,68
 1046 1317 1046 1317 966 1320.5 c 128,-1,69
 886 1324 886 1324 801 1323 c 1,70,71
 795 1297 795 1297 787 1253.5 c 128,-1,72
 779 1210 779 1210 768 1147 c 2,73,-1
 669 587 l 1,74,75
 634 376 634 376 618 261.5 c 128,-1,76
 602 147 602 147 602 118 c 0,77,78
 602 94 602 94 612 84.5 c 128,-1,79
 622 75 622 75 657 70 c 0,80,81
 675 67 675 67 801 61 c 1,82,-1
 791 0 l 1,83,84
 685 4 685 4 614 5.5 c 128,-1,85
 543 7 543 7 501 7 c 0,86,87
 450 7 450 7 383 5.5 c 128,-1,88
 316 4 316 4 228 0 c 1,0,-1
EndSplineSet
Substitution2: "<17001,16003> Urdu lookup 95 subtable" T
EndChar

StartChar: U
Encoding: 85 85 56
Width: 1593
GlyphClass: 2
Flags: W
LayerCount: 2
Fore
SplineSet
1449 58 m 1,0,-1
 1440 0 l 1,1,2
 1371 4 1371 4 1317.5 6 c 128,-1,3
 1264 8 1264 8 1226 8 c 0,4,5
 1189 8 1189 8 1154 6 c 128,-1,6
 1119 4 1119 4 1085 0 c 1,7,-1
 1079 8 l 1,8,9
 1101 117 1101 117 1113.5 179.5 c 128,-1,10
 1126 242 1126 242 1130 262 c 1,11,12
 1010 131 1010 131 865 53 c 1,13,14
 719 -27 719 -27 578 -27 c 0,15,16
 496 -27 496 -27 428.5 -5 c 128,-1,17
 361 17 361 17 312.5 58 c 128,-1,18
 264 99 264 99 237.5 157 c 128,-1,19
 211 215 211 215 211 287 c 0,20,21
 211 339 211 339 217 390 c 0,22,23
 229 485 229 485 274 725 c 1,24,25
 319 972 319 972 340.5 1113.5 c 128,-1,26
 362 1255 362 1255 363 1297 c 0,27,28
 363 1316 363 1316 357.5 1328 c 128,-1,29
 352 1340 352 1340 334 1346.5 c 128,-1,30
 316 1353 316 1353 282 1356.5 c 128,-1,31
 248 1360 248 1360 191 1362 c 1,32,-1
 199 1419 l 1,33,34
 280 1417 280 1417 328.5 1415.5 c 128,-1,35
 377 1414 377 1414 394 1414 c 0,36,37
 426 1414 426 1414 468 1415.5 c 128,-1,38
 510 1417 510 1417 562 1419 c 1,39,-1
 499 1105 l 2,40,41
 472 970 472 970 450 844 c 128,-1,42
 428 718 428 718 407 594 c 0,43,44
 395 527 395 527 388 482 c 128,-1,45
 381 437 381 437 377.5 406.5 c 128,-1,46
 374 376 374 376 372.5 355 c 128,-1,47
 371 334 371 334 371 315 c 0,48,49
 371 267 371 267 390 225.5 c 128,-1,50
 409 184 409 184 445.5 153 c 128,-1,51
 482 122 482 122 535 104 c 128,-1,52
 588 86 588 86 657 86 c 0,53,54
 741 86 741 86 831 123 c 0,55,56
 878 142 878 142 919.5 166.5 c 128,-1,57
 961 191 961 191 999.5 221 c 128,-1,58
 1038 251 1038 251 1074.5 288 c 128,-1,59
 1111 325 1111 325 1148 368 c 1,60,-1
 1261 1060 l 2,61,62
 1294 1263 1294 1263 1294 1305 c 0,63,64
 1294 1321 1294 1321 1289.5 1331.5 c 128,-1,65
 1285 1342 1285 1342 1267 1348 c 128,-1,66
 1249 1354 1249 1354 1213 1357 c 128,-1,67
 1177 1360 1177 1360 1115 1362 c 1,68,-1
 1122 1419 l 1,69,70
 1197 1415 1197 1415 1261.5 1413.5 c 128,-1,71
 1326 1412 1326 1412 1386 1412 c 256,72,73
 1446 1412 1446 1412 1507.5 1413.5 c 128,-1,74
 1569 1415 1569 1415 1633 1419 c 1,75,-1
 1633 1362 l 1,76,77
 1580 1360 1580 1360 1550.5 1358 c 128,-1,78
 1521 1356 1521 1356 1505.5 1351 c 128,-1,79
 1490 1346 1490 1346 1484.5 1336 c 128,-1,80
 1479 1326 1479 1326 1474 1308 c 0,81,82
 1436 1180 1436 1180 1351 668 c 0,83,84
 1308 410 1308 410 1286.5 272 c 128,-1,85
 1265 134 1265 134 1265 112 c 0,86,87
 1265 94 1265 94 1272 83.5 c 128,-1,88
 1279 73 1279 73 1298.5 67.5 c 128,-1,89
 1318 62 1318 62 1354.5 60.5 c 128,-1,90
 1391 59 1391 59 1449 58 c 1,0,-1
EndSplineSet
Substitution2: "<17001,16003> Urdu lookup 95 subtable" U
EndChar

StartChar: V
Encoding: 86 86 57
Width: 1479
GlyphClass: 2
Flags: W
LayerCount: 2
Fore
SplineSet
522 -10 m 1,0,1
 521 2 521 2 514 54 c 128,-1,2
 507 106 507 106 496 184.5 c 128,-1,3
 485 263 485 263 471 360.5 c 128,-1,4
 457 458 457 458 442.5 561 c 128,-1,5
 428 664 428 664 413.5 764.5 c 128,-1,6
 399 865 399 865 386.5 950.5 c 128,-1,7
 374 1036 374 1036 365 1098.5 c 128,-1,8
 356 1161 356 1161 352 1187 c 0,9,10
 343 1246 343 1246 337.5 1277 c 128,-1,11
 332 1308 332 1308 327 1323 c 128,-1,12
 322 1338 322 1338 316.5 1342.5 c 128,-1,13
 311 1347 311 1347 302 1351 c 1,14,15
 294 1356 294 1356 261.5 1358.5 c 128,-1,16
 229 1361 229 1361 172 1364 c 1,17,-1
 172 1419 l 1,18,19
 238 1417 238 1417 295 1416 c 128,-1,20
 352 1415 352 1415 404 1415 c 0,21,22
 455 1415 455 1415 522 1416 c 128,-1,23
 589 1417 589 1417 677 1419 c 1,24,-1
 677 1364 l 1,25,26
 562 1363 562 1363 544 1358 c 0,27,28
 526 1354 526 1354 517 1342 c 128,-1,29
 508 1330 508 1330 508 1305 c 0,30,31
 508 1292 508 1292 511.5 1254.5 c 128,-1,32
 515 1217 515 1217 522 1154 c 0,33,34
 539 1002 539 1002 570.5 769.5 c 128,-1,35
 602 537 602 537 650 212 c 1,36,37
 683 267 683 267 767 404.5 c 128,-1,38
 851 542 851 542 989 768 c 0,39,40
 1111 968 1111 968 1236 1202 c 0,41,42
 1257 1241 1257 1241 1268.5 1264 c 128,-1,43
 1280 1287 1280 1287 1286 1300 c 128,-1,44
 1292 1313 1292 1313 1293 1319 c 128,-1,45
 1294 1325 1294 1325 1294 1330 c 0,46,47
 1294 1347 1294 1347 1280 1355 c 256,48,49
 1266 1363 1266 1363 1105 1364 c 1,50,-1
 1105 1419 l 1,51,52
 1156 1415 1156 1415 1212.5 1413.5 c 128,-1,53
 1269 1412 1269 1412 1332 1412 c 0,54,55
 1398 1412 1398 1412 1452 1413.5 c 128,-1,56
 1506 1415 1506 1415 1551 1419 c 1,57,-1
 1551 1364 l 1,58,59
 1526 1363 1526 1363 1508.5 1361 c 128,-1,60
 1491 1359 1491 1359 1479 1355.5 c 128,-1,61
 1467 1352 1467 1352 1459 1346.5 c 128,-1,62
 1451 1341 1451 1341 1444 1334 c 0,63,64
 1430 1320 1430 1320 1293 1097 c 2,65,-1
 906 471 l 2,66,67
 863 402 863 402 793.5 283.5 c 128,-1,68
 724 165 724 165 621 -10 c 1,69,-1
 522 -10 l 1,0,1
EndSplineSet
Substitution2: "<17001,16003> Urdu lookup 95 subtable" V
EndChar

StartChar: W
Encoding: 87 87 58
Width: 1933
GlyphClass: 2
Flags: W
LayerCount: 2
Fore
SplineSet
1124 1430 m 1,0,1
 1143 1342 1143 1342 1173.5 1219.5 c 128,-1,2
 1204 1097 1204 1097 1249 934 c 0,3,4
 1332 630 1332 630 1376.5 465 c 128,-1,5
 1421 300 1421 300 1430 270 c 1,6,7
 1431 271 1431 271 1443 300.5 c 128,-1,8
 1455 330 1455 330 1473 376 c 128,-1,9
 1491 422 1491 422 1513.5 478 c 128,-1,10
 1536 534 1536 534 1558 589 c 128,-1,11
 1580 644 1580 644 1599.5 692 c 128,-1,12
 1619 740 1619 740 1630 769 c 0,13,14
 1680 895 1680 895 1717.5 995 c 128,-1,15
 1755 1095 1755 1095 1785 1176 c 0,16,17
 1808 1238 1808 1238 1817 1269.5 c 128,-1,18
 1826 1301 1826 1301 1826 1316 c 0,19,20
 1826 1333 1826 1333 1808 1343 c 0,21,22
 1800 1348 1800 1348 1763 1352 c 128,-1,23
 1726 1356 1726 1356 1659 1358 c 1,24,-1
 1672 1419 l 1,25,26
 1741 1415 1741 1415 1795.5 1413.5 c 128,-1,27
 1850 1412 1850 1412 1895 1412 c 256,28,29
 1940 1412 1940 1412 1987 1413.5 c 128,-1,30
 2034 1415 2034 1415 2083 1419 c 1,31,-1
 2071 1358 l 1,32,33
 2038 1357 2038 1357 2019.5 1354.5 c 128,-1,34
 2001 1352 2001 1352 1990.5 1348 c 128,-1,35
 1980 1344 1980 1344 1974.5 1338 c 128,-1,36
 1969 1332 1969 1332 1962 1323 c 0,37,38
 1958 1318 1958 1318 1941.5 1281.5 c 128,-1,39
 1925 1245 1925 1245 1901 1188.5 c 128,-1,40
 1877 1132 1877 1132 1847 1060.5 c 128,-1,41
 1817 989 1817 989 1785.5 913 c 128,-1,42
 1754 837 1754 837 1723 762.5 c 128,-1,43
 1692 688 1692 688 1666 625 c 128,-1,44
 1640 562 1640 562 1621.5 516.5 c 128,-1,45
 1603 471 1603 471 1596 453 c 0,46,47
 1531 293 1531 293 1488.5 178 c 128,-1,48
 1446 63 1446 63 1424 -10 c 1,49,-1
 1325 -10 l 1,50,-1
 1288 168 l 2,51,52
 1285 181 1285 181 1274 224.5 c 128,-1,53
 1263 268 1263 268 1246.5 331 c 128,-1,54
 1230 394 1230 394 1209.5 472 c 128,-1,55
 1189 550 1189 550 1168 631 c 128,-1,56
 1147 712 1147 712 1126 791 c 128,-1,57
 1105 870 1105 870 1087.5 936.5 c 128,-1,58
 1070 1003 1070 1003 1057 1050.5 c 128,-1,59
 1044 1098 1044 1098 1039 1117 c 1,60,61
 1008 1059 1008 1059 897 846 c 128,-1,62
 786 633 786 633 596 264 c 0,63,64
 554 182 554 182 523.5 113.5 c 128,-1,65
 493 45 493 45 475 -10 c 1,66,-1
 373 -10 l 1,67,68
 370 74 370 74 356.5 238.5 c 128,-1,69
 343 403 343 403 316 651 c 2,70,-1
 267 1097 l 2,71,72
 257 1179 257 1179 250 1226.5 c 128,-1,73
 243 1274 243 1274 237.5 1298.5 c 128,-1,74
 232 1323 232 1323 226.5 1331.5 c 128,-1,75
 221 1340 221 1340 213 1344 c 0,76,77
 198 1353 198 1353 99 1358 c 1,78,-1
 112 1419 l 1,79,80
 167 1417 167 1417 220.5 1415.5 c 128,-1,81
 274 1414 274 1414 328 1414 c 0,82,83
 385 1414 385 1414 447.5 1415.5 c 128,-1,84
 510 1417 510 1417 582 1419 c 1,85,-1
 570 1358 l 1,86,87
 516 1357 516 1357 485.5 1354.5 c 128,-1,88
 455 1352 455 1352 439.5 1344.5 c 128,-1,89
 424 1337 424 1337 420 1322.5 c 128,-1,90
 416 1308 416 1308 416 1284 c 0,91,92
 416 1279 416 1279 417.5 1253.5 c 128,-1,93
 419 1228 419 1228 421.5 1190.5 c 128,-1,94
 424 1153 424 1153 427.5 1107.5 c 128,-1,95
 431 1062 431 1062 435 1014.5 c 128,-1,96
 439 967 439 967 443 922.5 c 128,-1,97
 447 878 447 878 451 844 c 0,98,99
 472 652 472 652 487 513.5 c 128,-1,100
 502 375 502 375 511 284 c 1,101,-1
 884 1012 l 2,102,103
 893 1030 893 1030 910 1064.5 c 128,-1,104
 927 1099 927 1099 947.5 1141.5 c 128,-1,105
 968 1184 968 1184 990 1230 c 128,-1,106
 1012 1276 1012 1276 1031 1316.5 c 128,-1,107
 1050 1357 1050 1357 1064.5 1387.5 c 128,-1,108
 1079 1418 1079 1418 1084 1430 c 1,109,-1
 1124 1430 l 1,0,1
EndSplineSet
Substitution2: "<17001,16003> Urdu lookup 95 subtable" W
EndChar

StartChar: X
Encoding: 88 88 59
Width: 1479
GlyphClass: 2
Flags: W
LayerCount: 2
Fore
SplineSet
32 0 m 1,0,-1
 32 60 l 1,1,2
 127 63 127 63 156 78 c 0,3,4
 187 94 187 94 324 257 c 1,5,6
 596 577 596 577 699 707 c 1,7,-1
 462 1149 l 2,8,9
 458 1157 458 1157 446 1179 c 128,-1,10
 434 1201 434 1201 420.5 1225.5 c 128,-1,11
 407 1250 407 1250 396.5 1269.5 c 128,-1,12
 386 1289 386 1289 385 1290 c 0,13,14
 376 1307 376 1307 368 1318 c 128,-1,15
 360 1329 360 1329 351.5 1335.5 c 128,-1,16
 343 1342 343 1342 333.5 1345.5 c 128,-1,17
 324 1349 324 1349 311 1352 c 256,18,19
 298 1355 298 1355 267 1358 c 128,-1,20
 236 1361 236 1361 185 1363 c 1,21,-1
 185 1419 l 1,22,23
 243 1417 243 1417 307 1415.5 c 128,-1,24
 371 1414 371 1414 443 1414 c 0,25,26
 528 1414 528 1414 598 1415.5 c 128,-1,27
 668 1417 668 1417 725 1419 c 1,28,-1
 725 1363 l 1,29,30
 671 1362 671 1362 639.5 1361 c 128,-1,31
 608 1360 608 1360 597 1358 c 0,32,33
 577 1354 577 1354 569 1345 c 128,-1,34
 561 1336 561 1336 561 1325 c 0,35,36
 561 1318 561 1318 565 1305.5 c 128,-1,37
 569 1293 569 1293 579 1272 c 128,-1,38
 589 1251 589 1251 604.5 1220.5 c 128,-1,39
 620 1190 620 1190 642 1146 c 2,40,-1
 801 831 l 1,41,-1
 1033 1121 l 2,42,43
 1077 1177 1077 1177 1105 1213 c 128,-1,44
 1133 1249 1133 1249 1149 1271.5 c 128,-1,45
 1165 1294 1165 1294 1170.5 1305.5 c 128,-1,46
 1176 1317 1176 1317 1176 1324 c 0,47,48
 1176 1334 1176 1334 1171 1340.5 c 128,-1,49
 1166 1347 1166 1347 1149 1351.5 c 128,-1,50
 1132 1356 1132 1356 1100 1358.5 c 128,-1,51
 1068 1361 1068 1361 1014 1363 c 1,52,-1
 1014 1419 l 1,53,54
 1099 1417 1099 1417 1162 1416 c 128,-1,55
 1225 1415 1225 1415 1268 1415 c 0,56,57
 1316 1415 1316 1415 1368 1416 c 128,-1,58
 1420 1417 1420 1417 1480 1419 c 1,59,-1
 1480 1363 l 1,60,61
 1449 1362 1449 1362 1428 1360.5 c 128,-1,62
 1407 1359 1407 1359 1392 1355.5 c 128,-1,63
 1377 1352 1377 1352 1365.5 1346 c 128,-1,64
 1354 1340 1354 1340 1342 1330 c 0,65,66
 1333 1322 1333 1322 1307.5 1295 c 128,-1,67
 1282 1268 1282 1268 1249 1231 c 128,-1,68
 1216 1194 1216 1194 1178.5 1151.5 c 128,-1,69
 1141 1109 1141 1109 1108 1071 c 128,-1,70
 1075 1033 1075 1033 1049.5 1003.5 c 128,-1,71
 1024 974 1024 974 1014 962 c 2,72,-1
 844 756 l 1,73,-1
 1164 175 l 2,74,75
 1182 144 1182 144 1192.5 124.5 c 128,-1,76
 1203 105 1203 105 1213.5 94 c 128,-1,77
 1224 83 1224 83 1236.5 77.5 c 128,-1,78
 1249 72 1249 72 1270 68 c 1,79,-1
 1382 60 l 1,80,-1
 1382 0 l 1,81,-1
 1111 8 l 2,82,83
 1082 8 1082 8 1013 6 c 128,-1,84
 944 4 944 4 835 0 c 1,85,-1
 837 60 l 1,86,87
 890 61 890 61 923 63 c 128,-1,88
 956 65 956 65 975.5 69.5 c 128,-1,89
 995 74 995 74 1002 81.5 c 128,-1,90
 1009 89 1009 89 1009 100 c 0,91,92
 1009 105 1009 105 1006 116.5 c 128,-1,93
 1003 128 1003 128 995 144 c 0,94,95
 972 196 972 196 949.5 241 c 128,-1,96
 927 286 927 286 906 324 c 2,97,-1
 741 631 l 1,98,-1
 553 401 l 2,99,100
 517 358 517 358 480 311 c 128,-1,101
 443 264 443 264 413 222.5 c 128,-1,102
 383 181 383 181 364 149.5 c 128,-1,103
 345 118 345 118 345 105 c 0,104,105
 345 97 345 97 347 91 c 128,-1,106
 349 85 349 85 365.5 80 c 128,-1,107
 382 75 382 75 419 70 c 128,-1,108
 456 65 456 65 527 60 c 1,109,-1
 527 0 l 1,110,111
 415 4 415 4 345 6 c 128,-1,112
 275 8 275 8 244 8 c 0,113,114
 192 8 192 8 139.5 6 c 128,-1,115
 87 4 87 4 32 0 c 1,0,-1
EndSplineSet
Substitution2: "<17001,16003> Urdu lookup 95 subtable" X
EndChar

StartChar: Y
Encoding: 89 89 60
Width: 1366
GlyphClass: 2
Flags: W
LayerCount: 2
Fore
SplineSet
357 0 m 1,0,-1
 364 57 l 1,1,2
 489 63 489 63 503 67 c 0,3,4
 512 69 512 69 518.5 71.5 c 128,-1,5
 525 74 525 74 530 80 c 128,-1,6
 535 86 535 86 539.5 96 c 128,-1,7
 544 106 544 106 549 123 c 0,8,9
 555 145 555 145 562.5 177 c 128,-1,10
 570 209 570 209 578 247 c 128,-1,11
 586 285 586 285 593.5 325 c 128,-1,12
 601 365 601 365 606.5 402 c 128,-1,13
 612 439 612 439 615.5 470.5 c 128,-1,14
 619 502 619 502 619 522 c 0,15,16
 619 575 619 575 586 695 c 0,17,18
 535 881 535 881 484.5 1006.5 c 128,-1,19
 434 1132 434 1132 396 1189 c 256,20,21
 358 1246 358 1246 320 1268.5 c 128,-1,22
 282 1291 282 1291 246 1291 c 0,23,24
 204 1291 204 1291 154 1269 c 1,25,-1
 148 1319 l 1,26,27
 184 1343 184 1343 204 1356 c 128,-1,28
 224 1369 224 1369 235.5 1376.5 c 128,-1,29
 247 1384 247 1384 252.5 1388.5 c 128,-1,30
 258 1393 258 1393 264 1398 c 128,-1,31
 270 1403 270 1403 279.5 1411 c 128,-1,32
 289 1419 289 1419 308 1435 c 1,33,34
 339 1434 339 1434 366.5 1427 c 128,-1,35
 394 1420 394 1420 419.5 1405 c 128,-1,36
 445 1390 445 1390 469 1364.5 c 128,-1,37
 493 1339 493 1339 518 1300 c 1,38,39
 544 1262 544 1262 572.5 1197 c 128,-1,40
 601 1132 601 1132 632 1039 c 0,41,42
 664 946 664 946 692 848.5 c 128,-1,43
 720 751 720 751 744 642 c 1,44,45
 782 730 782 730 822 805 c 128,-1,46
 862 880 862 880 905 947 c 0,47,48
 934 992 934 992 966.5 1038 c 128,-1,49
 999 1084 999 1084 1037 1135 c 1,50,51
 1114 1235 1114 1235 1184 1298 c 128,-1,52
 1254 1361 1254 1361 1317 1391 c 0,53,54
 1338 1401 1338 1401 1362 1408 c 128,-1,55
 1386 1415 1386 1415 1412 1419 c 1,56,-1
 1400 1275 l 1,57,58
 1318 1262 1318 1262 1237 1206 c 0,59,60
 1155 1150 1155 1150 1055 1017 c 1,61,62
 989 932 989 932 939.5 853.5 c 128,-1,63
 890 775 890 775 855 700 c 0,64,65
 785 550 785 550 751 343 c 0,66,67
 734 237 734 237 725.5 180 c 128,-1,68
 717 123 717 123 717 112 c 0,69,70
 717 79 717 79 739 72 c 0,71,72
 754 68 754 68 901 57 c 1,73,-1
 892 0 l 1,74,75
 814 4 814 4 748 5.5 c 128,-1,76
 682 7 682 7 627 7 c 0,77,78
 573 7 573 7 506 5.5 c 128,-1,79
 439 4 439 4 357 0 c 1,0,-1
EndSplineSet
Substitution2: "<17001,16003> Urdu lookup 95 subtable" Y
EndChar

StartChar: Z
Encoding: 90 90 61
Width: 1366
GlyphClass: 2
Flags: W
LayerCount: 2
Fore
SplineSet
48 0 m 1,0,-1
 48 51 l 1,1,-1
 134 158 l 1,2,-1
 1065 1332 l 1,3,-1
 706 1332 l 2,4,5
 625 1332 625 1332 558 1329.5 c 128,-1,6
 491 1327 491 1327 434 1322 c 0,7,8
 409 1320 409 1320 384.5 1316 c 128,-1,9
 360 1312 360 1312 335 1305 c 1,10,11
 330 1289 330 1289 326.5 1280 c 128,-1,12
 323 1271 323 1271 320.5 1263.5 c 128,-1,13
 318 1256 318 1256 315.5 1246 c 128,-1,14
 313 1236 313 1236 309 1218 c 128,-1,15
 305 1200 305 1200 298.5 1170.5 c 128,-1,16
 292 1141 292 1141 281 1093 c 1,17,-1
 227 1093 l 1,18,19
 241 1182 241 1182 245 1247 c 0,20,21
 250 1312 250 1312 251 1419 c 1,22,-1
 652 1414 l 2,23,24
 671 1414 671 1414 703.5 1413.5 c 128,-1,25
 736 1413 736 1413 774 1412.5 c 128,-1,26
 812 1412 812 1412 851 1411.5 c 128,-1,27
 890 1411 890 1411 922.5 1410.5 c 128,-1,28
 955 1410 955 1410 976 1410 c 128,-1,29
 997 1410 997 1410 999 1410 c 0,30,31
 1136 1410 1136 1410 1299 1419 c 1,32,-1
 1299 1374 l 1,33,-1
 1164 1214 l 1,34,35
 1162 1210 1162 1210 1130 1170 c 128,-1,36
 1098 1130 1098 1130 1035 1052 c 2,37,-1
 504 386 l 2,38,39
 341 181 341 181 276 92 c 1,40,41
 311 91 311 91 377.5 91.5 c 128,-1,42
 444 92 444 92 541 90 c 2,43,-1
 711 88 l 1,44,-1
 746 88 l 2,45,46
 821 88 821 88 883.5 90.5 c 128,-1,47
 946 93 946 93 1000 98 c 0,48,49
 1026 100 1026 100 1052.5 105 c 128,-1,50
 1079 110 1079 110 1108 118 c 1,51,52
 1117 136 1117 136 1123.5 153 c 128,-1,53
 1130 170 1130 170 1137.5 194 c 128,-1,54
 1145 218 1145 218 1154.5 254 c 128,-1,55
 1164 290 1164 290 1179 345 c 1,56,-1
 1240 345 l 1,57,58
 1234 313 1234 313 1227 268 c 128,-1,59
 1220 223 1220 223 1212.5 175.5 c 128,-1,60
 1205 128 1205 128 1199 83.5 c 128,-1,61
 1193 39 1193 39 1189 8 c 1,62,63
 1147 5 1147 5 1111.5 2 c 128,-1,64
 1076 -1 1076 -1 1047 0 c 2,65,-1
 381 9 l 1,66,67
 213 9 213 9 48 0 c 1,0,-1
EndSplineSet
Substitution2: "<17001,16003> Urdu lookup 95 subtable" Z
EndChar

StartChar: bracketleft
Encoding: 91 91 62
Width: 669
GlyphClass: 2
Flags: W
LayerCount: 2
Fore
SplineSet
334 -398 m 1,0,-1
 323 -450 l 1,1,-1
 314 -450 l 1,2,3
 297 -451 297 -451 265 -451.5 c 128,-1,4
 233 -452 233 -452 194 -453 c 128,-1,5
 155 -454 155 -454 112.5 -455 c 128,-1,6
 70 -456 70 -456 31.5 -457 c 128,-1,7
 -7 -458 -7 -458 -38 -458.5 c 128,-1,8
 -69 -459 -69 -459 -85 -460 c 1,9,-1
 -95 -450 l 1,10,11
 -76 -381 -76 -381 -60 -315.5 c 128,-1,12
 -44 -250 -44 -250 -29 -184 c 256,13,14
 -14 -118 -14 -118 22.5 52 c 128,-1,15
 59 222 59 222 118 500 c 0,16,17
 234 1048 234 1048 274 1250 c 0,18,19
 289 1324 289 1324 305 1436 c 1,20,-1
 320 1451 l 1,21,22
 383 1449 383 1449 431 1447.5 c 128,-1,23
 479 1446 479 1446 513 1446 c 0,24,25
 544 1446 544 1446 594.5 1447.5 c 128,-1,26
 645 1449 645 1449 718 1451 c 1,27,-1
 725 1444 l 1,28,-1
 713 1387 l 1,29,-1
 707 1380 l 1,30,-1
 543 1368 l 2,31,32
 522 1366 522 1366 509 1362.5 c 128,-1,33
 496 1359 496 1359 486 1346.5 c 128,-1,34
 476 1334 476 1334 467 1308.5 c 128,-1,35
 458 1283 458 1283 445 1236 c 0,36,37
 445 1234 445 1234 435.5 1192.5 c 128,-1,38
 426 1151 426 1151 411.5 1084.5 c 128,-1,39
 397 1018 397 1018 378 933.5 c 128,-1,40
 359 849 359 849 339.5 760.5 c 128,-1,41
 320 672 320 672 301.5 587.5 c 128,-1,42
 283 503 283 503 268.5 436 c 128,-1,43
 254 369 254 369 244.5 326.5 c 128,-1,44
 235 284 235 284 234 281 c 0,45,46
 226 241 226 241 214.5 186 c 128,-1,47
 203 131 203 131 191 71.5 c 128,-1,48
 179 12 179 12 167.5 -47 c 128,-1,49
 156 -106 156 -106 147 -153.5 c 128,-1,50
 138 -201 138 -201 131.5 -232.5 c 128,-1,51
 125 -264 125 -264 126 -268 c 1,52,53
 123 -292 123 -292 120.5 -311.5 c 128,-1,54
 118 -331 118 -331 121 -345 c 128,-1,55
 124 -359 124 -359 134 -368.5 c 128,-1,56
 144 -378 144 -378 167 -382 c 1,57,58
 179 -383 179 -383 327 -388 c 1,59,-1
 334 -398 l 1,0,-1
EndSplineSet
Substitution2: "<17001,16003> Urdu lookup 95 subtable" bracketleft
EndChar

StartChar: backslash
Encoding: 92 92 63
Width: 1241
GlyphClass: 2
Flags: W
LayerCount: 2
Fore
SplineSet
1016 -238 m 1,0,-1
 911 -238 l 1,1,-1
 371 1597 l 1,2,-1
 476 1597 l 1,3,-1
 1016 -238 l 1,0,-1
EndSplineSet
Substitution2: "<17001,16003> Urdu lookup 95 subtable" backslash
EndChar

StartChar: bracketright
Encoding: 93 93 64
Width: 719
GlyphClass: 2
Flags: W
LayerCount: 2
Fore
SplineSet
-145 -450 m 1,0,-1
 -134 -398 l 1,1,-1
 -123 -388 l 1,2,3
 25 -383 25 -383 35 -382 c 0,4,5
 64 -378 64 -378 78.5 -369.5 c 128,-1,6
 93 -361 93 -361 103 -341 c 0,7,8
 124 -301 124 -301 157 -162 c 128,-1,9
 190 -23 190 -23 241 225 c 0,10,11
 244 239 244 239 254.5 287.5 c 128,-1,12
 265 336 265 336 279.5 407 c 128,-1,13
 294 478 294 478 312 564.5 c 128,-1,14
 330 651 330 651 348 740.5 c 128,-1,15
 366 830 366 830 383.5 915.5 c 128,-1,16
 401 1001 401 1001 414.5 1069.5 c 128,-1,17
 428 1138 428 1138 437.5 1184 c 128,-1,18
 447 1230 447 1230 448 1240 c 0,19,20
 453 1273 453 1273 455 1294 c 128,-1,21
 457 1315 457 1315 456.5 1328 c 128,-1,22
 456 1341 456 1341 452.5 1347 c 128,-1,23
 449 1353 449 1353 443 1357 c 0,24,25
 432 1364 432 1364 404 1369 c 1,26,-1
 248 1380 l 1,27,-1
 244 1387 l 1,28,-1
 256 1444 l 1,29,-1
 267 1451 l 1,30,31
 338 1449 338 1449 389 1447.5 c 128,-1,32
 440 1446 440 1446 471 1446 c 0,33,34
 504 1446 504 1446 552 1447.5 c 128,-1,35
 600 1449 600 1449 665 1451 c 1,36,-1
 674 1436 l 1,37,38
 643 1324 643 1324 626 1252 c 0,39,40
 624 1246 624 1246 615 1203 c 128,-1,41
 606 1160 606 1160 591.5 1093.5 c 128,-1,42
 577 1027 577 1027 559 943.5 c 128,-1,43
 541 860 541 860 522 773 c 128,-1,44
 503 686 503 686 485 601.5 c 128,-1,45
 467 517 467 517 452 448.5 c 128,-1,46
 437 380 437 380 427.5 334.5 c 128,-1,47
 418 289 418 289 416 279 c 0,48,49
 412 262 412 262 405 227.5 c 128,-1,50
 398 193 398 193 389 151.5 c 128,-1,51
 380 110 380 110 371 66 c 128,-1,52
 362 22 362 22 354 -15.5 c 128,-1,53
 346 -53 346 -53 340.5 -79 c 128,-1,54
 335 -105 335 -105 334 -111 c 0,55,56
 315 -207 315 -207 299.5 -291 c 128,-1,57
 284 -375 284 -375 273 -450 c 1,58,-1
 259 -460 l 1,59,60
 196 -458 196 -458 147.5 -456.5 c 128,-1,61
 99 -455 99 -455 64 -455 c 0,62,63
 33 -455 33 -455 -17.5 -456.5 c 128,-1,64
 -68 -458 -68 -458 -138 -460 c 1,65,-1
 -145 -450 l 1,0,-1
EndSplineSet
Substitution2: "<17001,16003> Urdu lookup 95 subtable" bracketright
EndChar

StartChar: asciicircum
Encoding: 94 94 65
Width: 1241
GlyphClass: 2
Flags: W
LayerCount: 2
Fore
SplineSet
104 588 m 1,0,-1
 553 1419 l 1,1,-1
 689 1419 l 1,2,-1
 1136 588 l 1,3,-1
 1011 588 l 1,4,-1
 621 1292 l 1,5,-1
 230 588 l 1,6,-1
 104 588 l 1,0,-1
EndSplineSet
Substitution2: "<17001,16003> Urdu lookup 95 subtable" asciicircum
EndChar

StartChar: underscore
Encoding: 95 95 66
Width: 1024
GlyphClass: 2
Flags: W
LayerCount: 2
Fore
SplineSet
-12 -872 m 1,0,-1
 -12 -750 l 1,1,-1
 1035 -750 l 1,2,-1
 1035 -872 l 1,3,-1
 -12 -872 l 1,0,-1
EndSplineSet
Substitution2: "<17001,16003> Urdu lookup 95 subtable" underscore
EndChar

StartChar: grave
Encoding: 96 96 67
Width: 682
GlyphClass: 2
Flags: W
LayerCount: 2
Fore
SplineSet
623 1106 m 1,0,-1
 560 1106 l 1,1,-1
 312 1295 l 2,2,3
 285 1316 285 1316 270.5 1328.5 c 128,-1,4
 256 1341 256 1341 249 1350.5 c 128,-1,5
 242 1360 242 1360 241 1368.5 c 128,-1,6
 240 1377 240 1377 240 1388 c 0,7,8
 240 1416 240 1416 260 1435.5 c 128,-1,9
 280 1455 280 1455 312 1455 c 0,10,11
 324 1455 324 1455 332.5 1454 c 128,-1,12
 341 1453 341 1453 352 1445.5 c 128,-1,13
 363 1438 363 1438 378.5 1420.5 c 128,-1,14
 394 1403 394 1403 419 1371 c 2,15,-1
 623 1106 l 1,0,-1
EndSplineSet
Substitution2: "<17001,16003> Urdu lookup 95 subtable" grave
EndChar

StartChar: a
Encoding: 97 97 68
Width: 909
GlyphClass: 2
Flags: W
LayerCount: 2
Fore
SplineSet
836 213 m 1,0,-1
 847 170 l 1,1,-1
 697 54 l 1,2,3
 650 22 650 22 614 0 c 128,-1,4
 578 -22 578 -22 558 -22 c 0,5,6
 540 -22 540 -22 523 -3 c 128,-1,7
 506 16 506 16 506 44 c 0,8,9
 506 150 506 150 572 397 c 1,10,-1
 565 400 l 1,11,12
 527 346 527 346 498 307.5 c 128,-1,13
 469 269 469 269 447 244 c 0,14,15
 405 194 405 194 357.5 146 c 128,-1,16
 310 98 310 98 264 60.5 c 128,-1,17
 218 23 218 23 176.5 0 c 128,-1,18
 135 -23 135 -23 106 -23 c 0,19,20
 71 -23 71 -23 53.5 20.5 c 128,-1,21
 36 64 36 64 36 145 c 0,22,23
 36 276 36 276 82 445 c 0,24,25
 129 616 129 616 193 744 c 0,26,27
 213 783 213 783 246.5 817.5 c 128,-1,28
 280 852 280 852 318 879 c 128,-1,29
 356 906 356 906 393.5 926 c 128,-1,30
 431 946 431 946 459 956 c 0,31,32
 509 975 509 975 576 975 c 0,33,34
 600 975 600 975 620 973.5 c 128,-1,35
 640 972 640 972 660.5 968 c 128,-1,36
 681 964 681 964 704 957 c 128,-1,37
 727 950 727 950 757 939 c 1,38,-1
 821 977 l 1,39,-1
 843 959 l 1,40,41
 811 847 811 847 783 744 c 128,-1,42
 755 641 755 641 730 541 c 0,43,44
 715 481 715 481 704.5 437 c 128,-1,45
 694 393 694 393 689 364 c 0,46,47
 678 311 678 311 667.5 258 c 128,-1,48
 657 205 657 205 657 160 c 0,49,50
 657 143 657 143 663 132.5 c 128,-1,51
 669 122 669 122 684 122 c 0,52,53
 693 122 693 122 701.5 124 c 128,-1,54
 710 126 710 126 725.5 134.5 c 128,-1,55
 741 143 741 143 766.5 161.5 c 128,-1,56
 792 180 792 180 836 213 c 1,0,-1
670 841 m 1,57,58
 633 859 633 859 592 867.5 c 128,-1,59
 551 876 551 876 506 876 c 0,60,61
 472 876 472 876 446 873.5 c 128,-1,62
 420 871 420 871 399 861 c 128,-1,63
 378 851 378 851 361 832.5 c 128,-1,64
 344 814 344 814 328 781 c 0,65,66
 303 729 303 729 281 670 c 128,-1,67
 259 611 259 611 240 544 c 0,68,69
 211 442 211 442 196.5 353 c 128,-1,70
 182 264 182 264 182 185 c 0,71,72
 182 147 182 147 192.5 133 c 128,-1,73
 203 119 203 119 217 119 c 0,74,75
 232 119 232 119 256.5 133.5 c 128,-1,76
 281 148 281 148 311 172 c 128,-1,77
 341 196 341 196 373.5 228.5 c 128,-1,78
 406 261 406 261 437 297 c 0,79,80
 522 397 522 397 577 522 c 0,81,82
 633 648 633 648 670 841 c 1,57,58
EndSplineSet
Substitution2: "<17001,16003> Urdu lookup 95 subtable" a
EndChar

StartChar: b
Encoding: 98 98 69
Width: 948
GlyphClass: 2
Flags: W
LayerCount: 2
Fore
SplineSet
296 665 m 1,0,1
 365 757 365 757 401 794 c 0,2,3
 449 843 449 843 498 877.5 c 128,-1,4
 547 912 547 912 594.5 933.5 c 128,-1,5
 642 955 642 955 686 965 c 128,-1,6
 730 975 730 975 768 975 c 0,7,8
 797 975 797 975 816 959 c 128,-1,9
 835 943 835 943 846.5 914.5 c 128,-1,10
 858 886 858 886 863 847 c 128,-1,11
 868 808 868 808 868 761 c 0,12,13
 868 592 868 592 793 410 c 0,14,15
 736 271 736 271 652 179 c 0,16,17
 570 88 570 88 463 32 c 256,18,19
 356 -24 356 -24 272 -24 c 0,20,21
 230 -24 230 -24 192 -9.5 c 128,-1,22
 154 5 154 5 125.5 28.5 c 128,-1,23
 97 52 97 52 80 82 c 128,-1,24
 63 112 63 112 63 142 c 0,25,26
 63 153 63 153 64 164.5 c 128,-1,27
 65 176 65 176 67 188 c 0,28,29
 68 196 68 196 73.5 224.5 c 128,-1,30
 79 253 79 253 90 301 c 0,31,32
 108 380 108 380 144.5 575.5 c 128,-1,33
 181 771 181 771 238 1087 c 0,34,35
 255 1181 255 1181 263 1237.5 c 128,-1,36
 271 1294 271 1294 271 1314 c 0,37,38
 271 1329 271 1329 266 1338 c 128,-1,39
 261 1347 261 1347 244 1352 c 128,-1,40
 227 1357 227 1357 194 1358.5 c 128,-1,41
 161 1360 161 1360 104 1361 c 1,42,-1
 109 1403 l 1,43,44
 182 1413 182 1413 233 1421 c 128,-1,45
 284 1429 284 1429 313 1437 c 256,46,47
 342 1445 342 1445 374 1457.5 c 128,-1,48
 406 1470 406 1470 441 1487 c 1,49,-1
 466 1466 l 1,50,51
 459 1441 459 1441 451 1407.5 c 128,-1,52
 443 1374 443 1374 435 1331 c 2,53,-1
 296 665 l 1,0,1
214 212 m 0,54,55
 214 142 214 142 254 102 c 128,-1,56
 294 62 294 62 366 62 c 0,57,58
 413 62 413 62 453.5 80 c 128,-1,59
 494 98 494 98 529.5 135.5 c 128,-1,60
 565 173 565 173 596.5 231.5 c 128,-1,61
 628 290 628 290 657 371 c 0,62,63
 723 556 723 556 723 709 c 0,64,65
 723 751 723 751 719 779.5 c 128,-1,66
 715 808 715 808 705.5 825 c 128,-1,67
 696 842 696 842 680 849 c 128,-1,68
 664 856 664 856 640 856 c 0,69,70
 600 856 600 856 554 838.5 c 128,-1,71
 508 821 508 821 462 784 c 128,-1,72
 416 747 416 747 372.5 691.5 c 128,-1,73
 329 636 329 636 294 559 c 0,74,75
 286 541 286 541 277 511.5 c 128,-1,76
 268 482 268 482 259 448 c 128,-1,77
 250 414 250 414 242 378 c 128,-1,78
 234 342 234 342 228 310 c 128,-1,79
 222 278 222 278 218 252 c 128,-1,80
 214 226 214 226 214 212 c 0,54,55
EndSplineSet
Substitution2: "<17001,16003> Urdu lookup 95 subtable" b
EndChar

StartChar: c
Encoding: 99 99 70
AltUni2: 00217d.ffffffff.0
Width: 834
GlyphClass: 2
Flags: W
LayerCount: 2
Fore
SplineSet
725 233 m 1,0,-1
 740 189 l 1,1,2
 686 146 686 146 646.5 115.5 c 128,-1,3
 607 85 607 85 579 68 c 0,4,5
 540 44 540 44 506 26 c 128,-1,6
 472 8 472 8 439.5 -3.5 c 128,-1,7
 407 -15 407 -15 374.5 -20.5 c 128,-1,8
 342 -26 342 -26 307 -26 c 0,9,10
 254 -26 254 -26 210 -7.5 c 128,-1,11
 166 11 166 11 134.5 48.5 c 128,-1,12
 103 86 103 86 85.5 143 c 128,-1,13
 68 200 68 200 68 277 c 0,14,15
 68 331 68 331 75.5 387 c 128,-1,16
 83 443 83 443 97 503 c 0,17,18
 126 620 126 620 173 697.5 c 128,-1,19
 220 775 220 775 266 814 c 1,20,21
 315 854 315 854 372 888 c 128,-1,22
 429 922 429 922 496 951 c 0,23,24
 565 981 565 981 633 981 c 0,25,26
 735 981 735 981 806 928 c 1,27,28
 778 816 778 816 760 670 c 1,29,-1
 713 670 l 1,30,-1
 714 779 l 2,31,32
 715 822 715 822 677.5 850.5 c 128,-1,33
 640 879 640 879 548 879 c 0,34,35
 497 879 497 879 457 868 c 128,-1,36
 417 857 417 857 384.5 829 c 128,-1,37
 352 801 352 801 325.5 753 c 128,-1,38
 299 705 299 705 275 631 c 0,39,40
 218 450 218 450 218 317 c 0,41,42
 218 255 218 255 230.5 210 c 128,-1,43
 243 165 243 165 266.5 136 c 128,-1,44
 290 107 290 107 322.5 93 c 128,-1,45
 355 79 355 79 394 79 c 0,46,47
 439 79 439 79 485 93.5 c 128,-1,48
 531 108 531 108 592 143 c 0,49,50
 611 154 611 154 644 176.5 c 128,-1,51
 677 199 677 199 725 233 c 1,0,-1
EndSplineSet
Substitution2: "<17001,16003> Urdu lookup 95 subtable" c
EndChar

StartChar: d
Encoding: 100 100 71
AltUni2: 00217e.ffffffff.0
Width: 1024
GlyphClass: 2
Flags: W
LayerCount: 2
Fore
SplineSet
924 221 m 1,0,-1
 943 184 l 1,1,2
 906 151 906 151 859 115 c 128,-1,3
 812 79 812 79 766.5 49.5 c 128,-1,4
 721 20 721 20 683 0.5 c 128,-1,5
 645 -19 645 -19 625 -19 c 0,6,7
 607 -19 607 -19 592 1.5 c 128,-1,8
 577 22 577 22 577 70 c 0,9,10
 577 103 577 103 583 140 c 0,11,12
 587 160 587 160 602 229.5 c 128,-1,13
 617 299 617 299 645 420 c 1,14,-1
 640 421 l 1,15,16
 602 357 602 357 557 298 c 128,-1,17
 512 239 512 239 458 182 c 0,18,19
 417 138 417 138 372.5 101 c 128,-1,20
 328 64 328 64 286 37 c 128,-1,21
 244 10 244 10 207 -5 c 128,-1,22
 170 -20 170 -20 143 -20 c 0,23,24
 122 -20 122 -20 105 -3.5 c 128,-1,25
 88 13 88 13 76 41 c 128,-1,26
 64 69 64 69 57.5 105.5 c 128,-1,27
 51 142 51 142 51 182 c 0,28,29
 51 303 51 303 85 443 c 0,30,31
 120 588 120 588 175 694 c 0,32,33
 216 775 216 775 271 825 c 0,34,35
 302 853 302 853 338 880 c 128,-1,36
 374 907 374 907 413.5 928 c 128,-1,37
 453 949 453 949 495.5 962 c 128,-1,38
 538 975 538 975 581 975 c 0,39,40
 631 975 631 975 745 951 c 1,41,-1
 789 1202 l 2,42,43
 797 1244 797 1244 800 1268.5 c 128,-1,44
 803 1293 803 1293 803 1303 c 0,45,46
 803 1335 803 1335 790.5 1346.5 c 128,-1,47
 778 1358 778 1358 740 1358 c 2,48,-1
 642 1359 l 1,49,-1
 647 1399 l 1,50,51
 710 1407 710 1407 753.5 1415 c 128,-1,52
 797 1423 797 1423 825 1431 c 256,53,54
 853 1439 853 1439 887.5 1453.5 c 128,-1,55
 922 1468 922 1468 964 1490 c 1,56,-1
 989 1470 l 1,57,58
 984 1452 984 1452 970.5 1390 c 128,-1,59
 957 1328 957 1328 938.5 1239.5 c 128,-1,60
 920 1151 920 1151 898 1043.5 c 128,-1,61
 876 936 876 936 854 826 c 128,-1,62
 832 716 832 716 811 611 c 128,-1,63
 790 506 790 506 773.5 423 c 128,-1,64
 757 340 757 340 746.5 286.5 c 128,-1,65
 736 233 736 233 735 226 c 0,66,67
 733 210 733 210 732 195.5 c 128,-1,68
 731 181 731 181 731 168 c 0,69,70
 731 141 731 141 739 130.5 c 128,-1,71
 747 120 747 120 760 120 c 256,72,73
 773 120 773 120 795 131.5 c 128,-1,74
 817 143 817 143 841 158.5 c 128,-1,75
 865 174 865 174 887.5 191.5 c 128,-1,76
 910 209 910 209 924 221 c 1,0,-1
725 835 m 1,77,78
 634 884 634 884 532 884 c 0,79,80
 468 884 468 884 425.5 869 c 128,-1,81
 383 854 383 854 353 815 c 0,82,83
 346 806 346 806 336 785 c 128,-1,84
 326 764 326 764 314 735 c 128,-1,85
 302 706 302 706 290 672 c 128,-1,86
 278 638 278 638 266.5 604 c 128,-1,87
 255 570 255 570 246 537 c 128,-1,88
 237 504 237 504 231 478 c 0,89,90
 215 407 215 407 206.5 342.5 c 128,-1,91
 198 278 198 278 198 218 c 0,92,93
 198 184 198 184 201.5 165.5 c 128,-1,94
 205 147 205 147 211 137.5 c 128,-1,95
 217 128 217 128 225 125.5 c 128,-1,96
 233 123 233 123 243 121 c 1,97,98
 267 121 267 121 297 135 c 0,99,100
 354 163 354 163 409 208 c 128,-1,101
 464 253 464 253 512 310 c 128,-1,102
 560 367 560 367 598.5 435 c 128,-1,103
 637 503 637 503 662 576 c 0,104,105
 685 645 685 645 725 835 c 1,77,78
EndSplineSet
Substitution2: "<17001,16003> Urdu lookup 95 subtable" d
EndChar

StartChar: e
Encoding: 101 101 72
Width: 797
GlyphClass: 2
Flags: W
LayerCount: 2
Fore
SplineSet
671 226 m 1,0,-1
 684 187 l 1,1,2
 625 133 625 133 568.5 94 c 128,-1,3
 512 55 512 55 456 29 c 0,4,5
 344 -24 344 -24 266 -24 c 0,6,7
 222 -24 222 -24 181 -9.5 c 128,-1,8
 140 5 140 5 108 36.5 c 128,-1,9
 76 68 76 68 56.5 119.5 c 128,-1,10
 37 171 37 171 37 244 c 0,11,12
 37 353 37 353 75 493 c 0,13,14
 94 562 94 562 113 613 c 128,-1,15
 132 664 132 664 151 698 c 0,16,17
 188 765 188 765 255 819 c 0,18,19
 294 851 294 851 336 879.5 c 128,-1,20
 378 908 378 908 420.5 929.5 c 128,-1,21
 463 951 463 951 505.5 963.5 c 128,-1,22
 548 976 548 976 588 976 c 0,23,24
 626 976 626 976 657.5 966 c 128,-1,25
 689 956 689 956 711.5 936.5 c 128,-1,26
 734 917 734 917 747 888.5 c 128,-1,27
 760 860 760 860 760 824 c 0,28,29
 760 760 760 760 731.5 706.5 c 128,-1,30
 703 653 703 653 649 609 c 128,-1,31
 595 565 595 565 516 529.5 c 128,-1,32
 437 494 437 494 336 465 c 1,33,-1
 206 434 l 1,34,35
 196 383 196 383 191.5 343 c 128,-1,36
 187 303 187 303 187 274 c 0,37,38
 187 225 187 225 198.5 188 c 128,-1,39
 210 151 210 151 230.5 126.5 c 128,-1,40
 251 102 251 102 278.5 90 c 128,-1,41
 306 78 306 78 339 78 c 0,42,43
 400 78 400 78 469 106 c 0,44,45
 542 135 542 135 671 226 c 1,0,-1
214 483 m 1,46,47
 342 507 342 507 434 552 c 0,48,49
 481 576 481 576 514.5 605 c 128,-1,50
 548 634 548 634 569 665.5 c 128,-1,51
 590 697 590 697 599.5 728.5 c 128,-1,52
 609 760 609 760 609 789 c 0,53,54
 609 840 609 840 584 867 c 128,-1,55
 559 894 559 894 517 894 c 0,56,57
 489 894 489 894 459 885 c 128,-1,58
 429 876 429 876 400.5 859 c 128,-1,59
 372 842 372 842 347 816 c 128,-1,60
 322 790 322 790 304 756 c 0,61,62
 268 687 268 687 214 483 c 1,46,47
EndSplineSet
Substitution2: "<17001,16003> Urdu lookup 95 subtable" e
EndChar

StartChar: f
Encoding: 102 102 73
Width: 569
GlyphClass: 2
Flags: W
LayerCount: 2
Fore
SplineSet
78 771 m 1,0,-1
 87 816 l 1,1,2
 150 839 150 839 193.5 858.5 c 128,-1,3
 237 878 237 878 263 895 c 1,4,5
 266 910 266 910 271 935 c 128,-1,6
 276 960 276 960 282.5 989 c 128,-1,7
 289 1018 289 1018 295 1048 c 128,-1,8
 301 1078 301 1078 306.5 1103 c 128,-1,9
 312 1128 312 1128 315.5 1144 c 128,-1,10
 319 1160 319 1160 319 1161 c 0,11,12
 326 1186 326 1186 335 1206 c 128,-1,13
 344 1226 344 1226 362.5 1247.5 c 128,-1,14
 381 1269 381 1269 412.5 1297 c 128,-1,15
 444 1325 444 1325 495 1365 c 1,16,17
 539 1398 539 1398 570.5 1420.5 c 128,-1,18
 602 1443 602 1443 627.5 1456.5 c 128,-1,19
 653 1470 653 1470 677 1476 c 128,-1,20
 701 1482 701 1482 729 1482 c 0,21,22
 792 1482 792 1482 859 1455 c 1,23,24
 839 1400 839 1400 824.5 1358.5 c 128,-1,25
 810 1317 810 1317 802 1289 c 1,26,-1
 780 1282 l 1,27,28
 755 1317 755 1317 716.5 1337 c 128,-1,29
 678 1357 678 1357 636 1357 c 0,30,31
 588 1357 588 1357 556 1335.5 c 128,-1,32
 524 1314 524 1314 504 1278 c 0,33,34
 497 1265 497 1265 488.5 1237 c 128,-1,35
 480 1209 480 1209 471 1172 c 128,-1,36
 462 1135 462 1135 453 1093.5 c 128,-1,37
 444 1052 444 1052 436 1012 c 128,-1,38
 428 972 428 972 421 937.5 c 128,-1,39
 414 903 414 903 410 881 c 1,40,41
 465 883 465 883 497.5 884 c 128,-1,42
 530 885 530 885 549 885.5 c 128,-1,43
 568 886 568 886 576 887 c 128,-1,44
 584 888 584 888 590 889.5 c 128,-1,45
 596 891 596 891 603 893.5 c 128,-1,46
 610 896 610 896 627 901 c 1,47,-1
 636 889 l 1,48,49
 625 855 625 855 616 826 c 128,-1,50
 607 797 607 797 601 771 c 1,51,52
 546 774 546 774 501 774 c 0,53,54
 481 774 481 774 453.5 773.5 c 128,-1,55
 426 773 426 773 391 772 c 1,56,-1
 272 214 l 2,57,58
 240 63 240 63 211.5 -39.5 c 128,-1,59
 183 -142 183 -142 160 -200 c 0,60,61
 137 -259 137 -259 106 -310 c 128,-1,62
 75 -361 75 -361 35 -406 c 0,63,64
 4 -442 4 -442 -29.5 -471.5 c 128,-1,65
 -63 -501 -63 -501 -96.5 -522.5 c 128,-1,66
 -130 -544 -130 -544 -164 -555.5 c 128,-1,67
 -198 -567 -198 -567 -231 -567 c 0,68,69
 -265 -567 -265 -567 -302 -548 c 1,70,71
 -285 -497 -285 -497 -273.5 -456.5 c 128,-1,72
 -262 -416 -262 -416 -255 -384 c 1,73,-1
 -230 -378 l 1,74,75
 -186 -434 -186 -434 -127 -434 c 0,76,77
 -101 -434 -101 -434 -75.5 -425.5 c 128,-1,78
 -50 -417 -50 -417 -26.5 -392 c 128,-1,79
 -3 -367 -3 -367 18.5 -321.5 c 128,-1,80
 40 -276 40 -276 59 -202 c 0,81,82
 84 -108 84 -108 109 10.5 c 128,-1,83
 134 129 134 129 158 274 c 2,84,-1
 242 772 l 1,85,86
 213 773 213 773 193 773 c 128,-1,87
 173 773 173 773 163 773 c 0,88,89
 146 773 146 773 124.5 772.5 c 128,-1,90
 103 772 103 772 78 771 c 1,0,-1
EndSplineSet
Substitution2: "<17001,16003> Urdu lookup 95 subtable" f
EndChar

StartChar: g
Encoding: 103 103 74
Width: 1024
GlyphClass: 2
Flags: W
LayerCount: 2
Fore
SplineSet
358 37 m 1,0,1
 341 57 341 57 331.5 68 c 128,-1,2
 322 79 322 79 318 85.5 c 128,-1,3
 314 92 314 92 313.5 96.5 c 128,-1,4
 313 101 313 101 313 107 c 0,5,6
 313 120 313 120 320.5 135.5 c 128,-1,7
 328 151 328 151 344 171 c 128,-1,8
 360 191 360 191 386.5 217 c 128,-1,9
 413 243 413 243 450 276 c 1,10,11
 436 275 436 275 424.5 275 c 128,-1,12
 413 275 413 275 403 275 c 0,13,14
 276 275 276 275 210 340 c 128,-1,15
 144 405 144 405 144 523 c 0,16,17
 144 642 144 642 199 742 c 0,18,19
 227 793 227 793 268 834.5 c 128,-1,20
 309 876 309 876 366 908 c 1,21,22
 475 972 475 972 594 972 c 0,23,24
 678 972 678 972 735 946.5 c 128,-1,25
 792 921 792 921 830 860 c 1,26,27
 871 862 871 862 894.5 862.5 c 128,-1,28
 918 863 918 863 931 863.5 c 128,-1,29
 944 864 944 864 950 864.5 c 128,-1,30
 956 865 956 865 961.5 866 c 128,-1,31
 967 867 967 867 975.5 868.5 c 128,-1,32
 984 870 984 870 1003 873 c 1,33,-1
 1007 868 l 1,34,-1
 991 768 l 1,35,36
 977 769 977 769 965 769.5 c 128,-1,37
 953 770 953 770 943 770 c 0,38,39
 926 770 926 770 905.5 769 c 128,-1,40
 885 768 885 768 859 766 c 1,41,42
 861 749 861 749 862 734.5 c 128,-1,43
 863 720 863 720 863 708 c 0,44,45
 863 658 863 658 852 614.5 c 128,-1,46
 841 571 841 571 823 533.5 c 128,-1,47
 805 496 805 496 781.5 464.5 c 128,-1,48
 758 433 758 433 732 409 c 0,49,50
 715 393 715 393 690.5 375.5 c 128,-1,51
 666 358 666 358 637.5 342 c 128,-1,52
 609 326 609 326 578.5 313.5 c 128,-1,53
 548 301 548 301 521 295 c 1,54,55
 465 242 465 242 465 204 c 0,56,57
 465 169 465 169 494 134 c 0,58,59
 508 117 508 117 553 78 c 128,-1,60
 598 39 598 39 673 -24 c 0,61,62
 714 -58 714 -58 741 -87.5 c 128,-1,63
 768 -117 768 -117 784 -144 c 128,-1,64
 800 -171 800 -171 806 -196.5 c 128,-1,65
 812 -222 812 -222 812 -248 c 0,66,67
 812 -277 812 -277 800.5 -311 c 128,-1,68
 789 -345 789 -345 764.5 -380 c 128,-1,69
 740 -415 740 -415 701 -447.5 c 128,-1,70
 662 -480 662 -480 606.5 -505.5 c 128,-1,71
 551 -531 551 -531 478.5 -546 c 128,-1,72
 406 -561 406 -561 314 -561 c 0,73,74
 220 -561 220 -561 152.5 -542 c 128,-1,75
 85 -523 85 -523 41.5 -490 c 128,-1,76
 -2 -457 -2 -457 -22.5 -412.5 c 128,-1,77
 -43 -368 -43 -368 -43 -318 c 0,78,79
 -43 -267 -43 -267 -20.5 -217 c 128,-1,80
 2 -167 2 -167 51 -121.5 c 128,-1,81
 100 -76 100 -76 176 -36 c 128,-1,82
 252 4 252 4 358 37 c 1,0,1
289 561 m 0,83,84
 289 452 289 452 339.5 396.5 c 128,-1,85
 390 341 390 341 478 341 c 0,86,87
 532 341 532 341 575.5 366.5 c 128,-1,88
 619 392 619 392 650 439 c 128,-1,89
 681 486 681 486 697.5 552 c 128,-1,90
 714 618 714 618 714 698 c 0,91,92
 714 804 714 804 666 856.5 c 128,-1,93
 618 909 618 909 533 909 c 0,94,95
 473 909 473 909 427 880.5 c 128,-1,96
 381 852 381 852 350.5 804 c 128,-1,97
 320 756 320 756 304.5 693 c 128,-1,98
 289 630 289 630 289 561 c 0,83,84
390 1 m 1,99,100
 311 -19 311 -19 254 -52 c 128,-1,101
 197 -85 197 -85 160 -124.5 c 128,-1,102
 123 -164 123 -164 105.5 -207 c 128,-1,103
 88 -250 88 -250 88 -292 c 0,104,105
 88 -337 88 -337 106.5 -376 c 128,-1,106
 125 -415 125 -415 160.5 -443.5 c 128,-1,107
 196 -472 196 -472 248.5 -488.5 c 128,-1,108
 301 -505 301 -505 369 -505 c 0,109,110
 433 -505 433 -505 489 -491.5 c 128,-1,111
 545 -478 545 -478 587 -452.5 c 128,-1,112
 629 -427 629 -427 653 -390.5 c 128,-1,113
 677 -354 677 -354 677 -309 c 0,114,115
 677 -270 677 -270 657 -231 c 128,-1,116
 637 -192 637 -192 589 -152 c 1,117,-1
 390 1 l 1,99,100
EndSplineSet
Substitution2: "<17001,16003> Urdu lookup 95 subtable" g
EndChar

StartChar: h
Encoding: 104 104 75
Width: 1024
GlyphClass: 2
Flags: W
LayerCount: 2
Fore
SplineSet
39 -19 m 1,0,-1
 26 -5 l 1,1,2
 63 139 63 139 92 258 c 128,-1,3
 121 377 121 377 143 477 c 0,4,5
 171 603 171 603 194 719 c 128,-1,6
 217 835 217 835 237 947 c 256,7,8
 257 1059 257 1059 271 1143.5 c 128,-1,9
 285 1228 285 1228 293 1286 c 0,10,11
 294 1294 294 1294 294.5 1301.5 c 128,-1,12
 295 1309 295 1309 295 1316 c 0,13,14
 295 1334 295 1334 287.5 1343.5 c 128,-1,15
 280 1353 280 1353 260 1357 c 0,16,17
 250 1359 250 1359 217.5 1360.5 c 128,-1,18
 185 1362 185 1362 130 1361 c 1,19,-1
 135 1402 l 1,20,21
 362 1438 362 1438 465 1486 c 1,22,-1
 485 1466 l 1,23,24
 474 1428 474 1428 468.5 1399 c 128,-1,25
 463 1370 463 1370 458 1350 c 2,26,-1
 370 946 l 1,27,-1
 289 557 l 1,28,-1
 296 553 l 1,29,30
 336 604 336 604 368 642 c 128,-1,31
 400 680 400 680 423 706 c 0,32,33
 473 761 473 761 529 808.5 c 128,-1,34
 585 856 585 856 641.5 891.5 c 128,-1,35
 698 927 698 927 751.5 947 c 128,-1,36
 805 967 805 967 849 967 c 0,37,38
 872 967 872 967 888.5 950 c 128,-1,39
 905 933 905 933 905 907 c 0,40,41
 905 896 905 896 903.5 884.5 c 128,-1,42
 902 873 902 873 897.5 851.5 c 128,-1,43
 893 830 893 830 883.5 791.5 c 128,-1,44
 874 753 874 753 858 688 c 0,45,46
 826 559 826 559 801 452 c 128,-1,47
 776 345 776 345 757 254 c 0,48,49
 749 212 749 212 744.5 186 c 128,-1,50
 740 160 740 160 740 147 c 0,51,52
 740 132 740 132 747.5 123.5 c 128,-1,53
 755 115 755 115 766 115 c 0,54,55
 804 115 804 115 939 217 c 1,56,-1
 959 180 l 1,57,58
 941 164 941 164 913 143 c 128,-1,59
 885 122 885 122 853 99.5 c 128,-1,60
 821 77 821 77 787 55 c 128,-1,61
 753 33 753 33 723 15.5 c 128,-1,62
 693 -2 693 -2 668.5 -12.5 c 128,-1,63
 644 -23 644 -23 631 -23 c 0,64,65
 612 -23 612 -23 597 -3.5 c 128,-1,66
 582 16 582 16 582 61 c 0,67,68
 582 81 582 81 587.5 112.5 c 128,-1,69
 593 144 593 144 603 187 c 2,70,-1
 678 507 l 2,71,72
 704 618 704 618 720 690 c 128,-1,73
 736 762 736 762 735 795 c 1,74,75
 735 831 735 831 696 831 c 0,76,77
 672 831 672 831 643 818.5 c 128,-1,78
 614 806 614 806 582.5 785 c 128,-1,79
 551 764 551 764 517.5 735.5 c 128,-1,80
 484 707 484 707 452 675 c 0,81,82
 357 580 357 580 303.5 474.5 c 128,-1,83
 250 369 250 369 221 243 c 1,84,-1
 178 14 l 1,85,-1
 75 -8 l 2,86,87
 65 -10 65 -10 56 -13 c 128,-1,88
 47 -16 47 -16 39 -19 c 1,0,-1
EndSplineSet
Substitution2: "<17001,16003> Urdu lookup 95 subtable" h
EndChar

StartChar: i
Encoding: 105 105 76
Width: 569
GlyphClass: 2
Flags: W
LayerCount: 2
Fore
SplineSet
348 1312 m 0,0,1
 348 1340 348 1340 357.5 1364 c 128,-1,2
 367 1388 367 1388 383 1406 c 128,-1,3
 399 1424 399 1424 420 1434.5 c 128,-1,4
 441 1445 441 1445 463 1445 c 0,5,6
 498 1445 498 1445 518.5 1423.5 c 128,-1,7
 539 1402 539 1402 539 1364 c 0,8,9
 539 1339 539 1339 531.5 1314 c 128,-1,10
 524 1289 524 1289 509.5 1269 c 128,-1,11
 495 1249 495 1249 475 1237 c 128,-1,12
 455 1225 455 1225 429 1225 c 0,13,14
 394 1225 394 1225 371 1249 c 128,-1,15
 348 1273 348 1273 348 1312 c 0,0,1
90 745 m 1,16,-1
 73 785 l 1,17,18
 163 848 163 848 222 885.5 c 128,-1,19
 281 923 281 923 310 937 c 0,20,21
 373 966 373 966 404 966 c 0,22,23
 427 966 427 966 437 946.5 c 128,-1,24
 447 927 447 927 447 898 c 0,25,26
 447 885 447 885 443.5 865 c 128,-1,27
 440 845 440 845 432.5 813.5 c 128,-1,28
 425 782 425 782 413 737.5 c 128,-1,29
 401 693 401 693 385 631 c 0,30,31
 331 428 331 428 303 309.5 c 128,-1,32
 275 191 275 191 276 153 c 1,33,34
 276 113 276 113 304 113 c 0,35,36
 315 113 315 113 325 115 c 128,-1,37
 335 117 335 117 352 125.5 c 128,-1,38
 369 134 369 134 396 152 c 128,-1,39
 423 170 423 170 466 202 c 1,40,-1
 486 162 l 1,41,42
 365 68 365 68 289 22 c 128,-1,43
 213 -24 213 -24 177 -24 c 0,44,45
 152 -24 152 -24 132.5 -1.5 c 128,-1,46
 113 21 113 21 113 63 c 0,47,48
 113 81 113 81 114 96.5 c 128,-1,49
 115 112 115 112 119.5 134.5 c 128,-1,50
 124 157 124 157 132 190 c 128,-1,51
 140 223 140 223 155 275 c 0,52,53
 272 695 272 695 272 795 c 0,54,55
 272 816 272 816 266.5 823.5 c 128,-1,56
 261 831 261 831 251 831 c 0,57,58
 236 831 236 831 222 824 c 0,59,60
 218 822 218 822 185.5 802.5 c 128,-1,61
 153 783 153 783 90 745 c 1,16,-1
EndSplineSet
Substitution2: "<17001,16003> Urdu lookup 95 subtable" i
EndChar

StartChar: j
Encoding: 106 106 77
Width: 569
GlyphClass: 2
Flags: W
LayerCount: 2
Fore
SplineSet
357 1312 m 0,0,1
 357 1340 357 1340 366.5 1364 c 128,-1,2
 376 1388 376 1388 392 1406 c 128,-1,3
 408 1424 408 1424 429 1434.5 c 128,-1,4
 450 1445 450 1445 472 1445 c 0,5,6
 507 1445 507 1445 527.5 1423.5 c 128,-1,7
 548 1402 548 1402 548 1364 c 0,8,9
 548 1339 548 1339 540.5 1314 c 128,-1,10
 533 1289 533 1289 518.5 1269 c 128,-1,11
 504 1249 504 1249 484 1237 c 128,-1,12
 464 1225 464 1225 438 1225 c 0,13,14
 403 1225 403 1225 380 1249 c 128,-1,15
 357 1273 357 1273 357 1312 c 0,0,1
-136 -549 m 1,16,-1
 -117 -432 l 1,17,18
 -55 -473 -55 -473 -20 -473 c 0,19,20
 20 -473 20 -473 43 -435 c 0,21,22
 51 -420 51 -420 63.5 -380.5 c 128,-1,23
 76 -341 76 -341 90 -275 c 2,24,-1
 160 65 l 2,25,26
 168 100 168 100 181.5 164 c 128,-1,27
 195 228 195 228 210.5 304.5 c 128,-1,28
 226 381 226 381 242 462.5 c 128,-1,29
 258 544 258 544 271 613.5 c 128,-1,30
 284 683 284 683 292 732.5 c 128,-1,31
 300 782 300 782 300 796 c 0,32,33
 300 812 300 812 292 821.5 c 128,-1,34
 284 831 284 831 271 831 c 0,35,36
 237 831 237 831 103 745 c 1,37,-1
 86 784 l 1,38,39
 135 821 135 821 184.5 854.5 c 128,-1,40
 234 888 234 888 278.5 913.5 c 128,-1,41
 323 939 323 939 361 954 c 128,-1,42
 399 969 399 969 424 969 c 0,43,44
 447 969 447 969 457.5 956.5 c 128,-1,45
 468 944 468 944 468 908 c 0,46,47
 468 888 468 888 457 827.5 c 128,-1,48
 446 767 446 767 424 661 c 0,49,50
 382 459 382 459 344 297.5 c 128,-1,51
 306 136 306 136 273 8 c 0,52,53
 194 -300 194 -300 133 -403 c 0,54,55
 81 -492 81 -492 35 -528.5 c 128,-1,56
 -11 -565 -11 -565 -64 -565 c 0,57,58
 -92 -565 -92 -565 -136 -549 c 1,16,-1
EndSplineSet
Substitution2: "<17001,16003> Urdu lookup 95 subtable" j
EndChar

StartChar: k
Encoding: 107 107 78
Width: 909
GlyphClass: 2
Flags: W
LayerCount: 2
Fore
SplineSet
39 -18 m 1,0,-1
 22 -5 l 1,1,2
 26 10 26 10 33.5 39 c 128,-1,3
 41 68 41 68 49.5 103.5 c 128,-1,4
 58 139 58 139 67.5 176 c 128,-1,5
 77 213 77 213 84.5 244.5 c 128,-1,6
 92 276 92 276 97.5 298 c 128,-1,7
 103 320 103 320 104 325 c 0,8,9
 167 604 167 604 236 973 c 0,10,11
 256 1079 256 1079 269.5 1156.5 c 128,-1,12
 283 1234 283 1234 289 1288 c 0,13,14
 292 1308 292 1308 292 1318 c 0,15,16
 292 1354 292 1354 258 1360 c 0,17,18
 242 1363 242 1363 120 1363 c 1,19,-1
 129 1402 l 1,20,21
 204 1414 204 1414 255 1423.5 c 128,-1,22
 306 1433 306 1433 333 1440 c 256,23,24
 360 1447 360 1447 390.5 1458 c 128,-1,25
 421 1469 421 1469 455 1483 c 1,26,-1
 481 1460 l 1,27,28
 469 1412 469 1412 458.5 1370 c 128,-1,29
 448 1328 448 1328 440 1290 c 2,30,-1
 345 832 l 2,31,32
 319 711 319 711 298.5 622.5 c 128,-1,33
 278 534 278 534 264 474 c 1,34,35
 293 516 293 516 333.5 567 c 128,-1,36
 374 618 374 618 425 679 c 0,37,38
 524 798 524 798 610 868 c 0,39,40
 652 902 652 902 687 924.5 c 128,-1,41
 722 947 722 947 751.5 960 c 128,-1,42
 781 973 781 973 804.5 978 c 128,-1,43
 828 983 828 983 846 983 c 0,44,45
 873 983 873 983 916 968 c 1,46,-1
 882 827 l 1,47,48
 832 841 832 841 798 841 c 0,49,50
 771 841 771 841 745.5 836.5 c 128,-1,51
 720 832 720 832 693.5 820.5 c 128,-1,52
 667 809 667 809 637.5 790.5 c 128,-1,53
 608 772 608 772 573 744 c 0,54,55
 552 727 552 727 523 701.5 c 128,-1,56
 494 676 494 676 458 638 c 1,57,58
 475 585 475 585 496 528.5 c 128,-1,59
 517 472 517 472 538.5 417 c 128,-1,60
 560 362 560 362 581.5 312 c 128,-1,61
 603 262 603 262 622 222 c 128,-1,62
 641 182 641 182 656 155 c 128,-1,63
 671 128 671 128 679 120 c 0,64,65
 696 105 696 105 714 105 c 0,66,67
 730 105 730 105 747 113 c 128,-1,68
 764 121 764 121 783 131 c 1,69,-1
 855 174 l 1,70,-1
 871 136 l 1,71,72
 800 84 800 84 755.5 53 c 128,-1,73
 711 22 711 22 683.5 5 c 128,-1,74
 656 -12 656 -12 641 -17.5 c 128,-1,75
 626 -23 626 -23 613 -23 c 0,76,77
 602 -23 602 -23 591.5 -18 c 128,-1,78
 581 -13 581 -13 567 5 c 128,-1,79
 553 23 553 23 535.5 58.5 c 128,-1,80
 518 94 518 94 493 154.5 c 128,-1,81
 468 215 468 215 435 305 c 128,-1,82
 402 395 402 395 357 523 c 1,83,84
 320 479 320 479 300 453.5 c 128,-1,85
 280 428 280 428 269.5 411 c 128,-1,86
 259 394 259 394 254 380.5 c 128,-1,87
 249 367 249 367 242 347 c 0,88,89
 226 297 226 297 207 202 c 1,90,-1
 175 18 l 1,91,-1
 39 -18 l 1,0,-1
EndSplineSet
Substitution2: "<17001,16003> Urdu lookup 95 subtable" k
EndChar

StartChar: l
Encoding: 108 108 79
AltUni2: 00217c.ffffffff.0
Width: 569
GlyphClass: 2
Flags: W
LayerCount: 2
Fore
SplineSet
452 219 m 1,0,-1
 469 178 l 1,1,2
 463 173 463 173 445 159 c 128,-1,3
 427 145 427 145 402 127 c 128,-1,4
 377 109 377 109 348 88.5 c 128,-1,5
 319 68 319 68 290 49 c 128,-1,6
 261 30 261 30 235 14.5 c 128,-1,7
 209 -1 209 -1 191 -9 c 0,8,9
 177 -15 177 -15 164 -18.5 c 128,-1,10
 151 -22 151 -22 137 -22 c 0,11,12
 109 -22 109 -22 92.5 -2 c 128,-1,13
 76 18 76 18 76 63 c 0,14,15
 76 104 76 104 83 136 c 1,16,17
 83 134 83 134 89 163 c 128,-1,18
 95 192 95 192 106 241 c 128,-1,19
 117 290 117 290 131 355 c 128,-1,20
 145 420 145 420 160.5 489.5 c 128,-1,21
 176 559 176 559 191 629 c 128,-1,22
 206 699 206 699 219 758.5 c 128,-1,23
 232 818 232 818 241.5 862.5 c 128,-1,24
 251 907 251 907 255 926 c 0,25,26
 280 1051 280 1051 298 1147.5 c 128,-1,27
 316 1244 316 1244 316 1306 c 0,28,29
 316 1335 316 1335 302.5 1346 c 128,-1,30
 289 1357 289 1357 247 1357 c 2,31,-1
 155 1358 l 1,32,-1
 160 1399 l 1,33,34
 208 1404 208 1404 250 1411 c 128,-1,35
 292 1418 292 1418 327 1427 c 0,36,37
 399 1445 399 1445 481 1479 c 1,38,-1
 507 1463 l 1,39,40
 506 1459 506 1459 500.5 1433 c 128,-1,41
 495 1407 495 1407 486.5 1366.5 c 128,-1,42
 478 1326 478 1326 466.5 1274 c 128,-1,43
 455 1222 455 1222 443 1165.5 c 128,-1,44
 431 1109 431 1109 419 1051.5 c 128,-1,45
 407 994 407 994 396 942 c 128,-1,46
 385 890 385 890 376 847.5 c 128,-1,47
 367 805 367 805 361 778 c 0,48,49
 259 296 259 296 244 188 c 0,50,51
 241 169 241 169 241 155 c 0,52,53
 241 134 241 134 251 122 c 128,-1,54
 261 110 261 110 273 110 c 0,55,56
 278 110 278 110 284.5 112 c 128,-1,57
 291 114 291 114 302 119.5 c 128,-1,58
 313 125 313 125 329.5 134.5 c 128,-1,59
 346 144 346 144 370 160 c 1,60,-1
 452 219 l 1,0,-1
EndSplineSet
Substitution2: "<17001,16003> Urdu lookup 95 subtable" l
EndChar

StartChar: m
Encoding: 109 109 80
AltUni2: 00217f.ffffffff.0
Width: 1593
GlyphClass: 2
Flags: W
LayerCount: 2
Fore
SplineSet
107 -12 m 1,0,-1
 93 5 l 1,1,-1
 150 209 l 1,2,3
 166 270 166 270 180 329 c 128,-1,4
 194 388 194 388 206 446 c 0,5,6
 217 497 217 497 226.5 547 c 128,-1,7
 236 597 236 597 243.5 641 c 128,-1,8
 251 685 251 685 255 722 c 128,-1,9
 259 759 259 759 259 783 c 0,10,11
 259 812 259 812 250.5 823.5 c 128,-1,12
 242 835 242 835 230 835 c 0,13,14
 220 835 220 835 201.5 827 c 128,-1,15
 183 819 183 819 161.5 806.5 c 128,-1,16
 140 794 140 794 116.5 779 c 128,-1,17
 93 764 93 764 73 750 c 1,18,-1
 59 793 l 1,19,20
 82 811 82 811 118 836 c 128,-1,21
 154 861 154 861 193 885.5 c 128,-1,22
 232 910 232 910 268.5 931 c 128,-1,23
 305 952 305 952 330 962 c 0,24,25
 356 972 356 972 380 972 c 0,26,27
 424 972 424 972 424 922 c 0,28,29
 424 910 424 910 422 893 c 128,-1,30
 420 876 420 876 416 853 c 0,31,32
 414 837 414 837 356 563 c 1,33,34
 454 697 454 697 518 761 c 0,35,36
 561 803 561 803 608.5 841 c 128,-1,37
 656 879 656 879 703.5 907.5 c 128,-1,38
 751 936 751 936 796 953 c 128,-1,39
 841 970 841 970 878 970 c 0,40,41
 927 970 927 970 927 925 c 0,42,43
 927 905 927 905 924 880 c 128,-1,44
 921 855 921 855 916 823 c 0,45,46
 912 801 912 801 897.5 736.5 c 128,-1,47
 883 672 883 672 858 560 c 1,48,49
 960 701 960 701 1065.5 791.5 c 128,-1,50
 1171 882 1171 882 1286 936 c 0,51,52
 1325 954 1325 954 1358 962.5 c 128,-1,53
 1391 971 1391 971 1415 971 c 0,54,55
 1464 971 1464 971 1464 921 c 0,56,57
 1464 906 1464 906 1461 883 c 128,-1,58
 1458 860 1458 860 1451 829 c 0,59,60
 1440 775 1440 775 1418.5 690.5 c 128,-1,61
 1397 606 1397 606 1365 486 c 0,62,63
 1290 207 1290 207 1290 148 c 0,64,65
 1290 128 1290 128 1298.5 117.5 c 128,-1,66
 1307 107 1307 107 1318 107 c 0,67,68
 1334 107 1334 107 1354 116 c 128,-1,69
 1374 125 1374 125 1406 146 c 2,70,-1
 1484 200 l 1,71,-1
 1500 161 l 1,72,73
 1487 150 1487 150 1466.5 135 c 128,-1,74
 1446 120 1446 120 1421.5 102.5 c 128,-1,75
 1397 85 1397 85 1370 67.5 c 128,-1,76
 1343 50 1343 50 1317.5 34 c 128,-1,77
 1292 18 1292 18 1269 5.5 c 128,-1,78
 1246 -7 1246 -7 1230 -14 c 0,79,80
 1207 -24 1207 -24 1184 -24 c 256,81,82
 1161 -24 1161 -24 1143 -4 c 128,-1,83
 1125 16 1125 16 1125 52 c 0,84,85
 1125 69 1125 69 1125.5 79.5 c 128,-1,86
 1126 90 1126 90 1128.5 104.5 c 128,-1,87
 1131 119 1131 119 1137 142.5 c 128,-1,88
 1143 166 1143 166 1155 207 c 0,89,90
 1160 224 1160 224 1170 262.5 c 128,-1,91
 1180 301 1180 301 1192.5 351 c 128,-1,92
 1205 401 1205 401 1218.5 456.5 c 128,-1,93
 1232 512 1232 512 1244 563 c 128,-1,94
 1256 614 1256 614 1265 656 c 128,-1,95
 1274 698 1274 698 1277 719 c 0,96,97
 1282 754 1282 754 1285 775 c 128,-1,98
 1288 796 1288 796 1288 802 c 0,99,100
 1288 820 1288 820 1279.5 830 c 128,-1,101
 1271 840 1271 840 1259 840 c 0,102,103
 1245 840 1245 840 1214.5 827.5 c 128,-1,104
 1184 815 1184 815 1144.5 790 c 128,-1,105
 1105 765 1105 765 1060 726 c 128,-1,106
 1015 687 1015 687 971.5 634 c 128,-1,107
 928 581 928 581 889.5 513 c 128,-1,108
 851 445 851 445 826 362 c 0,109,110
 791 249 791 249 751 13 c 1,111,112
 720 8 720 8 685.5 1 c 128,-1,113
 651 -6 651 -6 611 -16 c 1,114,-1
 597 -2 l 1,115,116
 620 83 620 83 643 172 c 128,-1,117
 666 261 666 261 688 361 c 0,118,119
 707 444 707 444 721 515.5 c 128,-1,120
 735 587 735 587 744.5 642.5 c 128,-1,121
 754 698 754 698 758 737 c 128,-1,122
 762 776 762 776 762 794 c 0,123,124
 762 837 762 837 732 837 c 0,125,126
 706 837 706 837 665.5 815.5 c 128,-1,127
 625 794 625 794 579.5 755.5 c 128,-1,128
 534 717 534 717 488.5 664.5 c 128,-1,129
 443 612 443 612 405 550 c 0,130,131
 377 505 377 505 355 452 c 128,-1,132
 333 399 333 399 316 337 c 0,133,134
 299 274 299 274 281 194.5 c 128,-1,135
 263 115 263 115 245 15 c 1,136,137
 167 2 167 2 107 -12 c 1,0,-1
EndSplineSet
Substitution2: "<17001,16003> Urdu lookup 95 subtable" m
EndChar

StartChar: n
Encoding: 110 110 81
Width: 1139
GlyphClass: 2
Flags: W
LayerCount: 2
Fore
SplineSet
118 -17 m 1,0,-1
 105 0 l 1,1,2
 139 106 139 106 170 231.5 c 128,-1,3
 201 357 201 357 230 506 c 0,4,5
 251 615 251 615 260.5 685 c 128,-1,6
 270 755 270 755 271 789 c 0,7,8
 271 811 271 811 264 819.5 c 128,-1,9
 257 828 257 828 244 828 c 0,10,11
 225 828 225 828 205 819 c 128,-1,12
 185 810 185 810 157 793 c 1,13,-1
 78 741 l 1,14,-1
 65 782 l 1,15,-1
 158 851 l 1,16,17
 202 882 202 882 241 904 c 128,-1,18
 280 926 280 926 310.5 940.5 c 128,-1,19
 341 955 341 955 361.5 961.5 c 128,-1,20
 382 968 382 968 389 968 c 0,21,22
 415 968 415 968 426 949.5 c 128,-1,23
 437 931 437 931 437 907 c 0,24,25
 437 894 437 894 435 878.5 c 128,-1,26
 433 863 433 863 428.5 839.5 c 128,-1,27
 424 816 424 816 415.5 781 c 128,-1,28
 407 746 407 746 395 695 c 2,29,-1
 350 510 l 1,30,-1
 357 508 l 1,31,32
 443 649 443 649 558 759 c 0,33,34
 605 804 605 804 659 842 c 128,-1,35
 713 880 713 880 764.5 908 c 128,-1,36
 816 936 816 936 860 951.5 c 128,-1,37
 904 967 904 967 931 967 c 256,38,39
 958 967 958 967 974.5 950 c 128,-1,40
 991 933 991 933 991 901 c 0,41,42
 991 832 991 832 922 565 c 0,43,44
 829 210 829 210 829 146 c 0,45,46
 829 126 829 126 836.5 117.5 c 128,-1,47
 844 109 844 109 856 109 c 256,48,49
 868 109 868 109 890 119 c 128,-1,50
 912 129 912 129 937 144.5 c 128,-1,51
 962 160 962 160 987 177.5 c 128,-1,52
 1012 195 1012 195 1031 210 c 1,53,-1
 1048 170 l 1,54,55
 975 110 975 110 921.5 72.5 c 128,-1,56
 868 35 868 35 829.5 13.5 c 128,-1,57
 791 -8 791 -8 766 -15.5 c 128,-1,58
 741 -23 741 -23 726 -23 c 0,59,60
 698 -23 698 -23 681.5 -4.5 c 128,-1,61
 665 14 665 14 665 52 c 0,62,63
 665 66 665 66 667 84.5 c 128,-1,64
 669 103 669 103 673 126 c 0,65,66
 680 164 680 164 699.5 241 c 128,-1,67
 719 318 719 318 748 435 c 1,68,69
 785 576 785 576 803.5 662 c 128,-1,70
 822 748 822 748 821 780 c 0,71,72
 821 810 821 810 811 821.5 c 128,-1,73
 801 833 801 833 783 833 c 0,74,75
 747 833 747 833 697 804 c 128,-1,76
 647 775 647 775 594 728 c 128,-1,77
 541 681 541 681 491 621 c 128,-1,78
 441 561 441 561 405 498 c 0,79,80
 351 404 351 404 308 250 c 0,81,82
 300 221 300 221 288 163.5 c 128,-1,83
 276 106 276 106 259 15 c 1,84,85
 222 9 222 9 187 1 c 128,-1,86
 152 -7 152 -7 118 -17 c 1,0,-1
EndSplineSet
Substitution2: "<17001,16003> Urdu lookup 95 subtable" n
EndChar

StartChar: o
Encoding: 111 111 82
Width: 909
GlyphClass: 2
Flags: W
LayerCount: 2
Fore
SplineSet
39 287 m 0,0,1
 39 412 39 412 65 518.5 c 128,-1,2
 91 625 91 625 137 704 c 0,3,4
 184 785 184 785 250 843 c 0,5,6
 283 873 283 873 321.5 897.5 c 128,-1,7
 360 922 360 922 400.5 939.5 c 128,-1,8
 441 957 441 957 482.5 967 c 128,-1,9
 524 977 524 977 563 977 c 0,10,11
 620 977 620 977 670 960 c 128,-1,12
 720 943 720 943 757 906 c 128,-1,13
 794 869 794 869 815.5 809.5 c 128,-1,14
 837 750 837 750 837 665 c 0,15,16
 837 509 837 509 776 357 c 0,17,18
 727 236 727 236 664 159 c 0,19,20
 633 122 633 122 591 89 c 128,-1,21
 549 56 549 56 501.5 31 c 128,-1,22
 454 6 454 6 403 -8.5 c 128,-1,23
 352 -23 352 -23 303 -23 c 0,24,25
 243 -23 243 -23 194.5 -3.5 c 128,-1,26
 146 16 146 16 111.5 54.5 c 128,-1,27
 77 93 77 93 58 151 c 128,-1,28
 39 209 39 209 39 287 c 0,0,1
198 301 m 0,29,30
 198 168 198 168 244.5 110.5 c 128,-1,31
 291 53 291 53 384 53 c 0,32,33
 418 53 418 53 445.5 61 c 128,-1,34
 473 69 473 69 497.5 87.5 c 128,-1,35
 522 106 522 106 544.5 136.5 c 128,-1,36
 567 167 567 167 590 212 c 0,37,38
 614 259 614 259 630.5 312 c 128,-1,39
 647 365 647 365 658 426 c 0,40,41
 669 489 669 489 674 544 c 128,-1,42
 679 599 679 599 679 648 c 0,43,44
 679 775 679 775 633.5 839.5 c 128,-1,45
 588 904 588 904 497 904 c 0,46,47
 424 904 424 904 368 856.5 c 128,-1,48
 312 809 312 809 274 727.5 c 128,-1,49
 236 646 236 646 217 536 c 128,-1,50
 198 426 198 426 198 301 c 0,29,30
EndSplineSet
Substitution2: "<17001,16003> Urdu lookup 95 subtable" o
EndChar

StartChar: p
Encoding: 112 112 83
Width: 1024
GlyphClass: 2
Flags: W
LayerCount: 2
Fore
SplineSet
2 -561 m 1,0,-1
 -10 -549 l 1,1,2
 -7 -535 -7 -535 0 -504 c 128,-1,3
 7 -473 7 -473 15 -434 c 128,-1,4
 23 -395 23 -395 32 -352 c 128,-1,5
 41 -309 41 -309 48.5 -272 c 128,-1,6
 56 -235 56 -235 61.5 -207.5 c 128,-1,7
 67 -180 67 -180 69 -171 c 0,8,9
 109 38 109 38 137.5 195.5 c 128,-1,10
 166 353 166 353 185 468 c 0,11,12
 197 540 197 540 206.5 614.5 c 128,-1,13
 216 689 216 689 224 769 c 0,14,15
 227 793 227 793 227 805 c 0,16,17
 227 822 227 822 218.5 830.5 c 128,-1,18
 210 839 210 839 199 839 c 0,19,20
 195 839 195 839 189.5 838 c 128,-1,21
 184 837 184 837 174 832.5 c 128,-1,22
 164 828 164 828 147 819 c 128,-1,23
 130 810 130 810 102 792 c 2,24,-1
 23 742 l 1,25,-1
 3 780 l 1,26,27
 49 819 49 819 99.5 854 c 128,-1,28
 150 889 150 889 196.5 915.5 c 128,-1,29
 243 942 243 942 281.5 958 c 128,-1,30
 320 974 320 974 344 974 c 0,31,32
 366 974 366 974 378.5 962 c 128,-1,33
 391 950 391 950 391 927 c 0,34,35
 391 920 391 920 391 913 c 128,-1,36
 391 906 391 906 390 895 c 128,-1,37
 389 884 389 884 386.5 866.5 c 128,-1,38
 384 849 384 849 378 820 c 0,39,40
 366 757 366 757 359 720 c 128,-1,41
 352 683 352 683 347.5 660.5 c 128,-1,42
 343 638 343 638 341 625 c 128,-1,43
 339 612 339 612 336 597 c 1,44,45
 421 737 421 737 516 821 c 128,-1,46
 611 905 611 905 705 944 c 0,47,48
 775 973 775 973 826 973 c 0,49,50
 849 973 849 973 871 962 c 128,-1,51
 893 951 893 951 909.5 925 c 128,-1,52
 926 899 926 899 936 855 c 128,-1,53
 946 811 946 811 946 745 c 0,54,55
 946 624 946 624 890 458 c 0,56,57
 847 328 847 328 788 247 c 1,58,59
 732 168 732 168 630 97 c 0,60,61
 597 75 597 75 561.5 53.5 c 128,-1,62
 526 32 526 32 491.5 15 c 128,-1,63
 457 -2 457 -2 425.5 -12 c 128,-1,64
 394 -22 394 -22 368 -22 c 0,65,66
 357 -22 357 -22 348 -21.5 c 128,-1,67
 339 -21 339 -21 326 -18.5 c 128,-1,68
 313 -16 313 -16 292 -10 c 128,-1,69
 271 -4 271 -4 236 7 c 1,70,71
 231 -31 231 -31 220.5 -94 c 128,-1,72
 210 -157 210 -157 196 -245 c 2,73,-1
 152 -528 l 1,74,75
 49 -542 49 -542 2 -561 c 1,0,-1
256 120 m 1,76,77
 339 72 339 72 428 72 c 0,78,79
 466 72 466 72 496 79.5 c 128,-1,80
 526 87 526 87 551.5 103.5 c 128,-1,81
 577 120 577 120 599.5 146.5 c 128,-1,82
 622 173 622 173 644 210 c 0,83,84
 714 327 714 327 753 471 c 0,85,86
 792 614 792 614 792 718 c 0,87,88
 792 763 792 763 787.5 790.5 c 128,-1,89
 783 818 783 818 774 833 c 128,-1,90
 765 848 765 848 752 853 c 128,-1,91
 739 858 739 858 722 858 c 0,92,93
 664 858 664 858 600.5 821 c 128,-1,94
 537 784 537 784 479 719 c 128,-1,95
 421 654 421 654 373.5 564 c 128,-1,96
 326 474 326 474 301 368 c 0,97,98
 296 346 296 346 284.5 284.5 c 128,-1,99
 273 223 273 223 256 120 c 1,76,77
EndSplineSet
Substitution2: "<17001,16003> Urdu lookup 95 subtable" p
EndChar

StartChar: q
Encoding: 113 113 84
Width: 948
GlyphClass: 2
Flags: W
LayerCount: 2
Fore
SplineSet
447 -567 m 1,0,-1
 429 -542 l 1,1,2
 440 -533 440 -533 446 -527 c 128,-1,3
 452 -521 452 -521 457 -512 c 128,-1,4
 462 -503 462 -503 466.5 -487.5 c 128,-1,5
 471 -472 471 -472 478 -443 c 0,6,7
 492 -386 492 -386 514.5 -268 c 128,-1,8
 537 -150 537 -150 571 33 c 0,9,10
 581 84 581 84 596.5 177 c 128,-1,11
 612 270 612 270 635 409 c 1,12,13
 592 342 592 342 543 282 c 128,-1,14
 494 222 494 222 437 167 c 0,15,16
 399 130 399 130 356.5 96 c 128,-1,17
 314 62 314 62 274.5 36.5 c 128,-1,18
 235 11 235 11 201 -4.5 c 128,-1,19
 167 -20 167 -20 145 -20 c 0,20,21
 127 -20 127 -20 112 -5.5 c 128,-1,22
 97 9 97 9 85.5 33.5 c 128,-1,23
 74 58 74 58 67.5 91.5 c 128,-1,24
 61 125 61 125 61 163 c 0,25,26
 61 296 61 296 104 465 c 0,27,28
 148 639 148 639 206 732 c 0,29,30
 224 761 224 761 256.5 792 c 128,-1,31
 289 823 289 823 325.5 851.5 c 128,-1,32
 362 880 362 880 397 902.5 c 128,-1,33
 432 925 432 925 455 937 c 0,34,35
 516 968 516 968 586 968 c 0,36,37
 706 968 706 968 794 922 c 1,38,-1
 860 970 l 1,39,-1
 889 956 l 1,40,41
 872 886 872 886 848 776.5 c 128,-1,42
 824 667 824 667 793 517 c 0,43,44
 742 273 742 273 703 37 c 0,45,46
 678 -119 678 -119 657.5 -258 c 128,-1,47
 637 -397 637 -397 620 -526 c 1,48,49
 566 -537 566 -537 523.5 -547 c 128,-1,50
 481 -557 481 -557 447 -567 c 1,0,-1
722 818 m 1,51,52
 630 868 630 868 539 868 c 0,53,54
 486 868 486 868 451 860.5 c 128,-1,55
 416 853 416 853 389.5 831 c 128,-1,56
 363 809 363 809 342 768.5 c 128,-1,57
 321 728 321 728 295 662 c 0,58,59
 273 605 273 605 256.5 538.5 c 128,-1,60
 240 472 240 472 228 396 c 0,61,62
 219 341 219 341 213.5 294 c 128,-1,63
 208 247 208 247 209 207 c 1,64,65
 209 158 209 158 223.5 138.5 c 128,-1,66
 238 119 238 119 256 119 c 0,67,68
 285 119 285 119 341.5 155.5 c 128,-1,69
 398 192 398 192 466 261 c 0,70,71
 510 305 510 305 544 347 c 128,-1,72
 578 389 578 389 604 430.5 c 128,-1,73
 630 472 630 472 647.5 514.5 c 128,-1,74
 665 557 665 557 676 602 c 0,75,76
 691 665 691 665 702.5 718.5 c 128,-1,77
 714 772 714 772 722 818 c 1,51,52
EndSplineSet
Substitution2: "<17001,16003> Urdu lookup 95 subtable" q
EndChar

StartChar: r
Encoding: 114 114 85
Width: 797
GlyphClass: 2
Flags: W
LayerCount: 2
Fore
SplineSet
118 -22 m 1,0,-1
 100 -8 l 1,1,2
 125 77 125 77 144 146 c 128,-1,3
 163 215 163 215 176 272 c 0,4,5
 226 492 226 492 251 657 c 0,6,7
 259 706 259 706 262 739 c 128,-1,8
 265 772 265 772 265 791 c 0,9,10
 265 836 265 836 241 836 c 0,11,12
 209 836 209 836 72 738 c 1,13,-1
 48 771 l 1,14,15
 104 818 104 818 156.5 855.5 c 128,-1,16
 209 893 209 893 254 919.5 c 128,-1,17
 299 946 299 946 333.5 960.5 c 128,-1,18
 368 975 368 975 388 975 c 0,19,20
 406 975 406 975 417 963 c 128,-1,21
 428 951 428 951 428 926 c 0,22,23
 428 909 428 909 422 869 c 128,-1,24
 416 829 416 829 405.5 776 c 128,-1,25
 395 723 395 723 382 661 c 128,-1,26
 369 599 369 599 355 538 c 1,27,28
 464 726 464 726 569 853 c 0,29,30
 602 893 602 893 626.5 917.5 c 128,-1,31
 651 942 651 942 671 955 c 128,-1,32
 691 968 691 968 708 972.5 c 128,-1,33
 725 977 725 977 743 977 c 0,34,35
 758 977 758 977 783 966 c 1,36,37
 775 921 775 921 766 866.5 c 128,-1,38
 757 812 757 812 749 745 c 1,39,-1
 722 739 l 1,40,41
 692 779 692 779 655 779 c 0,42,43
 621 779 621 779 577 749 c 128,-1,44
 533 719 533 719 488 662.5 c 128,-1,45
 443 606 443 606 401 525 c 128,-1,46
 359 444 359 444 330 343 c 0,47,48
 306 261 306 261 255 13 c 1,49,50
 210 3 210 3 175.5 -5.5 c 128,-1,51
 141 -14 141 -14 118 -22 c 1,0,-1
EndSplineSet
Substitution2: "<17001,16003> Urdu lookup 95 subtable" r
EndChar

StartChar: s
Encoding: 115 115 86
Width: 797
GlyphClass: 2
Flags: W
LayerCount: 2
Fore
SplineSet
23 23 m 1,0,1
 34 75 34 75 42 113 c 128,-1,2
 50 151 50 151 54 177 c 0,3,4
 61 228 61 228 66 293 c 1,5,-1
 116 293 l 1,6,-1
 115 125 l 1,7,8
 144 101 144 101 169.5 86 c 128,-1,9
 195 71 195 71 219.5 62.5 c 128,-1,10
 244 54 244 54 268.5 50.5 c 128,-1,11
 293 47 293 47 319 47 c 0,12,13
 367 47 367 47 409 64 c 128,-1,14
 451 81 451 81 481.5 110 c 128,-1,15
 512 139 512 139 529.5 178.5 c 128,-1,16
 547 218 547 218 547 263 c 0,17,18
 547 311 547 311 530.5 344.5 c 128,-1,19
 514 378 514 378 485 392 c 0,20,21
 458 405 458 405 370 418 c 0,22,23
 307 428 307 428 264 438.5 c 128,-1,24
 221 449 221 449 198 460 c 0,25,26
 152 483 152 483 125.5 531 c 128,-1,27
 99 579 99 579 99 639 c 0,28,29
 99 724 99 724 148.5 789 c 128,-1,30
 198 854 198 854 293 911 c 0,31,32
 325 931 325 931 351 943 c 128,-1,33
 377 955 377 955 401 962.5 c 128,-1,34
 425 970 425 970 449 972.5 c 128,-1,35
 473 975 473 975 501 975 c 0,36,37
 559 975 559 975 609 962.5 c 128,-1,38
 659 950 659 950 704 924 c 1,39,40
 698 905 698 905 694.5 895 c 128,-1,41
 691 885 691 885 689 877.5 c 128,-1,42
 687 870 687 870 685.5 860 c 128,-1,43
 684 850 684 850 682 831 c 128,-1,44
 680 812 680 812 676.5 778.5 c 128,-1,45
 673 745 673 745 667 691 c 1,46,-1
 620 691 l 1,47,48
 619 774 619 774 617 814 c 1,49,50
 546 891 546 891 428 891 c 0,51,52
 382 891 382 891 343.5 876.5 c 128,-1,53
 305 862 305 862 277.5 837.5 c 128,-1,54
 250 813 250 813 234.5 779 c 128,-1,55
 219 745 219 745 219 706 c 0,56,57
 219 676 219 676 227 652 c 128,-1,58
 235 628 235 628 256.5 609 c 128,-1,59
 278 590 278 590 315 576.5 c 128,-1,60
 352 563 352 563 410 554 c 0,61,62
 467 546 467 546 506 538.5 c 128,-1,63
 545 531 545 531 565 522 c 0,64,65
 623 499 623 499 653 456 c 128,-1,66
 683 413 683 413 683 353 c 0,67,68
 683 209 683 209 551 98 c 0,69,70
 485 43 485 43 408.5 5.5 c 128,-1,71
 332 -32 332 -32 241 -33 c 0,72,73
 213 -33 213 -33 188 -30 c 128,-1,74
 163 -27 163 -27 137.5 -20 c 128,-1,75
 112 -13 112 -13 84 -2.5 c 128,-1,76
 56 8 56 8 23 23 c 1,0,1
EndSplineSet
Substitution2: "<17001,16003> Urdu lookup 95 subtable" s
EndChar

StartChar: t
Encoding: 116 116 87
Width: 682
GlyphClass: 2
Flags: W
LayerCount: 2
Fore
SplineSet
541 238 m 1,0,-1
 564 202 l 1,1,2
 522 168 522 168 475.5 133 c 128,-1,3
 429 98 429 98 386.5 68 c 128,-1,4
 344 38 344 38 308.5 16 c 128,-1,5
 273 -6 273 -6 253 -15 c 0,6,7
 233 -25 233 -25 208 -25 c 0,8,9
 182 -25 182 -25 163 -1 c 128,-1,10
 144 23 144 23 144 80 c 0,11,12
 144 104 144 104 148 134.5 c 128,-1,13
 152 165 152 165 162 217 c 1,14,-1
 207 422 l 2,15,16
 219 477 219 477 236 568 c 128,-1,17
 253 659 253 659 278 791 c 1,18,-1
 107 787 l 1,19,-1
 112 817 l 1,20,21
 157 834 157 834 182.5 844 c 128,-1,22
 208 854 208 854 224.5 861.5 c 128,-1,23
 241 869 241 869 255 875.5 c 128,-1,24
 269 882 269 882 291 893 c 1,25,26
 293 906 293 906 297 930.5 c 128,-1,27
 301 955 301 955 306 987 c 128,-1,28
 311 1019 311 1019 316.5 1054.5 c 128,-1,29
 322 1090 322 1090 327 1124 c 128,-1,30
 332 1158 332 1158 336.5 1188 c 128,-1,31
 341 1218 341 1218 343 1238 c 1,32,-1
 430 1275 l 1,33,-1
 500 1310 l 1,34,-1
 524 1292 l 1,35,36
 515 1258 515 1258 503 1204.5 c 128,-1,37
 491 1151 491 1151 478 1093 c 128,-1,38
 465 1035 465 1035 452.5 978.5 c 128,-1,39
 440 922 440 922 432 881 c 1,40,41
 455 880 455 880 472.5 879.5 c 128,-1,42
 490 879 490 879 504 879 c 0,43,44
 606 879 606 879 645 892 c 1,45,-1
 655 884 l 1,46,-1
 631 786 l 1,47,48
 610 786 610 786 556.5 787.5 c 128,-1,49
 503 789 503 789 415 791 c 1,50,51
 414 786 414 786 410 766.5 c 128,-1,52
 406 747 406 747 400.5 719.5 c 128,-1,53
 395 692 395 692 388.5 660 c 128,-1,54
 382 628 382 628 376 598.5 c 128,-1,55
 370 569 370 569 365 544.5 c 128,-1,56
 360 520 360 520 358 508 c 0,57,58
 331 368 331 368 317.5 283 c 128,-1,59
 304 198 304 198 303 163 c 0,60,61
 303 140 303 140 314 128.5 c 128,-1,62
 325 117 325 117 341 117 c 0,63,64
 361 117 361 117 386 130.5 c 128,-1,65
 411 144 411 144 441 164 c 1,66,-1
 541 238 l 1,0,-1
EndSplineSet
Substitution2: "<17001,16003> Urdu lookup 95 subtable" t
EndChar

StartChar: u
Encoding: 117 117 88
Width: 1139
GlyphClass: 2
Flags: W
LayerCount: 2
Fore
SplineSet
97 751 m 1,0,-1
 77 790 l 1,1,2
 94 803 94 803 120 821.5 c 128,-1,3
 146 840 146 840 177.5 860.5 c 128,-1,4
 209 881 209 881 243 901.5 c 128,-1,5
 277 922 277 922 309 938.5 c 128,-1,6
 341 955 341 955 368.5 965.5 c 128,-1,7
 396 976 396 976 414 976 c 0,8,9
 433 976 433 976 445.5 961.5 c 128,-1,10
 458 947 458 947 458 922 c 0,11,12
 458 896 458 896 442 833 c 0,13,14
 302 259 302 259 302 164 c 0,15,16
 302 141 302 141 310.5 130.5 c 128,-1,17
 319 120 319 120 332 120 c 0,18,19
 362 120 362 120 408 151 c 128,-1,20
 454 182 454 182 506 232.5 c 128,-1,21
 558 283 558 283 610.5 348 c 128,-1,22
 663 413 663 413 706 482 c 0,23,24
 728 517 728 517 748 560.5 c 128,-1,25
 768 604 768 604 785 658 c 0,26,27
 802 710 802 710 818.5 779.5 c 128,-1,28
 835 849 835 849 852 939 c 1,29,30
 865 941 865 941 898.5 949 c 128,-1,31
 932 957 932 957 989 971 c 1,32,-1
 1004 956 l 1,33,-1
 950 775 l 1,34,35
 930 703 930 703 911.5 627 c 128,-1,36
 893 551 893 551 874 466 c 0,37,38
 860 400 860 400 850.5 353 c 128,-1,39
 841 306 841 306 835 271.5 c 128,-1,40
 829 237 829 237 826.5 212 c 128,-1,41
 824 187 824 187 824 165 c 0,42,43
 824 140 824 140 833 129 c 128,-1,44
 842 118 842 118 856 118 c 0,45,46
 865 118 865 118 872 119 c 128,-1,47
 879 120 879 120 894 129.5 c 128,-1,48
 909 139 909 139 937 159.5 c 128,-1,49
 965 180 965 180 1016 219 c 1,50,-1
 1038 181 l 1,51,52
 963 120 963 120 909.5 80 c 128,-1,53
 856 40 856 40 818.5 16.5 c 128,-1,54
 781 -7 781 -7 757 -16 c 128,-1,55
 733 -25 733 -25 716 -25 c 0,56,57
 697 -25 697 -25 681.5 -6.5 c 128,-1,58
 666 12 666 12 666 46 c 0,59,60
 666 60 666 60 668 76 c 128,-1,61
 670 92 670 92 674.5 118.5 c 128,-1,62
 679 145 679 145 687 184 c 128,-1,63
 695 223 695 223 708 281 c 2,64,-1
 749 457 l 1,65,-1
 743 460 l 1,66,67
 733 446 733 446 713.5 418.5 c 128,-1,68
 694 391 694 391 674 363 c 128,-1,69
 654 335 654 335 638.5 313 c 128,-1,70
 623 291 623 291 621 289 c 0,71,72
 583 242 583 242 540 198 c 128,-1,73
 497 154 497 154 449 112 c 0,74,75
 419 85 419 85 386.5 60.5 c 128,-1,76
 354 36 354 36 323 16.5 c 128,-1,77
 292 -3 292 -3 264.5 -14.5 c 128,-1,78
 237 -26 237 -26 217 -26 c 0,79,80
 189 -26 189 -26 167 1.5 c 128,-1,81
 145 29 145 29 145 87 c 0,82,83
 145 165 145 165 184 322 c 0,84,85
 213 440 213 440 233 530 c 128,-1,86
 253 620 253 620 266 689 c 0,87,88
 282 775 282 775 282 804 c 0,89,90
 282 836 282 836 256 836 c 0,91,92
 221 836 221 836 97 751 c 1,0,-1
EndSplineSet
Substitution2: "<17001,16003> Urdu lookup 95 subtable" u
EndChar

StartChar: v
Encoding: 118 118 89
Width: 1024
GlyphClass: 2
Flags: W
LayerCount: 2
Fore
SplineSet
38 707 m 1,0,-1
 122 945 l 1,1,2
 169 960 169 960 207 960 c 0,3,4
 225 960 225 960 245 959 c 128,-1,5
 265 958 265 958 287 956 c 0,6,7
 350 949 350 949 392 946 c 128,-1,8
 434 943 434 943 457 943 c 0,9,10
 509 943 509 943 562 960 c 1,11,-1
 580 933 l 1,12,13
 535 876 535 876 508 838 c 128,-1,14
 481 800 481 800 468 781 c 0,15,16
 383 649 383 649 344.5 528 c 128,-1,17
 306 407 306 407 305 295 c 0,18,19
 305 240 305 240 317 199 c 128,-1,20
 329 158 329 158 350.5 131 c 128,-1,21
 372 104 372 104 401 90.5 c 128,-1,22
 430 77 430 77 464 77 c 0,23,24
 509 77 509 77 554.5 100.5 c 128,-1,25
 600 124 600 124 641 167 c 128,-1,26
 682 210 682 210 717.5 269.5 c 128,-1,27
 753 329 753 329 780 401 c 0,28,29
 843 572 843 572 843 697 c 0,30,31
 843 759 843 759 823.5 794 c 128,-1,32
 804 829 804 829 754 829 c 0,33,34
 729 829 729 829 700 812 c 1,35,-1
 678 847 l 1,36,37
 710 873 710 873 727 890 c 2,38,-1
 790 957 l 1,39,40
 801 962 801 962 812.5 964 c 128,-1,41
 824 966 824 966 835 966 c 0,42,43
 864 966 864 966 889 952.5 c 128,-1,44
 914 939 914 939 932.5 914.5 c 128,-1,45
 951 890 951 890 961.5 855.5 c 128,-1,46
 972 821 972 821 972 778 c 0,47,48
 972 679 972 679 938 574 c 0,49,50
 921 519 921 519 897 466 c 128,-1,51
 873 413 873 413 844 361 c 0,52,53
 814 307 814 307 781 261 c 128,-1,54
 748 215 748 215 713 173 c 1,55,56
 666 120 666 120 620 82 c 128,-1,57
 574 44 574 44 531.5 19.5 c 128,-1,58
 489 -5 489 -5 451.5 -17 c 128,-1,59
 414 -29 414 -29 385 -29 c 0,60,61
 336 -29 336 -29 294.5 -8.5 c 128,-1,62
 253 12 253 12 223 47 c 128,-1,63
 193 82 193 82 176 130.5 c 128,-1,64
 159 179 159 179 159 234 c 0,65,66
 159 377 159 377 224 518 c 1,67,68
 257 587 257 587 317 669.5 c 128,-1,69
 377 752 377 752 464 849 c 1,70,71
 415 840 415 840 361 840 c 1,72,-1
 272 843 l 1,73,74
 240 843 240 843 210 840 c 128,-1,75
 180 837 180 837 151 832 c 1,76,77
 129 802 129 802 80 706 c 1,78,-1
 38 707 l 1,0,-1
EndSplineSet
Substitution2: "<17001,16003> Urdu lookup 95 subtable" v
EndChar

StartChar: w
Encoding: 119 119 90
Width: 1479
GlyphClass: 2
Flags: W
LayerCount: 2
Fore
SplineSet
43 696 m 1,0,1
 50 747 50 747 67.5 808.5 c 128,-1,2
 85 870 85 870 114 942 c 1,3,4
 161 954 161 954 196 954 c 0,5,6
 226 954 226 954 370 945 c 0,7,8
 417 942 417 942 445 942 c 0,9,10
 501 942 501 942 559 961 c 1,11,-1
 576 932 l 1,12,13
 483 820 483 820 441 748 c 0,14,15
 371 629 371 629 336 514 c 128,-1,16
 301 399 301 399 301 275 c 0,17,18
 301 187 301 187 331 134 c 128,-1,19
 361 81 361 81 415 81 c 0,20,21
 447 81 447 81 488 112 c 128,-1,22
 529 143 529 143 571 198.5 c 128,-1,23
 613 254 613 254 651.5 331 c 128,-1,24
 690 408 690 408 715 501 c 1,25,26
 744 598 744 598 767 702.5 c 128,-1,27
 790 807 790 807 809 925 c 1,28,29
 846 930 846 930 883.5 940.5 c 128,-1,30
 921 951 921 951 959 965 c 1,31,-1
 973 954 l 1,32,-1
 922 785 l 2,33,34
 909 743 909 743 897 692 c 128,-1,35
 885 641 885 641 870 578 c 0,36,37
 856 515 856 515 847 465 c 128,-1,38
 838 415 838 415 833 375 c 0,39,40
 829 346 829 346 827 318 c 128,-1,41
 825 290 825 290 825 264 c 0,42,43
 825 219 825 219 835.5 185 c 128,-1,44
 846 151 846 151 863.5 128.5 c 128,-1,45
 881 106 881 106 904.5 94.5 c 128,-1,46
 928 83 928 83 954 83 c 0,47,48
 994 83 994 83 1034.5 105 c 128,-1,49
 1075 127 1075 127 1112.5 167.5 c 128,-1,50
 1150 208 1150 208 1182.5 265 c 128,-1,51
 1215 322 1215 322 1240 392 c 0,52,53
 1298 554 1298 554 1298 685 c 0,54,55
 1298 761 1298 761 1269.5 796.5 c 128,-1,56
 1241 832 1241 832 1199 832 c 0,57,58
 1170 832 1170 832 1139 816 c 1,59,-1
 1113 845 l 1,60,-1
 1172 901 l 2,61,62
 1176 905 1176 905 1188.5 919 c 128,-1,63
 1201 933 1201 933 1223 957 c 1,64,65
 1252 967 1252 967 1280 967 c 0,66,67
 1343 967 1343 967 1384 918 c 128,-1,68
 1425 869 1425 869 1425 766 c 0,69,70
 1425 634 1425 634 1362 482 c 0,71,72
 1286 298 1286 298 1182 176 c 0,73,74
 1091 70 1091 70 1011 21.5 c 128,-1,75
 931 -27 931 -27 863 -27 c 0,76,77
 827 -27 827 -27 796 -12.5 c 128,-1,78
 765 2 765 2 742 28.5 c 128,-1,79
 719 55 719 55 706 92 c 128,-1,80
 693 129 693 129 693 173 c 0,81,82
 693 218 693 218 698 264 c 128,-1,83
 703 310 703 310 713 361 c 1,84,-1
 623 201 l 1,85,86
 591 150 591 150 555.5 108 c 128,-1,87
 520 66 520 66 483 36 c 128,-1,88
 446 6 446 6 408.5 -10.5 c 128,-1,89
 371 -27 371 -27 335 -27 c 0,90,91
 291 -27 291 -27 257 -6.5 c 128,-1,92
 223 14 223 14 200 50 c 128,-1,93
 177 86 177 86 165 135.5 c 128,-1,94
 153 185 153 185 153 243 c 0,95,96
 153 344 153 344 191 450 c 0,97,98
 229 555 229 555 311 669 c 0,99,100
 353 726 353 726 389.5 771.5 c 128,-1,101
 426 817 426 817 460 852 c 1,102,103
 432 846 432 846 396.5 841.5 c 128,-1,104
 361 837 361 837 316 838 c 2,105,-1
 210 840 l 2,106,107
 185 840 185 840 170 839.5 c 128,-1,108
 155 839 155 839 143 826 c 128,-1,109
 131 813 131 813 118.5 783.5 c 128,-1,110
 106 754 106 754 84 695 c 1,111,-1
 43 696 l 1,0,1
EndSplineSet
Substitution2: "<17001,16003> Urdu lookup 95 subtable" w
EndChar

StartChar: x
Encoding: 120 120 91
Width: 1024
GlyphClass: 2
Flags: W
LayerCount: 2
Fore
SplineSet
8 2 m 1,0,-1
 27 102 l 2,1,2
 30 118 30 118 30.5 136.5 c 128,-1,3
 31 155 31 155 33 178 c 1,4,-1
 72 185 l 1,5,-1
 95 127 l 1,6,7
 124 110 124 110 143 110 c 0,8,9
 165 110 165 110 184.5 117.5 c 128,-1,10
 204 125 204 125 224.5 140.5 c 128,-1,11
 245 156 245 156 267.5 181 c 128,-1,12
 290 206 290 206 317 241 c 0,13,14
 334 263 334 263 365.5 312 c 128,-1,15
 397 361 397 361 445 437 c 1,16,17
 429 548 429 548 413.5 625.5 c 128,-1,18
 398 703 398 703 380 751.5 c 128,-1,19
 362 800 362 800 340 821.5 c 128,-1,20
 318 843 318 843 288 843 c 0,21,22
 274 843 274 843 261.5 841 c 128,-1,23
 249 839 249 839 235 832 c 128,-1,24
 221 825 221 825 204.5 811 c 128,-1,25
 188 797 188 797 165 773 c 2,26,-1
 139 747 l 1,27,-1
 103 768 l 1,28,-1
 223 939 l 1,29,30
 275 974 275 974 341 974 c 0,31,32
 439 974 439 974 489 885 c 0,33,34
 527 819 527 819 549 605 c 1,35,-1
 661 774 l 1,36,37
 729 873 729 873 794.5 924.5 c 128,-1,38
 860 976 860 976 910 976 c 0,39,40
 940 976 940 976 972 959 c 1,41,42
 964 917 964 917 956 875 c 128,-1,43
 948 833 948 833 941 785 c 1,44,-1
 914 779 l 1,45,46
 899 806 899 806 885.5 815 c 128,-1,47
 872 824 872 824 850 824 c 0,48,49
 810 824 810 824 775 801.5 c 128,-1,50
 740 779 740 779 697 728 c 0,51,52
 681 709 681 709 647.5 663.5 c 128,-1,53
 614 618 614 618 563 545 c 1,54,55
 580 442 580 442 592.5 374.5 c 128,-1,56
 605 307 605 307 613 274 c 0,57,58
 636 186 636 186 662.5 146.5 c 128,-1,59
 689 107 689 107 725 107 c 0,60,61
 740 107 740 107 754 110.5 c 128,-1,62
 768 114 768 114 785.5 124 c 128,-1,63
 803 134 803 134 826 152.5 c 128,-1,64
 849 171 849 171 882 201 c 1,65,-1
 905 165 l 1,66,67
 810 74 810 74 744.5 25.5 c 128,-1,68
 679 -23 679 -23 630 -23 c 0,69,70
 597 -23 597 -23 572 -5.5 c 128,-1,71
 547 12 547 12 527 56 c 128,-1,72
 507 100 507 100 490.5 175.5 c 128,-1,73
 474 251 474 251 459 368 c 1,74,75
 294 94 294 94 201 17 c 0,76,77
 150 -25 150 -25 90 -25 c 0,78,79
 43 -25 43 -25 8 2 c 1,0,-1
EndSplineSet
Substitution2: "<17001,16003> Urdu lookup 95 subtable" x
EndChar

StartChar: y
Encoding: 121 121 92
Width: 1024
GlyphClass: 2
Flags: W
LayerCount: 2
Fore
SplineSet
-12 -370 m 1,0,-1
 87 -303 l 1,1,-1
 108 -310 l 1,2,3
 107 -320 107 -320 106.5 -327.5 c 128,-1,4
 106 -335 106 -335 106 -341 c 0,5,6
 106 -372 106 -372 116.5 -398 c 128,-1,7
 127 -424 127 -424 145 -443 c 128,-1,8
 163 -462 163 -462 187 -472.5 c 128,-1,9
 211 -483 211 -483 238 -483 c 0,10,11
 271 -483 271 -483 301 -472.5 c 128,-1,12
 331 -462 331 -462 359.5 -435 c 128,-1,13
 388 -408 388 -408 417.5 -361.5 c 128,-1,14
 447 -315 447 -315 479 -244 c 0,15,16
 505 -187 505 -187 533.5 -106.5 c 128,-1,17
 562 -26 562 -26 594 83 c 1,18,-1
 671 361 l 1,19,20
 624 289 624 289 572.5 226 c 128,-1,21
 521 163 521 163 475.5 115.5 c 128,-1,22
 430 68 430 68 395.5 37.5 c 128,-1,23
 361 7 361 7 348 -1 c 0,24,25
 304 -27 304 -27 278 -27 c 0,26,27
 258 -27 258 -27 241.5 -13.5 c 128,-1,28
 225 0 225 0 213.5 24 c 128,-1,29
 202 48 202 48 195.5 80.5 c 128,-1,30
 189 113 189 113 189 152 c 0,31,32
 189 171 189 171 192.5 211 c 128,-1,33
 196 251 196 251 203 312 c 0,34,35
 227 531 227 531 227 698 c 0,36,37
 227 737 227 737 225 762.5 c 128,-1,38
 223 788 223 788 218.5 803 c 128,-1,39
 214 818 214 818 206.5 823.5 c 128,-1,40
 199 829 199 829 189 829 c 0,41,42
 161 829 161 829 63 755 c 0,43,44
 55 749 55 749 48.5 744 c 128,-1,45
 42 739 42 739 38 737 c 1,46,-1
 11 773 l 1,47,48
 55 811 55 811 99.5 846 c 128,-1,49
 144 881 144 881 185 909 c 128,-1,50
 226 937 226 937 260 953.5 c 128,-1,51
 294 970 294 970 316 970 c 0,52,53
 331 970 331 970 342.5 964.5 c 128,-1,54
 354 959 354 959 362.5 945 c 128,-1,55
 371 931 371 931 375.5 906 c 128,-1,56
 380 881 380 881 380 843 c 0,57,58
 380 778 380 778 362 569 c 0,59,60
 351 445 351 445 345.5 357 c 128,-1,61
 340 269 340 269 340 214 c 0,62,63
 340 168 340 168 349.5 150 c 128,-1,64
 359 132 359 132 379 132 c 0,65,66
 398 132 398 132 425 149 c 128,-1,67
 452 166 452 166 482 194.5 c 128,-1,68
 512 223 512 223 543.5 260.5 c 128,-1,69
 575 298 575 298 603 340 c 0,70,71
 641 398 641 398 675 463.5 c 128,-1,72
 709 529 709 529 735 604 c 0,73,74
 752 650 752 650 774.5 731.5 c 128,-1,75
 797 813 797 813 826 934 c 1,76,77
 855 939 855 939 892 948.5 c 128,-1,78
 929 958 929 958 977 972 c 1,79,-1
 999 952 l 1,80,81
 985 923 985 923 971.5 888 c 128,-1,82
 958 853 958 853 944 813 c 0,83,84
 943 810 943 810 933 777.5 c 128,-1,85
 923 745 923 745 907 693 c 128,-1,86
 891 641 891 641 871 575 c 128,-1,87
 851 509 851 509 830 440.5 c 128,-1,88
 809 372 809 372 788.5 306.5 c 128,-1,89
 768 241 768 241 752.5 189 c 128,-1,90
 737 137 737 137 727 104.5 c 128,-1,91
 717 72 717 72 716 70 c 0,92,93
 684 -24 684 -24 653 -98.5 c 128,-1,94
 622 -173 622 -173 589 -230 c 0,95,96
 556 -289 556 -289 517 -340.5 c 128,-1,97
 478 -392 478 -392 430 -436 c 1,98,99
 360 -505 360 -505 289.5 -535 c 128,-1,100
 219 -565 219 -565 156 -565 c 0,101,102
 117 -565 117 -565 85.5 -551.5 c 128,-1,103
 54 -538 54 -538 31 -515.5 c 128,-1,104
 8 -493 8 -493 -4.5 -464 c 128,-1,105
 -17 -435 -17 -435 -17 -404 c 0,106,107
 -17 -396 -17 -396 -15.5 -388 c 128,-1,108
 -14 -380 -14 -380 -12 -370 c 1,0,-1
EndSplineSet
Substitution2: "<17001,16003> Urdu lookup 95 subtable" y
EndChar

StartChar: z
Encoding: 122 122 93
Width: 909
GlyphClass: 2
Flags: W
LayerCount: 2
Fore
SplineSet
21 -14 m 1,0,-1
 0 42 l 1,1,-1
 708 837 l 1,2,3
 662 812 662 812 622.5 803 c 128,-1,4
 583 794 583 794 533 794 c 0,5,6
 481 794 481 794 335 815 c 0,7,8
 298 820 298 820 273 823 c 128,-1,9
 248 826 248 826 235 826 c 0,10,11
 216 826 216 826 193 814 c 1,12,13
 181 795 181 795 173.5 782.5 c 128,-1,14
 166 770 166 770 160 758 c 128,-1,15
 154 746 154 746 148.5 732 c 128,-1,16
 143 718 143 718 135 697 c 1,17,-1
 91 697 l 1,18,-1
 156 943 l 1,19,20
 183 956 183 956 204 959.5 c 128,-1,21
 225 963 225 963 254 963 c 0,22,23
 277 963 277 963 308 958.5 c 128,-1,24
 339 954 339 954 374 947.5 c 128,-1,25
 409 941 409 941 444.5 933 c 128,-1,26
 480 925 480 925 511.5 917.5 c 128,-1,27
 543 910 543 910 566.5 904.5 c 128,-1,28
 590 899 590 899 601 897 c 0,29,30
 657 888 657 888 697 888 c 0,31,32
 716 888 716 888 729.5 889.5 c 128,-1,33
 743 891 743 891 757 898.5 c 128,-1,34
 771 906 771 906 788 920.5 c 128,-1,35
 805 935 805 935 830 962 c 1,36,-1
 848 946 l 1,37,-1
 835 882 l 1,38,-1
 157 123 l 1,39,40
 212 148 212 148 251 158 c 128,-1,41
 290 168 290 168 329 168 c 0,42,43
 350 168 350 168 392.5 160.5 c 128,-1,44
 435 153 435 153 482 143.5 c 128,-1,45
 529 134 529 134 571 126.5 c 128,-1,46
 613 119 613 119 633 119 c 0,47,48
 681 119 681 119 719 139 c 1,49,-1
 773 283 l 1,50,-1
 818 283 l 1,51,52
 816 274 816 274 808 236.5 c 128,-1,53
 800 199 800 199 786 133 c 2,54,-1
 758 -4 l 1,55,56
 731 -14 731 -14 703 -19.5 c 128,-1,57
 675 -25 675 -25 646 -25 c 0,58,59
 622 -25 622 -25 612 -25.5 c 128,-1,60
 602 -26 602 -26 588.5 -24 c 128,-1,61
 575 -22 575 -22 550 -16 c 128,-1,62
 525 -10 525 -10 473 3 c 0,63,64
 416 17 416 17 374.5 26.5 c 128,-1,65
 333 36 333 36 301 41.5 c 128,-1,66
 269 47 269 47 243 49 c 128,-1,67
 217 51 217 51 190 51 c 0,68,69
 143 51 143 51 103 37.5 c 128,-1,70
 63 24 63 24 21 -14 c 1,0,-1
EndSplineSet
Substitution2: "<17001,16003> Urdu lookup 95 subtable" z
EndChar

StartChar: braceleft
Encoding: 123 123 94
Width: 711
GlyphClass: 2
Flags: W
LayerCount: 2
Fore
SplineSet
98 462 m 1,0,1
 155 479 155 479 191.5 502.5 c 128,-1,2
 228 526 228 526 250.5 557 c 128,-1,3
 273 588 273 588 285.5 625 c 128,-1,4
 298 662 298 662 308 706 c 2,5,-1
 388 1085 l 2,6,7
 407 1172 407 1172 435 1230 c 128,-1,8
 463 1288 463 1288 506.5 1323 c 128,-1,9
 550 1358 550 1358 610.5 1372.5 c 128,-1,10
 671 1387 671 1387 754 1387 c 1,11,-1
 749 1362 l 1,12,-1
 740 1362 l 2,13,14
 707 1362 707 1362 677 1348.5 c 128,-1,15
 647 1335 647 1335 622.5 1305.5 c 128,-1,16
 598 1276 598 1276 578 1229.5 c 128,-1,17
 558 1183 558 1183 544 1118 c 2,18,-1
 464 740 l 2,19,20
 448 664 448 664 426 616 c 128,-1,21
 404 568 404 568 375.5 538 c 128,-1,22
 347 508 347 508 312.5 492 c 128,-1,23
 278 476 278 476 235 462 c 1,24,25
 287 445 287 445 315.5 422 c 128,-1,26
 344 399 344 399 355 366 c 128,-1,27
 366 333 366 333 362 288 c 128,-1,28
 358 243 358 243 345 181 c 2,29,-1
 266 -190 l 2,30,31
 252 -258 252 -258 253 -304 c 128,-1,32
 254 -350 254 -350 268 -378.5 c 128,-1,33
 282 -407 282 -407 308 -419.5 c 128,-1,34
 334 -432 334 -432 369 -432 c 1,35,-1
 364 -456 l 1,36,37
 289 -456 289 -456 241 -447 c 128,-1,38
 193 -438 193 -438 165.5 -419 c 128,-1,39
 138 -400 138 -400 126 -372.5 c 128,-1,40
 114 -345 114 -345 110 -307 c 0,41,42
 105 -249 105 -249 129 -134 c 2,43,-1
 202 211 l 2,44,45
 215 269 215 269 218 309 c 128,-1,46
 221 349 221 349 210.5 377.5 c 128,-1,47
 200 406 200 406 173 426 c 128,-1,48
 146 446 146 446 98 462 c 1,0,1
EndSplineSet
Substitution2: "<17001,16003> Urdu lookup 95 subtable" braceleft
EndChar

StartChar: bar
Encoding: 124 124 95
Width: 1241
GlyphClass: 2
Flags: W
LayerCount: 2
Fore
SplineSet
563 0 m 1,0,-1
 563 1501 l 1,1,-1
 678 1501 l 1,2,-1
 678 0 l 1,3,-1
 563 0 l 1,0,-1
EndSplineSet
Substitution2: "<17001,16003> Urdu lookup 95 subtable" bar
EndChar

StartChar: braceright
Encoding: 125 125 96
Width: 759
GlyphClass: 2
Flags: W
LayerCount: 2
Fore
SplineSet
507 462 m 1,0,1
 453 446 453 446 418 427.5 c 128,-1,2
 383 409 383 409 360.5 381 c 128,-1,3
 338 353 338 353 323 312 c 128,-1,4
 308 271 308 271 295 211 c 2,5,-1
 222 -134 l 2,6,7
 201 -233 201 -233 172 -295.5 c 128,-1,8
 143 -358 143 -358 100.5 -393 c 128,-1,9
 58 -428 58 -428 -2 -441.5 c 128,-1,10
 -62 -455 -62 -455 -147 -457 c 1,11,-1
 -141 -432 l 1,12,-1
 -131 -432 l 2,13,14
 -85 -432 -85 -432 -54 -417 c 128,-1,15
 -23 -402 -23 -402 -1.5 -372 c 128,-1,16
 20 -342 20 -342 34.5 -296.5 c 128,-1,17
 49 -251 49 -251 62 -190 c 2,18,-1
 141 181 l 2,19,20
 155 248 155 248 172.5 294 c 128,-1,21
 190 340 190 340 215.5 371.5 c 128,-1,22
 241 403 241 403 278.5 424 c 128,-1,23
 316 445 316 445 370 462 c 1,24,25
 321 479 321 479 293.5 501 c 128,-1,26
 266 523 266 523 253.5 555 c 128,-1,27
 241 587 241 587 243.5 632 c 128,-1,28
 246 677 246 677 260 740 c 2,29,-1
 340 1118 l 2,30,31
 354 1185 354 1185 353 1231.5 c 128,-1,32
 352 1278 352 1278 340 1307.5 c 128,-1,33
 328 1337 328 1337 305 1350 c 128,-1,34
 282 1363 282 1363 253 1363 c 0,35,36
 250 1363 250 1363 246.5 1363 c 128,-1,37
 243 1363 243 1363 239 1362 c 1,38,-1
 244 1387 l 1,39,40
 320 1387 320 1387 374 1374.5 c 128,-1,41
 428 1362 428 1362 458.5 1329 c 128,-1,42
 489 1296 489 1296 495 1237 c 128,-1,43
 501 1178 501 1178 481 1085 c 2,44,-1
 401 706 l 2,45,46
 389 651 389 651 387.5 612 c 128,-1,47
 386 573 386 573 397.5 544.5 c 128,-1,48
 409 516 409 516 435.5 496.5 c 128,-1,49
 462 477 462 477 507 462 c 1,0,1
EndSplineSet
Substitution2: "<17001,16003> Urdu lookup 95 subtable" braceright
EndChar

StartChar: asciitilde
Encoding: 126 126 97
Width: 1241
GlyphClass: 2
Flags: W
LayerCount: 2
Fore
SplineSet
177 363 m 1,0,-1
 105 445 l 1,1,2
 150 514 150 514 191.5 560 c 128,-1,3
 233 606 233 606 269 633 c 128,-1,4
 305 660 305 660 336.5 671 c 128,-1,5
 368 682 368 682 394 682 c 0,6,7
 417 682 417 682 438 679 c 128,-1,8
 459 676 459 676 489 666.5 c 128,-1,9
 519 657 519 657 564 639 c 128,-1,10
 609 621 609 621 679 591 c 0,11,12
 721 573 721 573 748.5 562.5 c 128,-1,13
 776 552 776 552 794.5 546 c 128,-1,14
 813 540 813 540 825.5 538.5 c 128,-1,15
 838 537 838 537 851 537 c 0,16,17
 913 537 913 537 964 578.5 c 128,-1,18
 1015 620 1015 620 1066 713 c 1,19,-1
 1137 633 l 1,20,21
 1111 577 1111 577 1077.5 534.5 c 128,-1,22
 1044 492 1044 492 1006.5 464 c 128,-1,23
 969 436 969 436 930 422 c 128,-1,24
 891 408 891 408 854 408 c 0,25,26
 808 408 808 408 766 421 c 0,27,28
 743 428 743 428 688.5 450 c 128,-1,29
 634 472 634 472 546 509 c 0,30,31
 513 523 513 523 491.5 531.5 c 128,-1,32
 470 540 470 540 454 544.5 c 128,-1,33
 438 549 438 549 425.5 550 c 128,-1,34
 413 551 413 551 397 551 c 0,35,36
 357 551 357 551 300 505.5 c 128,-1,37
 243 460 243 460 177 363 c 1,0,-1
EndSplineSet
Substitution2: "<17001,16003> Urdu lookup 95 subtable" asciitilde
EndChar

StartChar: exclamdown
Encoding: 161 161 99
Width: 682
GlyphClass: 2
Flags: W
LayerCount: 2
Fore
SplineSet
509 869 m 0,0,1
 509 841 509 841 499.5 816.5 c 128,-1,2
 490 792 490 792 473.5 774 c 128,-1,3
 457 756 457 756 435 745.5 c 128,-1,4
 413 735 413 735 387 735 c 0,5,6
 345 735 345 735 321.5 760 c 128,-1,7
 298 785 298 785 298 831 c 0,8,9
 298 864 298 864 307.5 891 c 128,-1,10
 317 918 317 918 333.5 937 c 128,-1,11
 350 956 350 956 371.5 966.5 c 128,-1,12
 393 977 393 977 417 977 c 0,13,14
 459 977 459 977 484 949 c 128,-1,15
 509 921 509 921 509 869 c 0,0,1
381 583 m 1,16,-1
 394 573 l 1,17,18
 369 429 369 429 331 141 c 0,19,20
 312 -4 312 -4 296 -142.5 c 128,-1,21
 280 -281 280 -281 267 -420 c 1,22,23
 215 -431 215 -431 172 -443.5 c 128,-1,24
 129 -456 129 -456 94 -470 c 1,25,-1
 72 -452 l 1,26,27
 74 -445 74 -445 83.5 -408.5 c 128,-1,28
 93 -372 93 -372 106.5 -317.5 c 128,-1,29
 120 -263 120 -263 137 -195.5 c 128,-1,30
 154 -128 154 -128 171.5 -58 c 128,-1,31
 189 12 189 12 206 79 c 128,-1,32
 223 146 223 146 236.5 200 c 128,-1,33
 250 254 250 254 259 289.5 c 128,-1,34
 268 325 268 325 269 331 c 2,35,-1
 320 549 l 1,36,-1
 381 583 l 1,16,-1
EndSplineSet
Substitution2: "<17001,16003> Urdu lookup 95 subtable" exclamdown
EndChar

StartChar: cent
Encoding: 162 162 100
Width: 1024
GlyphClass: 2
Flags: W
LayerCount: 2
Fore
SplineSet
680 974 m 1,0,1
 696 977 696 977 720.5 979.5 c 128,-1,2
 745 982 745 982 767 982 c 0,3,4
 815 982 815 982 858 966 c 128,-1,5
 901 950 901 950 919 908 c 1,6,-1
 871 732 l 1,7,-1
 851 722 l 1,8,9
 847 761 847 761 835 794.5 c 128,-1,10
 823 828 823 828 802.5 852.5 c 128,-1,11
 782 877 782 877 752.5 890.5 c 128,-1,12
 723 904 723 904 685 904 c 2,13,-1
 667 904 l 1,14,-1
 522 78 l 1,15,16
 591 78 591 78 643 99 c 1,17,18
 697 122 697 122 797 170 c 1,19,-1
 791 114 l 1,20,-1
 571 8 l 2,21,22
 537 -8 537 -8 506 -16 c 1,23,-1
 469 -230 l 1,24,-1
 403 -230 l 1,25,-1
 438 -28 l 1,26,27
 435 -29 435 -29 418.5 -29 c 128,-1,28
 402 -29 402 -29 393 -30 c 1,29,30
 350 -30 350 -30 308 -13.5 c 128,-1,31
 266 3 266 3 233 38.5 c 128,-1,32
 200 74 200 74 179.5 129 c 128,-1,33
 159 184 159 184 159 262 c 0,34,35
 159 433 159 433 207 569 c 0,36,37
 255 707 255 707 307 762 c 0,38,39
 348 805 348 805 392.5 838.5 c 128,-1,40
 437 872 437 872 479 896 c 128,-1,41
 521 920 521 920 555.5 935 c 128,-1,42
 590 950 590 950 611 956 c 1,43,-1
 649 1174 l 1,44,-1
 715 1174 l 1,45,-1
 680 974 l 1,0,1
600 897 m 1,46,47
 543 885 543 885 498.5 855 c 128,-1,48
 454 825 454 825 412 765 c 0,49,50
 370 706 370 706 337 580 c 1,51,52
 305 452 305 452 305 322 c 0,53,54
 305 211 305 211 345.5 153.5 c 128,-1,55
 386 96 386 96 457 82 c 1,56,-1
 600 897 l 1,46,47
EndSplineSet
Substitution2: "<17001,16003> Urdu lookup 95 subtable" cent
EndChar

StartChar: sterling
Encoding: 163 163 101
Width: 1024
GlyphClass: 2
Flags: W
LayerCount: 2
Fore
SplineSet
396 808 m 1,0,1
 398 820 398 820 401 840 c 128,-1,2
 404 860 404 860 408 883.5 c 128,-1,3
 412 907 412 907 416 931.5 c 128,-1,4
 420 956 420 956 423 976.5 c 128,-1,5
 426 997 426 997 428.5 1011 c 128,-1,6
 431 1025 431 1025 431 1027 c 0,7,8
 436 1055 436 1055 449.5 1099.5 c 128,-1,9
 463 1144 463 1144 491.5 1193.5 c 128,-1,10
 520 1243 520 1243 567.5 1291 c 128,-1,11
 615 1339 615 1339 689 1374 c 0,12,13
 734 1395 734 1395 771 1409.5 c 128,-1,14
 808 1424 808 1424 839.5 1432.5 c 128,-1,15
 871 1441 871 1441 899 1444.5 c 128,-1,16
 927 1448 927 1448 954 1448 c 0,17,18
 1006 1448 1006 1448 1064.5 1430 c 128,-1,19
 1123 1412 1123 1412 1174 1378 c 1,20,21
 1164 1348 1164 1348 1151 1311 c 128,-1,22
 1138 1274 1138 1274 1126 1238 c 128,-1,23
 1114 1202 1114 1202 1104.5 1170 c 128,-1,24
 1095 1138 1095 1138 1092 1118 c 1,25,-1
 1062 1122 l 1,26,27
 1062 1252 1062 1252 1013.5 1317 c 128,-1,28
 965 1382 965 1382 862 1382 c 0,29,30
 809 1382 809 1382 766 1355.5 c 128,-1,31
 723 1329 723 1329 691.5 1288.5 c 128,-1,32
 660 1248 660 1248 639 1200 c 128,-1,33
 618 1152 618 1152 609 1109 c 256,34,35
 600 1066 600 1066 592 1022 c 128,-1,36
 584 978 584 978 577 938 c 128,-1,37
 570 898 570 898 564.5 864 c 128,-1,38
 559 830 559 830 555 808 c 1,39,40
 643 808 643 808 716 809 c 128,-1,41
 789 810 789 810 846 812 c 1,42,-1
 834 748 l 1,43,44
 810 749 810 749 770.5 750 c 128,-1,45
 731 751 731 751 689 751.5 c 128,-1,46
 647 752 647 752 608.5 752.5 c 128,-1,47
 570 753 570 753 546 753 c 1,48,49
 540 714 540 714 535 686.5 c 128,-1,50
 530 659 530 659 524 633 c 128,-1,51
 518 607 518 607 508.5 578 c 128,-1,52
 499 549 499 549 482 505 c 0,53,54
 452 424 452 424 377 319 c 0,55,56
 340 266 340 266 297.5 218.5 c 128,-1,57
 255 171 255 171 204 126 c 1,58,-1
 216 114 l 1,59,60
 253 130 253 130 281.5 142 c 128,-1,61
 310 154 310 154 334 162 c 128,-1,62
 358 170 358 170 380 174 c 128,-1,63
 402 178 402 178 427 178 c 0,64,65
 500 178 500 178 559 169 c 128,-1,66
 618 160 618 160 651 155 c 0,67,68
 685 150 685 150 732.5 145 c 128,-1,69
 780 140 780 140 820 140 c 0,70,71
 853 140 853 140 876 149.5 c 128,-1,72
 899 159 899 159 916 182.5 c 128,-1,73
 933 206 933 206 946.5 246 c 128,-1,74
 960 286 960 286 974 346 c 1,75,-1
 1018 350 l 1,76,-1
 969 14 l 1,77,78
 948 5 948 5 933.5 -1.5 c 128,-1,79
 919 -8 919 -8 904.5 -11.5 c 128,-1,80
 890 -15 890 -15 871.5 -16.5 c 128,-1,81
 853 -18 853 -18 823 -18 c 0,82,83
 782 -18 782 -18 751 -15.5 c 128,-1,84
 720 -13 720 -13 691 -8.5 c 128,-1,85
 662 -4 662 -4 630 3 c 128,-1,86
 598 10 598 10 555 20 c 0,87,88
 515 29 515 29 474 39 c 128,-1,89
 433 49 433 49 395.5 56.5 c 128,-1,90
 358 64 358 64 327 69 c 128,-1,91
 296 74 296 74 277 74 c 256,92,93
 258 74 258 74 243.5 72.5 c 128,-1,94
 229 71 229 71 215 68 c 128,-1,95
 201 65 201 65 183.5 59.5 c 128,-1,96
 166 54 166 54 140 46 c 1,97,98
 110 8 110 8 87 -14 c 128,-1,99
 64 -36 64 -36 46 -36 c 0,100,101
 26 -36 26 -36 10 -23.5 c 128,-1,102
 -6 -11 -6 -11 -18 -2 c 1,103,-1
 -2 46 l 1,104,105
 24 55 24 55 41.5 61.5 c 128,-1,106
 59 68 59 68 77 78 c 128,-1,107
 95 88 95 88 116.5 103 c 128,-1,108
 138 118 138 118 170 144 c 0,109,110
 232 194 232 194 285 328 c 0,111,112
 339 462 339 462 387 753 c 1,113,114
 345 753 345 753 311.5 753 c 128,-1,115
 278 753 278 753 250 752.5 c 128,-1,116
 222 752 222 752 198.5 751 c 128,-1,117
 175 750 175 750 152 748 c 1,118,-1
 160 812 l 1,119,120
 206 810 206 810 265 809 c 128,-1,121
 324 808 324 808 396 808 c 1,0,1
EndSplineSet
Substitution2: "<17001,16003> Urdu lookup 95 subtable" sterling
EndChar

StartChar: currency
Encoding: 164 164 102
Width: 1241
GlyphClass: 2
Flags: W
LayerCount: 2
Fore
SplineSet
846 245 m 1,0,1
 795 207 795 207 733 185.5 c 128,-1,2
 671 164 671 164 605 164 c 0,3,4
 536 164 536 164 476 185 c 128,-1,5
 416 206 416 206 364 245 c 1,6,-1
 120 1 l 1,7,-1
 44 77 l 1,8,-1
 288 321 l 1,9,10
 250 373 250 373 228.5 434.5 c 128,-1,11
 207 496 207 496 207 562 c 0,12,13
 207 631 207 631 228 691 c 128,-1,14
 249 751 249 751 288 803 c 1,15,-1
 44 1047 l 1,16,-1
 120 1123 l 1,17,-1
 364 879 l 1,18,19
 418 918 418 918 477 939 c 128,-1,20
 536 960 536 960 605 960 c 256,21,22
 674 960 674 960 734 939 c 128,-1,23
 794 918 794 918 846 879 c 1,24,-1
 1090 1123 l 1,25,-1
 1166 1047 l 1,26,-1
 922 803 l 1,27,28
 961 752 961 752 982 691.5 c 128,-1,29
 1003 631 1003 631 1003 562 c 256,30,31
 1003 493 1003 493 982 433 c 128,-1,32
 961 373 961 373 922 321 c 1,33,-1
 1166 77 l 1,34,-1
 1090 1 l 1,35,-1
 846 245 l 1,0,1
900 562 m 256,36,37
 900 622 900 622 876.5 676 c 128,-1,38
 853 730 853 730 813 770 c 128,-1,39
 773 810 773 810 719 833.5 c 128,-1,40
 665 857 665 857 605 857 c 256,41,42
 545 857 545 857 491.5 834 c 128,-1,43
 438 811 438 811 397.5 771 c 128,-1,44
 357 731 357 731 333.5 677 c 128,-1,45
 310 623 310 623 310 562 c 0,46,47
 310 502 310 502 333.5 448 c 128,-1,48
 357 394 357 394 397 354 c 128,-1,49
 437 314 437 314 491 290.5 c 128,-1,50
 545 267 545 267 605 267 c 0,51,52
 666 267 666 267 720 290.5 c 128,-1,53
 774 314 774 314 814 354.5 c 128,-1,54
 854 395 854 395 877 448.5 c 128,-1,55
 900 502 900 502 900 562 c 256,36,37
EndSplineSet
Substitution2: "<17001,16003> Urdu lookup 95 subtable" currency
EndChar

StartChar: yen
Encoding: 165 165 103
Width: 1366
GlyphClass: 2
Flags: W
LayerCount: 2
Fore
SplineSet
834 565 m 1,0,1
 832 552 832 552 826.5 522 c 128,-1,2
 821 492 821 492 814.5 454 c 128,-1,3
 808 416 808 416 800.5 374.5 c 128,-1,4
 793 333 793 333 787 297.5 c 128,-1,5
 781 262 781 262 777 237 c 128,-1,6
 773 212 773 212 772 207 c 0,7,8
 769 179 769 179 769 149 c 0,9,10
 769 100 769 100 786.5 82.5 c 128,-1,11
 804 65 804 65 849 62 c 2,12,-1
 963 54 l 1,13,-1
 953 0 l 1,14,15
 934 0 934 0 905.5 0.5 c 128,-1,16
 877 1 877 1 845.5 2 c 128,-1,17
 814 3 814 3 782 4.5 c 128,-1,18
 750 6 750 6 723.5 7 c 128,-1,19
 697 8 697 8 678.5 8.5 c 128,-1,20
 660 9 660 9 656 9 c 0,21,22
 643 9 643 9 617.5 8.5 c 128,-1,23
 592 8 592 8 560.5 7 c 128,-1,24
 529 6 529 6 494.5 4.5 c 128,-1,25
 460 3 460 3 430 2 c 128,-1,26
 400 1 400 1 378 0.5 c 128,-1,27
 356 0 356 0 348 0 c 1,28,-1
 358 54 l 1,29,30
 364 54 364 54 390 54 c 128,-1,31
 416 54 416 54 447.5 57.5 c 128,-1,32
 479 61 479 61 508.5 70 c 128,-1,33
 538 79 538 79 553 96 c 0,34,35
 566 111 566 111 575.5 133 c 128,-1,36
 585 155 585 155 593 188.5 c 128,-1,37
 601 222 601 222 609.5 269.5 c 128,-1,38
 618 317 618 317 629 383 c 0,39,40
 640 450 640 450 647.5 495 c 128,-1,41
 655 540 655 540 658 565 c 1,42,-1
 287 565 l 1,43,-1
 299 629 l 1,44,-1
 668 629 l 1,45,-1
 670 645 l 1,46,-1
 595 900 l 1,47,-1
 345 900 l 1,48,-1
 357 964 l 1,49,-1
 576 964 l 1,50,-1
 489 1263 l 2,51,52
 478 1298 478 1298 464.5 1318.5 c 128,-1,53
 451 1339 451 1339 434 1349.5 c 128,-1,54
 417 1360 417 1360 396.5 1362.5 c 128,-1,55
 376 1365 376 1365 351 1365 c 1,56,-1
 360 1419 l 1,57,58
 384 1418 384 1418 417.5 1417 c 128,-1,59
 451 1416 451 1416 485 1415 c 128,-1,60
 519 1414 519 1414 549 1413 c 128,-1,61
 579 1412 579 1412 596 1412 c 0,62,63
 666 1412 666 1412 724 1414 c 128,-1,64
 782 1416 782 1416 834 1419 c 1,65,-1
 826 1365 l 1,66,67
 793 1362 793 1362 765 1358.5 c 128,-1,68
 737 1355 737 1355 716.5 1346 c 128,-1,69
 696 1337 696 1337 684 1318.5 c 128,-1,70
 672 1300 672 1300 672 1265 c 0,71,72
 672 1257 672 1257 672 1252.5 c 128,-1,73
 672 1248 672 1248 673 1242.5 c 128,-1,74
 674 1237 674 1237 676 1228 c 128,-1,75
 678 1219 678 1219 683 1201 c 2,76,-1
 750 964 l 1,77,-1
 982 964 l 1,78,79
 1002 996 1002 996 1015.5 1017.5 c 128,-1,80
 1029 1039 1029 1039 1040 1056.5 c 128,-1,81
 1051 1074 1051 1074 1061.5 1092 c 128,-1,82
 1072 1110 1072 1110 1087 1134 c 0,83,84
 1113 1175 1113 1175 1127.5 1207 c 128,-1,85
 1142 1239 1142 1239 1149.5 1261.5 c 128,-1,86
 1157 1284 1157 1284 1159 1296.5 c 128,-1,87
 1161 1309 1161 1309 1161 1311 c 0,88,89
 1161 1336 1161 1336 1140 1350.5 c 128,-1,90
 1119 1365 1119 1365 1091 1365 c 2,91,-1
 1039 1365 l 1,92,-1
 1038 1419 l 1,93,94
 1049 1419 1049 1419 1076.5 1418 c 128,-1,95
 1104 1417 1104 1417 1137 1416 c 128,-1,96
 1170 1415 1170 1415 1201 1414.5 c 128,-1,97
 1232 1414 1232 1414 1248 1414 c 0,98,99
 1308 1414 1308 1414 1352 1415 c 128,-1,100
 1396 1416 1396 1416 1438 1419 c 1,101,-1
 1431 1365 l 1,102,103
 1397 1365 1397 1365 1368 1357.5 c 128,-1,104
 1339 1350 1339 1350 1318 1332 c 0,105,106
 1302 1318 1302 1318 1282.5 1295.5 c 128,-1,107
 1263 1273 1263 1273 1238.5 1240 c 128,-1,108
 1214 1207 1214 1207 1184 1163 c 128,-1,109
 1154 1119 1154 1119 1116 1061 c 2,110,-1
 1052 964 l 1,111,-1
 1284 964 l 1,112,-1
 1272 900 l 1,113,-1
 1008 900 l 1,114,115
 997 882 997 882 979 853.5 c 128,-1,116
 961 825 961 825 939 790.5 c 128,-1,117
 917 756 917 756 893.5 719 c 128,-1,118
 870 682 870 682 848 647 c 1,119,-1
 846 629 l 1,120,-1
 1226 629 l 1,121,-1
 1214 565 l 1,122,-1
 834 565 l 1,0,1
769 900 m 1,123,-1
 821 719 l 1,124,125
 831 733 831 733 847 757 c 128,-1,126
 863 781 863 781 880.5 807.5 c 128,-1,127
 898 834 898 834 914 859 c 128,-1,128
 930 884 930 884 941 900 c 1,129,-1
 769 900 l 1,123,-1
EndSplineSet
Substitution2: "<17001,16003> Urdu lookup 95 subtable" yen
EndChar

StartChar: brokenbar
Encoding: 166 166 104
Width: 1241
GlyphClass: 2
Flags: W
LayerCount: 2
Fore
SplineSet
563 1501 m 1,0,-1
 678 1501 l 1,1,-1
 678 908 l 1,2,-1
 563 908 l 1,3,-1
 563 1501 l 1,0,-1
563 0 m 1,4,-1
 563 593 l 1,5,-1
 678 593 l 1,6,-1
 678 0 l 1,7,-1
 563 0 l 1,4,-1
EndSplineSet
Substitution2: "<17001,16003> Urdu lookup 95 subtable" brokenbar
EndChar

